Kanz-al-Marjaan-Regular.ufo
<glyph name="numbersign" format="2">
  <advance width="1078"/>
  <unicode hex="0023"/>
  <outline>
    <contour>
      <point x="602" y="347" type="line"/>
      <point x="386" y="347" type="line"/>
      <point x="319" y="0" type="line"/>
      <point x="191" y="0" type="line"/>
      <point x="258" y="347" type="line"/>
      <point x="60" y="347" type="line"/>
      <point x="60" y="464" type="line"/>
      <point x="282" y="464" type="line"/>
      <point x="340" y="758" type="line"/>
      <point x="124" y="758" type="line"/>
      <point x="124" y="878" type="line"/>
      <point x="362" y="878" type="line"/>
      <point x="433" y="1230" type="line"/>
      <point x="559" y="1230" type="line"/>
      <point x="492" y="878" type="line"/>
      <point x="707" y="878" type="line"/>
      <point x="775" y="1230" type="line"/>
      <point x="904" y="1230" type="line"/>
      <point x="834" y="878" type="line"/>
      <point x="1002" y="878" type="line"/>
      <point x="1002" y="758" type="line"/>
      <point x="811" y="758" type="line"/>
      <point x="754" y="464" type="line"/>
      <point x="938" y="464" type="line"/>
      <point x="938" y="347" type="line"/>
      <point x="730" y="347" type="line"/>
      <point x="662" y="0" type="line"/>
      <point x="535" y="0" type="line"/>
    </contour>
    <contour>
      <point x="410" y="464" type="line"/>
      <point x="625" y="464" type="line"/>
      <point x="683" y="758" type="line"/>
      <point x="467" y="758" type="line"/>
    </contour>
  </outline>
</glyph>
<glyph name="dollar" format="2">
  <advance width="1007"/>
  <unicode hex="0024"/>
  <outline>
    <contour>
      <point x="731" y="423"/>
      <point x="623" y="530"/>
      <point x="499" y="572" type="qcurve"/>
      <point x="331" y="623"/>
      <point x="155" y="796"/>
      <point x="155" y="939" type="qcurve" smooth="yes"/>
      <point x="155" y="1078"/>
      <point x="316" y="1256"/>
      <point x="455" y="1274" type="qcurve"/>
      <point x="455" y="1458" type="line"/>
      <point x="589" y="1458" type="line"/>
      <point x="589" y="1272" type="line"/>
      <point x="730" y="1253"/>
      <point x="886" y="1059"/>
      <point x="886" y="896" type="qcurve"/>
      <point x="719" y="896" type="line"/>
      <point x="719" y="1004"/>
      <point x="614" y="1137"/>
      <point x="511" y="1137" type="qcurve" smooth="yes"/>
      <point x="419" y="1137"/>
      <point x="322" y="1032"/>
      <point x="322" y="946" type="qcurve" smooth="yes"/>
      <point x="322" y="861"/>
      <point x="423" y="759"/>
      <point x="560" y="713" type="qcurve" smooth="yes"/>
      <point x="730" y="657"/>
      <point x="898" y="492"/>
      <point x="898" y="348" type="qcurve" smooth="yes"/>
      <point x="898" y="204"/>
      <point x="723" y="32"/>
      <point x="571" y="16" type="qcurve"/>
      <point x="571" y="-146" type="line"/>
      <point x="437" y="-146" type="line"/>
      <point x="437" y="15" type="line"/>
      <point x="295" y="30"/>
      <point x="108" y="212"/>
      <point x="112" y="387" type="qcurve"/>
      <point x="113" y="392" type="line"/>
      <point x="272" y="392" type="line"/>
      <point x="272" y="262"/>
      <point x="403" y="152"/>
      <point x="507" y="152" type="qcurve" smooth="yes"/>
      <point x="608" y="152"/>
      <point x="731" y="255"/>
      <point x="731" y="342" type="qcurve" smooth="yes"/>
    </contour>
  </outline>
</glyph>
<glyph name="asterisk" format="2">
  <advance width="746"/>
  <unicode hex="002A"/>
  <outline>
    <contour>
      <point x="273" y="533" type="line"/>
      <point x="74" y="590" type="line"/>
      <point x="116" y="720" type="line"/>
      <point x="314" y="644" type="line"/>
      <point x="306" y="860" type="line"/>
      <point x="442" y="860" type="line"/>
      <point x="434" y="639" type="line"/>
      <point x="631" y="714" type="line"/>
      <point x="672" y="581" type="line"/>
      <point x="466" y="525" type="line"/>
      <point x="596" y="356" type="line"/>
      <point x="484" y="274" type="line"/>
      <point x="367" y="459" type="line"/>
      <point x="252" y="281" type="line"/>
      <point x="140" y="359" type="line"/>
    </contour>
  </outline>
</glyph>
<glyph name="plus" format="2">
  <advance width="982"/>
  <unicode hex="002B"/>
  <outline>
    <contour>
      <point x="573" y="641" type="line"/>
      <point x="910" y="641" type="line"/>
      <point x="910" y="491" type="line"/>
      <point x="573" y="491" type="line"/>
      <point x="573" y="103" type="line"/>
      <point x="406" y="103" type="line"/>
      <point x="406" y="491" type="line"/>
      <point x="65" y="491" type="line"/>
      <point x="65" y="641" type="line"/>
      <point x="406" y="641" type="line"/>
      <point x="406" y="998" type="line"/>
      <point x="573" y="998" type="line"/>
    </contour>
  </outline>
</glyph>
<glyph name="comma" format="2">
  <advance width="341"/>
  <unicode hex="002C"/>
  <outline>
    <contour>
      <point x="267" y="77" type="line"/>
      <point x="139" y="-182" type="line"/>
      <point x="41" y="-182" type="line"/>
      <point x="99" y="86" type="line"/>
      <point x="99" y="224" type="line"/>
      <point x="267" y="224" type="line"/>
    </contour>
  </outline>
</glyph>
<glyph name="hyphen" format="2">
  <advance width="780"/>
  <unicode hex="002D"/>
  <outline>
    <contour>
      <point x="641" y="378" type="line"/>
      <point x="142" y="378" type="line"/>
      <point x="142" y="509" type="line"/>
      <point x="641" y="509" type="line"/>
    </contour>
  </outline>
</glyph>
<glyph name="period" format="2">
  <advance width="464"/>
  <unicode hex="002E"/>
  <outline>
    <contour>
      <point x="303" y="0" type="line"/>
      <point x="137" y="0" type="line"/>
      <point x="137" y="170" type="line"/>
      <point x="303" y="170" type="line"/>
    </contour>
  </outline>
</glyph>
<glyph name="slash" format="2">
  <advance width="717"/>
  <unicode hex="002F"/>
  <outline>
    <contour>
      <point x="156" y="-88" type="line"/>
      <point x="13" y="-88" type="line"/>
      <point x="527" y="1248" type="line"/>
      <point x="668" y="1248" type="line"/>
    </contour>
  </outline>
</glyph>
<glyph name="zero" format="2">
  <advance width="974"/>
  <unicode hex="0030"/>
  <outline>
    <contour>
      <point x="879" y="437" type="line" smooth="yes"/>
      <point x="879" y="229"/>
      <point x="666" y="-15"/>
      <point x="487" y="-15" type="qcurve" smooth="yes"/>
      <point x="310" y="-15"/>
      <point x="95" y="229"/>
      <point x="95" y="437" type="qcurve" smooth="yes"/>
      <point x="95" y="799" type="line" smooth="yes"/>
      <point x="95" y="1006"/>
      <point x="307" y="1251"/>
      <point x="486" y="1251" type="qcurve" smooth="yes"/>
      <point x="665" y="1251"/>
      <point x="879" y="1006"/>
      <point x="879" y="799" type="qcurve" smooth="yes"/>
    </contour>
    <contour>
      <point x="712" y="833" type="line" smooth="yes"/>
      <point x="712" y="965"/>
      <point x="593" y="1120"/>
      <point x="486" y="1120" type="qcurve" smooth="yes"/>
      <point x="378" y="1120"/>
      <point x="262" y="965"/>
      <point x="262" y="833" type="qcurve" smooth="yes"/>
      <point x="262" y="404" type="line" smooth="yes"/>
      <point x="262" y="271"/>
      <point x="382" y="116"/>
      <point x="488" y="116" type="qcurve" smooth="yes"/>
      <point x="595" y="116"/>
      <point x="712" y="269"/>
      <point x="712" y="404" type="qcurve" smooth="yes"/>
    </contour>
  </outline>
</glyph>
<glyph name="three" format="2">
  <advance width="973"/>
  <unicode hex="0033"/>
  <outline>
    <contour>
      <point x="488" y="701" type="line" smooth="yes"/>
      <point x="601" y="701"/>
      <point x="693" y="813"/>
      <point x="693" y="908" type="qcurve" smooth="yes"/>
      <point x="693" y="1005"/>
      <point x="593" y="1120"/>
      <point x="495" y="1120" type="qcurve" smooth="yes"/>
      <point x="397" y="1120"/>
      <point x="271" y="1000"/>
      <point x="271" y="911" type="qcurve"/>
      <point x="113" y="911" type="line"/>
      <point x="109" y="917" type="line"/>
      <point x="104" y="1055"/>
      <point x="324" y="1251"/>
      <point x="499" y="1251" type="qcurve" smooth="yes"/>
      <point x="665" y="1251"/>
      <point x="859" y="1078"/>
      <point x="859" y="909" type="qcurve" smooth="yes"/>
      <point x="859" y="824"/>
      <point x="769" y="681"/>
      <point x="687" y="641" type="qcurve"/>
      <point x="780" y="605"/>
      <point x="877" y="453"/>
      <point x="877" y="342" type="qcurve" smooth="yes"/>
      <point x="877" y="176"/>
      <point x="665" y="-15"/>
      <point x="498" y="-15" type="qcurve" smooth="yes"/>
      <point x="336" y="-15"/>
      <point x="102" y="170"/>
      <point x="102" y="322" type="qcurve"/>
      <point x="103" y="327" type="line"/>
      <point x="261" y="327" type="line"/>
      <point x="261" y="237"/>
      <point x="391" y="116"/>
      <point x="492" y="116" type="qcurve" smooth="yes"/>
      <point x="594" y="116"/>
      <point x="711" y="242"/>
      <point x="711" y="351" type="qcurve" smooth="yes"/>
      <point x="711" y="458"/>
      <point x="603" y="573"/>
      <point x="488" y="573" type="qcurve" smooth="yes"/>
      <point x="353" y="573" type="line"/>
      <point x="353" y="701" type="line"/>
    </contour>
  </outline>
</glyph>
<glyph name="four" format="2">
  <advance width="973"/>
  <unicode hex="0034"/>
  <outline>
    <contour>
      <point x="753" y="414" type="line"/>
      <point x="924" y="414" type="line"/>
      <point x="924" y="284" type="line"/>
      <point x="753" y="284" type="line"/>
      <point x="753" y="0" type="line"/>
      <point x="589" y="0" type="line"/>
      <point x="589" y="284" type="line"/>
      <point x="61" y="284" type="line"/>
      <point x="61" y="378" type="line"/>
      <point x="578" y="1230" type="line"/>
      <point x="753" y="1230" type="line"/>
    </contour>
    <contour>
      <point x="239" y="414" type="line"/>
      <point x="589" y="414" type="line"/>
      <point x="589" y="991" type="line"/>
      <point x="583" y="991" type="line"/>
      <point x="569" y="949" type="line"/>
    </contour>
  </outline>
</glyph>
<glyph name="six" format="2">
  <advance width="972"/>
  <unicode hex="0036"/>
  <outline>
    <contour>
      <point x="614" y="1251"/>
      <point x="756" y="1221"/>
      <point x="802" y="1201" type="qcurve"/>
      <point x="766" y="1072" type="line"/>
      <point x="718" y="1095"/>
      <point x="613" y="1120"/>
      <point x="542" y="1120" type="qcurve" smooth="yes"/>
      <point x="426" y="1120"/>
      <point x="282" y="922"/>
      <point x="282" y="771" type="qcurve" smooth="yes"/>
      <point x="282" y="676" type="line"/>
      <point x="334" y="728"/>
      <point x="475" y="787"/>
      <point x="557" y="787" type="qcurve" smooth="yes"/>
      <point x="714" y="787"/>
      <point x="898" y="573"/>
      <point x="898" y="398" type="qcurve" smooth="yes"/>
      <point x="898" y="211"/>
      <point x="693" y="-15"/>
      <point x="525" y="-15" type="qcurve" smooth="yes"/>
      <point x="347" y="-15"/>
      <point x="116" y="245"/>
      <point x="116" y="470" type="qcurve" smooth="yes"/>
      <point x="116" y="753" type="line" smooth="yes"/>
      <point x="116" y="968"/>
      <point x="362" y="1251"/>
      <point x="551" y="1251" type="qcurve" smooth="yes"/>
    </contour>
    <contour>
      <point x="424" y="662"/>
      <point x="311" y="596"/>
      <point x="282" y="538" type="qcurve"/>
      <point x="282" y="453" type="line" smooth="yes"/>
      <point x="282" y="297"/>
      <point x="418" y="116"/>
      <point x="522" y="116" type="qcurve" smooth="yes"/>
      <point x="620" y="116"/>
      <point x="732" y="274"/>
      <point x="732" y="395" type="qcurve" smooth="yes"/>
      <point x="732" y="520"/>
      <point x="613" y="662"/>
      <point x="502" y="662" type="qcurve" smooth="yes"/>
    </contour>
  </outline>
</glyph>
<glyph name="seven" format="2">
  <advance width="974"/>
  <unicode hex="0037"/>
  <outline>
    <contour>
      <point x="898" y="1099" type="line"/>
      <point x="665" y="822"/>
      <point x="501" y="398"/>
      <point x="501" y="134" type="qcurve" smooth="yes"/>
      <point x="501" y="0" type="line"/>
      <point x="335" y="0" type="line"/>
      <point x="335" y="134" type="line" smooth="yes"/>
      <point x="335" y="413"/>
      <point x="540" y="859"/>
      <point x="735" y="1099" type="qcurve"/>
      <point x="83" y="1099" type="line"/>
      <point x="83" y="1230" type="line"/>
      <point x="898" y="1230" type="line"/>
    </contour>
  </outline>
</glyph>
<glyph name="eight" format="2">
  <advance width="972"/>
  <unicode hex="0038"/>
  <outline>
    <contour>
      <point x="853" y="823"/>
      <point x="745" y="677"/>
      <point x="656" y="639" type="qcurve"/>
      <point x="759" y="604"/>
      <point x="886" y="445"/>
      <point x="886" y="327" type="qcurve" smooth="yes"/>
      <point x="886" y="171"/>
      <point x="667" y="-15"/>
      <point x="491" y="-15" type="qcurve" smooth="yes"/>
      <point x="314" y="-15"/>
      <point x="86" y="171"/>
      <point x="86" y="330" type="qcurve" smooth="yes"/>
      <point x="86" y="446"/>
      <point x="214" y="604"/>
      <point x="325" y="640" type="qcurve"/>
      <point x="230" y="677"/>
      <point x="120" y="823"/>
      <point x="120" y="930" type="qcurve" smooth="yes"/>
      <point x="120" y="1081"/>
      <point x="327" y="1251"/>
      <point x="490" y="1251" type="qcurve" smooth="yes"/>
      <point x="652" y="1251"/>
      <point x="853" y="1079"/>
      <point x="853" y="931" type="qcurve" smooth="yes"/>
    </contour>
    <contour>
      <point x="720" y="445"/>
      <point x="591" y="575"/>
      <point x="490" y="575" type="qcurve" smooth="yes"/>
      <point x="388" y="575"/>
      <point x="252" y="445"/>
      <point x="252" y="343" type="qcurve" smooth="yes"/>
      <point x="252" y="239"/>
      <point x="388" y="116"/>
      <point x="491" y="116" type="qcurve" smooth="yes"/>
      <point x="593" y="116"/>
      <point x="720" y="241"/>
      <point x="720" y="344" type="qcurve" smooth="yes"/>
    </contour>
    <contour>
      <point x="687" y="1005"/>
      <point x="577" y="1120"/>
      <point x="490" y="1120" type="qcurve" smooth="yes"/>
      <point x="403" y="1120"/>
      <point x="286" y="1009"/>
      <point x="286" y="917" type="qcurve" smooth="yes"/>
      <point x="286" y="823"/>
      <point x="406" y="706"/>
      <point x="493" y="706" type="qcurve" smooth="yes"/>
      <point x="579" y="706"/>
      <point x="687" y="823"/>
      <point x="687" y="915" type="qcurve" smooth="yes"/>
    </contour>
  </outline>
</glyph>
<glyph name="nine" format="2">
  <advance width="973"/>
  <unicode hex="0039"/>
  <outline>
    <contour>
      <point x="545" y="116"/>
      <point x="690" y="279"/>
      <point x="690" y="431" type="qcurve" smooth="yes"/>
      <point x="690" y="538" type="line"/>
      <point x="649" y="477"/>
      <point x="530" y="414"/>
      <point x="444" y="414" type="qcurve" smooth="yes"/>
      <point x="281" y="414"/>
      <point x="78" y="634"/>
      <point x="78" y="822" type="qcurve" smooth="yes"/>
      <point x="78" y="1015"/>
      <point x="295" y="1251"/>
      <point x="466" y="1251" type="qcurve" smooth="yes"/>
      <point x="637" y="1251"/>
      <point x="858" y="1018"/>
      <point x="858" y="807" type="qcurve" smooth="yes"/>
      <point x="858" y="433" type="line" smooth="yes"/>
      <point x="858" y="222"/>
      <point x="615" y="-15"/>
      <point x="425" y="-15" type="qcurve" smooth="yes"/>
      <point x="360" y="-15"/>
      <point x="223" y="13"/>
      <point x="163" y="39" type="qcurve"/>
      <point x="189" y="165" type="line"/>
      <point x="246" y="139"/>
      <point x="353" y="116"/>
      <point x="425" y="116" type="qcurve" smooth="yes"/>
    </contour>
    <contour>
      <point x="545" y="545"/>
      <point x="665" y="626"/>
      <point x="690" y="687" type="qcurve"/>
      <point x="690" y="833" type="line" smooth="yes"/>
      <point x="690" y="970"/>
      <point x="569" y="1120"/>
      <point x="468" y="1120" type="qcurve" smooth="yes"/>
      <point x="366" y="1120"/>
      <point x="246" y="959"/>
      <point x="246" y="828" type="qcurve" smooth="yes"/>
      <point x="246" y="701"/>
      <point x="356" y="545"/>
      <point x="465" y="545" type="qcurve" smooth="yes"/>
    </contour>
  </outline>
</glyph>
<glyph name="colon" format="2">
  <advance width="436"/>
  <unicode hex="003A"/>
  <outline>
    <contour>
      <point x="303" y="0" type="line"/>
      <point x="137" y="0" type="line"/>
      <point x="137" y="170" type="line"/>
      <point x="303" y="170" type="line"/>
    </contour>
    <contour>
      <point x="303" y="740" type="line"/>
      <point x="137" y="740" type="line"/>
      <point x="137" y="910" type="line"/>
      <point x="303" y="910" type="line"/>
    </contour>
  </outline>
</glyph>
<glyph name="less" format="2">
  <advance width="878"/>
  <unicode hex="003C"/>
  <outline>
    <contour>
      <point x="276" y="473" type="line"/>
      <point x="204" y="459" type="line"/>
      <point x="204" y="453" type="line"/>
      <point x="276" y="438" type="line"/>
      <point x="750" y="245" type="line"/>
      <point x="750" y="76" type="line"/>
      <point x="60" y="395" type="line"/>
      <point x="60" y="521" type="line"/>
      <point x="750" y="840" type="line"/>
      <point x="750" y="671" type="line"/>
    </contour>
  </outline>
</glyph>
<glyph name="equal" format="2">
  <advance width="972"/>
  <unicode hex="003D"/>
  <outline>
    <contour>
      <point x="832" y="637" type="line"/>
      <point x="128" y="637" type="line"/>
      <point x="128" y="777" type="line"/>
      <point x="832" y="777" type="line"/>
    </contour>
    <contour>
      <point x="832" y="285" type="line"/>
      <point x="128" y="285" type="line"/>
      <point x="128" y="425" type="line"/>
      <point x="832" y="425" type="line"/>
    </contour>
  </outline>
</glyph>
<glyph name="greater" format="2">
  <advance width="904"/>
  <unicode hex="003E"/>
  <outline>
    <contour>
      <point x="115" y="662" type="line"/>
      <point x="115" y="825" type="line"/>
      <point x="837" y="507" type="line"/>
      <point x="837" y="381" type="line"/>
      <point x="115" y="62" type="line"/>
      <point x="115" y="226" type="line"/>
      <point x="620" y="428" type="line"/>
      <point x="692" y="441" type="line"/>
      <point x="692" y="447" type="line"/>
      <point x="620" y="464" type="line"/>
    </contour>
  </outline>
</glyph>
<glyph name="question" format="2">
  <advance width="822"/>
  <unicode hex="003F"/>
  <outline>
    <contour>
      <point x="300" y="347" type="line"/>
      <point x="300" y="468"/>
      <point x="341" y="564"/>
      <point x="428" y="641" type="qcurve"/>
      <point x="511" y="739"/>
      <point x="582" y="847"/>
      <point x="582" y="923" type="qcurve" smooth="yes"/>
      <point x="582" y="1012"/>
      <point x="487" y="1108"/>
      <point x="400" y="1108" type="qcurve" smooth="yes"/>
      <point x="320" y="1108"/>
      <point x="213" y="1025"/>
      <point x="213" y="943" type="qcurve"/>
      <point x="54" y="943" type="line"/>
      <point x="51" y="948" type="line"/>
      <point x="51" y="1084"/>
      <point x="246" y="1248"/>
      <point x="403" y="1248" type="qcurve" smooth="yes"/>
      <point x="564" y="1248"/>
      <point x="749" y="1078"/>
      <point x="749" y="932" type="qcurve" smooth="yes"/>
      <point x="749" y="817"/>
      <point x="629" y="637"/>
      <point x="530" y="541" type="qcurve" smooth="yes"/>
      <point x="485" y="498"/>
      <point x="467" y="424"/>
      <point x="467" y="347" type="qcurve"/>
    </contour>
    <contour>
      <point x="473" y="0" type="line"/>
      <point x="297" y="0" type="line"/>
      <point x="297" y="175" type="line"/>
      <point x="473" y="175" type="line"/>
    </contour>
  </outline>
</glyph>
<glyph name="at" format="2">
  <advance width="1549"/>
  <unicode hex="0040"/>
  <outline>
    <contour>
      <point x="1457" y="307"/>
      <point x="1269" y="46"/>
      <point x="1082" y="46" type="qcurve" smooth="yes"/>
      <point x="1020" y="46"/>
      <point x="930" y="116"/>
      <point x="910" y="180" type="qcurve"/>
      <point x="868" y="113"/>
      <point x="747" y="46"/>
      <point x="678" y="46" type="qcurve" smooth="yes"/>
      <point x="560" y="46"/>
      <point x="444" y="250"/>
      <point x="459" y="415" type="qcurve" smooth="yes"/>
      <point x="478" y="634"/>
      <point x="672" y="898"/>
      <point x="812" y="898" type="qcurve" smooth="yes"/>
      <point x="900" y="898"/>
      <point x="1007" y="854"/>
      <point x="1071" y="810" type="qcurve"/>
      <point x="1068" y="805" type="line"/>
      <point x="1073" y="805" type="line"/>
      <point x="1030" y="311" type="line" smooth="yes"/>
      <point x="1022" y="218"/>
      <point x="1074" y="148"/>
      <point x="1128" y="148" type="qcurve" smooth="yes"/>
      <point x="1222" y="148"/>
      <point x="1347" y="340"/>
      <point x="1353" y="488" type="qcurve" smooth="yes"/>
      <point x="1367" y="811"/>
      <point x="1097" y="1170"/>
      <point x="813" y="1170" type="qcurve" smooth="yes"/>
      <point x="551" y="1170"/>
      <point x="235" y="781"/>
      <point x="222" y="466" type="qcurve" smooth="yes"/>
      <point x="209" y="150"/>
      <point x="492" y="-220"/>
      <point x="752" y="-220" type="qcurve" smooth="yes"/>
      <point x="832" y="-220"/>
      <point x="983" y="-184"/>
      <point x="1036" y="-155" type="qcurve"/>
      <point x="1068" y="-244" type="line"/>
      <point x="1012" y="-281"/>
      <point x="837" y="-318"/>
      <point x="745" y="-318" type="qcurve" smooth="yes"/>
      <point x="432" y="-318"/>
      <point x="80" y="103"/>
      <point x="96" y="465" type="qcurve" smooth="yes"/>
      <point x="111" y="824"/>
      <point x="501" y="1272"/>
      <point x="822" y="1272" type="qcurve" smooth="yes"/>
      <point x="1136" y="1272"/>
      <point x="1479" y="851"/>
      <point x="1464" y="488" type="qcurve" smooth="yes"/>
    </contour>
    <contour>
      <point x="598" y="295"/>
      <point x="654" y="170"/>
      <point x="727" y="170" type="qcurve" smooth="yes"/>
      <point x="771" y="170"/>
      <point x="860" y="211"/>
      <point x="898" y="264" type="qcurve"/>
      <point x="897" y="275"/>
      <point x="898" y="298"/>
      <point x="899" y="311" type="qcurve" smooth="yes"/>
      <point x="939" y="767" type="line"/>
      <point x="917" y="775"/>
      <point x="868" y="788"/>
      <point x="841" y="788" type="qcurve" smooth="yes"/>
      <point x="737" y="788"/>
      <point x="625" y="602"/>
      <point x="609" y="415" type="qcurve" smooth="yes"/>
    </contour>
  </outline>
</glyph>
<glyph name="C" format="2">
  <advance width="1097"/>
  <unicode hex="0043"/>
  <outline>
    <contour>
      <point x="1021" y="397" type="line"/>
      <point x="1023" y="392" type="line"/>
      <point x="1023" y="218"/>
      <point x="776" y="-15"/>
      <point x="580" y="-15" type="qcurve" smooth="yes"/>
      <point x="362" y="-15"/>
      <point x="98" y="280"/>
      <point x="98" y="508" type="qcurve" smooth="yes"/>
      <point x="98" y="728" type="line" smooth="yes"/>
      <point x="98" y="953"/>
      <point x="362" y="1251"/>
      <point x="780" y="1251"/>
      <point x="1023" y="1028"/>
      <point x="1023" y="845" type="qcurve"/>
      <point x="1021" y="841" type="line"/>
      <point x="861" y="841" type="line"/>
      <point x="861" y="970"/>
      <point x="709" y="1120"/>
      <point x="583" y="1120" type="qcurve" smooth="yes"/>
      <point x="432" y="1120"/>
      <point x="266" y="896"/>
      <point x="266" y="729" type="qcurve" smooth="yes"/>
      <point x="266" y="508" type="line" smooth="yes"/>
      <point x="266" y="340"/>
      <point x="432" y="116"/>
      <point x="585" y="116" type="qcurve" smooth="yes"/>
      <point x="710" y="116"/>
      <point x="861" y="265"/>
      <point x="861" y="397" type="qcurve"/>
    </contour>
  </outline>
</glyph>
<glyph name="H" format="2">
  <advance width="1217"/>
  <unicode hex="0048"/>
  <outline>
    <contour>
      <point x="1074" y="0" type="line"/>
      <point x="907" y="0" type="line"/>
      <point x="907" y="542" type="line"/>
      <point x="311" y="542" type="line"/>
      <point x="311" y="0" type="line"/>
      <point x="144" y="0" type="line"/>
      <point x="144" y="1230" type="line"/>
      <point x="311" y="1230" type="line"/>
      <point x="311" y="674" type="line"/>
      <point x="907" y="674" type="line"/>
      <point x="907" y="1230" type="line"/>
      <point x="1074" y="1230" type="line"/>
    </contour>
  </outline>
</glyph>
<glyph name="K" format="2">
  <advance width="1099"/>
  <unicode hex="004B"/>
  <outline>
    <contour>
      <point x="419" y="556" type="line"/>
      <point x="310" y="556" type="line"/>
      <point x="310" y="0" type="line"/>
      <point x="144" y="0" type="line"/>
      <point x="144" y="1230" type="line"/>
      <point x="310" y="1230" type="line"/>
      <point x="310" y="686" type="line"/>
      <point x="401" y="686" type="line"/>
      <point x="857" y="1230" type="line"/>
      <point x="1045" y="1230" type="line"/>
      <point x="1046" y="1226" type="line"/>
      <point x="548" y="644" type="line"/>
      <point x="1082" y="4" type="line"/>
      <point x="1080" y="0" type="line"/>
      <point x="878" y="0" type="line"/>
    </contour>
  </outline>
</glyph>
<glyph name="N" format="2">
  <advance width="1217"/>
  <unicode hex="004E"/>
  <outline>
    <contour>
      <point x="1074" y="0" type="line"/>
      <point x="907" y="0" type="line"/>
      <point x="315" y="940" type="line"/>
      <point x="311" y="938" type="line"/>
      <point x="311" y="0" type="line"/>
      <point x="144" y="0" type="line"/>
      <point x="144" y="1230" type="line"/>
      <point x="311" y="1230" type="line"/>
      <point x="901" y="292" type="line"/>
      <point x="907" y="294" type="line"/>
      <point x="907" y="1230" type="line"/>
      <point x="1074" y="1230" type="line"/>
    </contour>
  </outline>
</glyph>
<glyph name="O" format="2">
  <advance width="1180"/>
  <unicode hex="004F"/>
  <outline>
    <contour>
      <point x="1084" y="508" type="line" smooth="yes"/>
      <point x="1084" y="284"/>
      <point x="804" y="-15"/>
      <point x="584" y="-15" type="qcurve" smooth="yes"/>
      <point x="366" y="-15"/>
      <point x="95" y="283"/>
      <point x="95" y="508" type="qcurve" smooth="yes"/>
      <point x="95" y="729" type="line" smooth="yes"/>
      <point x="95" y="952"/>
      <point x="366" y="1251"/>
      <point x="584" y="1251" type="qcurve" smooth="yes"/>
      <point x="804" y="1251"/>
      <point x="1084" y="953"/>
      <point x="1084" y="729" type="qcurve" smooth="yes"/>
    </contour>
    <contour>
      <point x="917" y="730" type="line" smooth="yes"/>
      <point x="917" y="899"/>
      <point x="735" y="1115"/>
      <point x="584" y="1115" type="qcurve" smooth="yes"/>
      <point x="435" y="1115"/>
      <point x="262" y="899"/>
      <point x="262" y="730" type="qcurve" smooth="yes"/>
      <point x="262" y="508" type="line" smooth="yes"/>
      <point x="262" y="338"/>
      <point x="435" y="121"/>
      <point x="585" y="121" type="qcurve" smooth="yes"/>
      <point x="736" y="121"/>
      <point x="917" y="337"/>
      <point x="917" y="508" type="qcurve" smooth="yes"/>
    </contour>
  </outline>
</glyph>
<glyph name="Q" format="2">
  <advance width="1205"/>
  <unicode hex="0051"/>
  <outline>
    <contour>
      <point x="1084" y="525" type="line" smooth="yes"/>
      <point x="1084" y="429"/>
      <point x="1026" y="254"/>
      <point x="973" y="187" type="qcurve"/>
      <point x="1158" y="8" type="line"/>
      <point x="1044" y="-100" type="line"/>
      <point x="856" y="80" type="line"/>
      <point x="798" y="40"/>
      <point x="658" y="2"/>
      <point x="581" y="2" type="qcurve" smooth="yes"/>
      <point x="366" y="2"/>
      <point x="95" y="300"/>
      <point x="95" y="525" type="qcurve" smooth="yes"/>
      <point x="95" y="746" type="line" smooth="yes"/>
      <point x="95" y="969"/>
      <point x="366" y="1268"/>
      <point x="584" y="1268" type="qcurve" smooth="yes"/>
      <point x="804" y="1268"/>
      <point x="1084" y="970"/>
      <point x="1084" y="746" type="qcurve" smooth="yes"/>
    </contour>
    <contour>
      <point x="917" y="747" type="line" smooth="yes"/>
      <point x="917" y="916"/>
      <point x="735" y="1132"/>
      <point x="584" y="1132" type="qcurve" smooth="yes"/>
      <point x="435" y="1132"/>
      <point x="262" y="916"/>
      <point x="262" y="747" type="qcurve" smooth="yes"/>
      <point x="262" y="525" type="line" smooth="yes"/>
      <point x="262" y="355"/>
      <point x="435" y="138"/>
      <point x="585" y="138" type="qcurve" smooth="yes"/>
      <point x="736" y="138"/>
      <point x="917" y="354"/>
      <point x="917" y="525" type="qcurve" smooth="yes"/>
    </contour>
  </outline>
</glyph>
<glyph name="U" format="2">
  <advance width="1170"/>
  <unicode hex="0055"/>
  <outline>
    <contour>
      <point x="1050" y="1233" type="line"/>
      <point x="1050" y="416" type="line" smooth="yes"/>
      <point x="1050" y="213"/>
      <point x="787" y="-15"/>
      <point x="582" y="-15" type="qcurve" smooth="yes"/>
      <point x="379" y="-15"/>
      <point x="125" y="214"/>
      <point x="125" y="416" type="qcurve" smooth="yes"/>
      <point x="125" y="1233" type="line"/>
      <point x="291" y="1233" type="line"/>
      <point x="291" y="416" type="line" smooth="yes"/>
      <point x="291" y="275"/>
      <point x="453" y="116"/>
      <point x="582" y="116" type="qcurve" smooth="yes"/>
      <point x="714" y="116"/>
      <point x="884" y="275"/>
      <point x="884" y="416" type="qcurve" smooth="yes"/>
      <point x="884" y="1233" type="line"/>
    </contour>
  </outline>
</glyph>
<glyph name="X" format="2">
  <advance width="1094"/>
  <unicode hex="0058"/>
  <outline>
    <contour>
      <point x="549" y="750" type="line"/>
      <point x="836" y="1230" type="line"/>
      <point x="1037" y="1230" type="line"/>
      <point x="647" y="620" type="line"/>
      <point x="1045" y="0" type="line"/>
      <point x="847" y="0" type="line"/>
      <point x="552" y="487" type="line"/>
      <point x="257" y="0" type="line"/>
      <point x="55" y="0" type="line"/>
      <point x="453" y="620" type="line"/>
      <point x="65" y="1230" type="line"/>
      <point x="264" y="1230" type="line"/>
    </contour>
  </outline>
</glyph>
<glyph name="Z" format="2">
  <advance width="1035"/>
  <unicode hex="005A"/>
  <outline>
    <contour>
      <point x="269" y="131" type="line"/>
      <point x="958" y="131" type="line"/>
      <point x="958" y="0" type="line"/>
      <point x="83" y="0" type="line"/>
      <point x="83" y="125" type="line"/>
      <point x="739" y="1099" type="line"/>
      <point x="91" y="1099" type="line"/>
      <point x="91" y="1230" type="line"/>
      <point x="929" y="1230" type="line"/>
      <point x="929" y="1111" type="line"/>
    </contour>
  </outline>
</glyph>
<glyph name="backslash" format="2">
  <advance width="715"/>
  <unicode hex="005C"/>
  <outline>
    <contour>
      <point x="32" y="1248" type="line"/>
      <point x="189" y="1248" type="line"/>
      <point x="703" y="-88" type="line"/>
      <point x="547" y="-88" type="line"/>
    </contour>
  </outline>
</glyph>
<glyph name="bracketright" format="2">
  <advance width="466"/>
  <unicode hex="005D"/>
  <outline>
    <contour>
      <point x="10" y="1449" type="line"/>
      <point x="336" y="1449" type="line"/>
      <point x="336" y="-220" type="line"/>
      <point x="10" y="-220" type="line"/>
      <point x="10" y="-89" type="line"/>
      <point x="170" y="-89" type="line"/>
      <point x="170" y="1318" type="line"/>
      <point x="10" y="1318" type="line"/>
    </contour>
  </outline>
</glyph>
<glyph name="underscore" format="2">
  <advance width="784"/>
  <unicode hex="005F"/>
  <outline>
    <contour>
      <point x="783" y="-108" type="line"/>
      <point x="2" y="-108" type="line"/>
      <point x="2" y="22" type="line"/>
      <point x="783" y="22" type="line"/>
    </contour>
  </outline>
</glyph>
<glyph name="grave" format="2">
  <advance width="541"/>
  <unicode hex="0060"/>
  <outline>
    <contour>
      <point x="414" y="882" type="line"/>
      <point x="281" y="882" type="line"/>
      <point x="70" y="1102" type="line"/>
      <point x="72" y="1105" type="line"/>
      <point x="267" y="1105" type="line"/>
    </contour>
  </outline>
</glyph>
<glyph name="a" format="2">
  <advance width="950"/>
  <unicode hex="0061"/>
  <outline>
    <contour>
      <point x="682" y="3" type="line"/>
      <point x="673" y="44"/>
      <point x="664" y="107"/>
      <point x="664" y="140" type="qcurve"/>
      <point x="616" y="74"/>
      <point x="468" y="-15"/>
      <point x="368" y="-15" type="qcurve" smooth="yes"/>
      <point x="239" y="-15"/>
      <point x="90" y="131"/>
      <point x="90" y="251" type="qcurve" smooth="yes"/>
      <point x="90" y="391"/>
      <point x="301" y="538"/>
      <point x="483" y="538" type="qcurve" smooth="yes"/>
      <point x="664" y="538" type="line"/>
      <point x="664" y="629" type="line" smooth="yes"/>
      <point x="664" y="709"/>
      <point x="566" y="803"/>
      <point x="476" y="803" type="qcurve" smooth="yes"/>
      <point x="395" y="803"/>
      <point x="295" y="723"/>
      <point x="295" y="665" type="qcurve"/>
      <point x="137" y="665" type="line"/>
      <point x="137" y="668" type="line"/>
      <point x="130" y="769"/>
      <point x="328" y="934"/>
      <point x="485" y="934" type="qcurve" smooth="yes"/>
      <point x="641" y="934"/>
      <point x="830" y="776"/>
      <point x="830" y="627" type="qcurve" smooth="yes"/>
      <point x="830" y="187" type="line" smooth="yes"/>
      <point x="830" y="139"/>
      <point x="841" y="47"/>
      <point x="854" y="3" type="qcurve"/>
    </contour>
    <contour>
      <point x="497" y="125"/>
      <point x="641" y="217"/>
      <point x="664" y="278" type="qcurve"/>
      <point x="664" y="427" type="line"/>
      <point x="478" y="427" type="line" smooth="yes"/>
      <point x="377" y="427"/>
      <point x="256" y="325"/>
      <point x="256" y="254" type="qcurve" smooth="yes"/>
      <point x="256" y="196"/>
      <point x="331" y="125"/>
      <point x="408" y="125" type="qcurve" smooth="yes"/>
    </contour>
  </outline>
</glyph>
<glyph name="b" format="2">
  <advance width="981"/>
  <unicode hex="0062"/>
  <outline>
    <contour>
      <point x="901" y="425" type="line" smooth="yes"/>
      <point x="901" y="229"/>
      <point x="710" y="-15"/>
      <point x="544" y="-15" type="qcurve" smooth="yes"/>
      <point x="453" y="-15"/>
      <point x="319" y="57"/>
      <point x="276" y="128" type="qcurve"/>
      <point x="247" y="3" type="line"/>
      <point x="120" y="3" type="line"/>
      <point x="120" y="1321" type="line"/>
      <point x="287" y="1321" type="line"/>
      <point x="287" y="807" type="line"/>
      <point x="330" y="868"/>
      <point x="457" y="934"/>
      <point x="541" y="934" type="qcurve" smooth="yes"/>
      <point x="710" y="934"/>
      <point x="901" y="664"/>
      <point x="901" y="443" type="qcurve" smooth="yes"/>
    </contour>
    <contour>
      <point x="734" y="443" type="line" smooth="yes"/>
      <point x="734" y="601"/>
      <point x="617" y="798"/>
      <point x="499" y="798" type="qcurve" smooth="yes"/>
      <point x="424" y="798"/>
      <point x="319" y="722"/>
      <point x="287" y="658" type="qcurve"/>
      <point x="287" y="265" type="line"/>
      <point x="319" y="196"/>
      <point x="423" y="121"/>
      <point x="502" y="121" type="qcurve" smooth="yes"/>
      <point x="618" y="121"/>
      <point x="734" y="289"/>
      <point x="734" y="425" type="qcurve" smooth="yes"/>
    </contour>
  </outline>
</glyph>
<glyph name="d" format="2">
  <advance width="982"/>
  <unicode hex="0064"/>
  <outline>
    <contour>
      <point x="83" y="443" type="line" smooth="yes"/>
      <point x="83" y="664"/>
      <point x="271" y="934"/>
      <point x="442" y="934" type="qcurve" smooth="yes"/>
      <point x="521" y="934"/>
      <point x="646" y="874"/>
      <point x="689" y="817" type="qcurve"/>
      <point x="689" y="1321" type="line"/>
      <point x="856" y="1321" type="line"/>
      <point x="856" y="3" type="line"/>
      <point x="729" y="3" type="line"/>
      <point x="703" y="119" type="line"/>
      <point x="659" y="53"/>
      <point x="526" y="-15"/>
      <point x="439" y="-15" type="qcurve" smooth="yes"/>
      <point x="273" y="-15"/>
      <point x="83" y="227"/>
      <point x="83" y="425" type="qcurve" smooth="yes"/>
    </contour>
    <contour>
      <point x="250" y="425" type="line" smooth="yes"/>
      <point x="250" y="287"/>
      <point x="363" y="121"/>
      <point x="482" y="121" type="qcurve" smooth="yes"/>
      <point x="556" y="121"/>
      <point x="657" y="188"/>
      <point x="689" y="249" type="qcurve"/>
      <point x="689" y="675" type="line"/>
      <point x="658" y="732"/>
      <point x="556" y="798"/>
      <point x="484" y="798" type="qcurve" smooth="yes"/>
      <point x="363" y="798"/>
      <point x="250" y="601"/>
      <point x="250" y="443" type="qcurve" smooth="yes"/>
    </contour>
  </outline>
</glyph>
<glyph name="e" format="2">
  <advance width="905"/>
  <unicode hex="0065"/>
  <outline>
    <contour>
      <point x="303" y="-15"/>
      <point x="83" y="237"/>
      <point x="83" y="443" type="qcurve" smooth="yes"/>
      <point x="83" y="480" type="line" smooth="yes"/>
      <point x="83" y="676"/>
      <point x="310" y="934"/>
      <point x="473" y="934" type="qcurve" smooth="yes"/>
      <point x="657" y="934"/>
      <point x="840" y="706"/>
      <point x="840" y="517" type="qcurve" smooth="yes"/>
      <point x="840" y="429" type="line"/>
      <point x="256" y="429" type="line"/>
      <point x="252" y="425" type="line"/>
      <point x="252" y="288"/>
      <point x="373" y="116"/>
      <point x="509" y="116" type="qcurve" smooth="yes"/>
      <point x="583" y="116"/>
      <point x="712" y="164"/>
      <point x="757" y="206" type="qcurve"/>
      <point x="822" y="98" type="line"/>
      <point x="773" y="51"/>
      <point x="612" y="-15"/>
      <point x="506" y="-15" type="qcurve" smooth="yes"/>
    </contour>
    <contour>
      <point x="387" y="803"/>
      <point x="273" y="668"/>
      <point x="261" y="563" type="qcurve"/>
      <point x="262" y="560" type="line"/>
      <point x="675" y="560" type="line"/>
      <point x="675" y="573" type="line" smooth="yes"/>
      <point x="675" y="673"/>
      <point x="577" y="803"/>
      <point x="482" y="803" type="qcurve" smooth="yes"/>
    </contour>
  </outline>
</glyph>
<glyph name="f" format="2">
  <advance width="568"/>
  <unicode hex="0066"/>
  <outline>
    <contour>
      <point x="190" y="0" type="line"/>
      <point x="190" y="791" type="line"/>
      <point x="48" y="791" type="line"/>
      <point x="48" y="914" type="line"/>
      <point x="190" y="914" type="line"/>
      <point x="190" y="1030" type="line" smooth="yes"/>
      <point x="190" y="1176"/>
      <point x="343" y="1336"/>
      <point x="478" y="1336" type="qcurve" smooth="yes"/>
      <point x="509" y="1336"/>
      <point x="568" y="1327"/>
      <point x="602" y="1318" type="qcurve"/>
      <point x="582" y="1192" type="line"/>
      <point x="568" y="1194"/>
      <point x="524" y="1200"/>
      <point x="503" y="1200" type="qcurve" smooth="yes"/>
      <point x="428" y="1200"/>
      <point x="358" y="1112"/>
      <point x="358" y="1030" type="qcurve" smooth="yes"/>
      <point x="358" y="914" type="line"/>
      <point x="521" y="914" type="line"/>
      <point x="521" y="791" type="line"/>
      <point x="358" y="791" type="line"/>
      <point x="358" y="0" type="line"/>
    </contour>
  </outline>
</glyph>
<glyph name="j" format="2">
  <advance width="447"/>
  <unicode hex="006A"/>
  <outline>
    <contour>
      <point x="313" y="976" type="line"/>
      <point x="313" y="-13" type="line" smooth="yes"/>
      <point x="313" y="-156"/>
      <point x="167" y="-308"/>
      <point x="39" y="-308" type="qcurve" smooth="yes"/>
      <point x="11" y="-308"/>
      <point x="-32" y="-300"/>
      <point x="-56" y="-292" type="qcurve"/>
      <point x="-45" y="-162" type="line"/>
      <point x="-32" y="-166"/>
      <point x="11" y="-171"/>
      <point x="26" y="-171" type="qcurve" smooth="yes"/>
      <point x="81" y="-171"/>
      <point x="147" y="-97"/>
      <point x="147" y="-13" type="qcurve" smooth="yes"/>
      <point x="147" y="976" type="line"/>
    </contour>
    <contour>
      <point x="307" y="1212" type="line"/>
      <point x="141" y="1212" type="line"/>
      <point x="141" y="1379" type="line"/>
      <point x="307" y="1379" type="line"/>
    </contour>
  </outline>
</glyph>
<glyph name="k" format="2">
  <advance width="885"/>
  <unicode hex="006B"/>
  <outline>
    <contour>
      <point x="373" y="421" type="line"/>
      <point x="288" y="421" type="line"/>
      <point x="288" y="0" type="line"/>
      <point x="122" y="0" type="line"/>
      <point x="122" y="1318" type="line"/>
      <point x="288" y="1318" type="line"/>
      <point x="288" y="554" type="line"/>
      <point x="372" y="554" type="line"/>
      <point x="645" y="914" type="line"/>
      <point x="846" y="914" type="line"/>
      <point x="513" y="492" type="line"/>
      <point x="874" y="0" type="line"/>
      <point x="678" y="0" type="line"/>
    </contour>
  </outline>
</glyph>
<glyph name="n" format="2">
  <advance width="982"/>
  <unicode hex="006E"/>
  <outline>
    <contour>
      <point x="269" y="914" type="line"/>
      <point x="281" y="779" type="line"/>
      <point x="328" y="852"/>
      <point x="464" y="931"/>
      <point x="558" y="931" type="qcurve" smooth="yes"/>
      <point x="700" y="931"/>
      <point x="863" y="758"/>
      <point x="863" y="577" type="qcurve" smooth="yes"/>
      <point x="863" y="0" type="line"/>
      <point x="696" y="0" type="line"/>
      <point x="696" y="574" type="line" smooth="yes"/>
      <point x="696" y="695"/>
      <point x="601" y="796"/>
      <point x="503" y="796" type="qcurve" smooth="yes"/>
      <point x="426" y="796"/>
      <point x="319" y="734"/>
      <point x="287" y="678" type="qcurve"/>
      <point x="287" y="0" type="line"/>
      <point x="120" y="0" type="line"/>
      <point x="120" y="914" type="line"/>
    </contour>
  </outline>
</glyph>
<glyph name="o" format="2">
  <advance width="982"/>
  <unicode hex="006F"/>
  <outline>
    <contour>
      <point x="83" y="469" type="line" smooth="yes"/>
      <point x="83" y="671"/>
      <point x="303" y="934"/>
      <point x="492" y="934" type="qcurve" smooth="yes"/>
      <point x="682" y="934"/>
      <point x="900" y="673"/>
      <point x="900" y="469" type="qcurve" smooth="yes"/>
      <point x="900" y="449" type="line" smooth="yes"/>
      <point x="900" y="245"/>
      <point x="683" y="-15"/>
      <point x="493" y="-15" type="qcurve" smooth="yes"/>
      <point x="304" y="-15"/>
      <point x="83" y="245"/>
      <point x="83" y="449" type="qcurve" smooth="yes"/>
    </contour>
    <contour>
      <point x="247" y="449" type="line" smooth="yes"/>
      <point x="247" y="305"/>
      <point x="372" y="116"/>
      <point x="493" y="116" type="qcurve" smooth="yes"/>
      <point x="612" y="116"/>
      <point x="736" y="305"/>
      <point x="736" y="449" type="qcurve" smooth="yes"/>
      <point x="736" y="469" type="line" smooth="yes"/>
      <point x="736" y="613"/>
      <point x="611" y="803"/>
      <point x="490" y="803" type="qcurve" smooth="yes"/>
      <point x="371" y="803"/>
      <point x="247" y="613"/>
      <point x="247" y="469" type="qcurve" smooth="yes"/>
    </contour>
  </outline>
</glyph>
<glyph name="p" format="2">
  <advance width="982"/>
  <unicode hex="0070"/>
  <outline>
    <contour>
      <point x="900" y="481" type="line" smooth="yes"/>
      <point x="900" y="284"/>
      <point x="711" y="41"/>
      <point x="543" y="41" type="qcurve" smooth="yes"/>
      <point x="460" y="41"/>
      <point x="331" y="98"/>
      <point x="287" y="153" type="qcurve"/>
      <point x="287" y="-293" type="line"/>
      <point x="120" y="-293" type="line"/>
      <point x="120" y="973" type="line"/>
      <point x="247" y="973" type="line"/>
      <point x="275" y="854" type="line"/>
      <point x="319" y="920"/>
      <point x="455" y="990"/>
      <point x="542" y="990" type="qcurve" smooth="yes"/>
      <point x="713" y="990"/>
      <point x="900" y="720"/>
      <point x="900" y="499" type="qcurve" smooth="yes"/>
    </contour>
    <contour>
      <point x="733" y="499" type="line" smooth="yes"/>
      <point x="733" y="655"/>
      <point x="612" y="854"/>
      <point x="491" y="854" type="qcurve" smooth="yes"/>
      <point x="421" y="854"/>
      <point x="319" y="789"/>
      <point x="287" y="733" type="qcurve"/>
      <point x="287" y="291" type="line"/>
      <point x="319" y="234"/>
      <point x="420" y="171"/>
      <point x="493" y="171" type="qcurve" smooth="yes"/>
      <point x="612" y="171"/>
      <point x="733" y="344"/>
      <point x="733" y="481" type="qcurve" smooth="yes"/>
    </contour>
  </outline>
</glyph>
<glyph name="t" format="2">
  <advance width="582"/>
  <unicode hex="0074"/>
  <outline>
    <contour>
      <point x="353" y="1137" type="line"/>
      <point x="353" y="917" type="line"/>
      <point x="526" y="917" type="line"/>
      <point x="526" y="794" type="line"/>
      <point x="353" y="794" type="line"/>
      <point x="353" y="238" type="line" smooth="yes"/>
      <point x="353" y="173"/>
      <point x="406" y="122"/>
      <point x="448" y="122" type="qcurve" smooth="yes"/>
      <point x="463" y="122"/>
      <point x="499" y="130"/>
      <point x="511" y="134" type="qcurve"/>
      <point x="535" y="20" type="line"/>
      <point x="516" y="5"/>
      <point x="443" y="-15"/>
      <point x="405" y="-15" type="qcurve" smooth="yes"/>
      <point x="306" y="-15"/>
      <point x="186" y="107"/>
      <point x="186" y="238" type="qcurve" smooth="yes"/>
      <point x="186" y="794" type="line"/>
      <point x="41" y="794" type="line"/>
      <point x="41" y="917" type="line"/>
      <point x="186" y="917" type="line"/>
      <point x="186" y="1137" type="line"/>
    </contour>
  </outline>
</glyph>
<glyph name="u" format="2">
  <advance width="982"/>
  <unicode hex="0075"/>
  <outline>
    <contour>
      <point x="701" y="139" type="line"/>
      <point x="659" y="64"/>
      <point x="522" y="-15"/>
      <point x="430" y="-15" type="qcurve" smooth="yes"/>
      <point x="286" y="-15"/>
      <point x="118" y="176"/>
      <point x="118" y="379" type="qcurve" smooth="yes"/>
      <point x="118" y="917" type="line"/>
      <point x="285" y="917" type="line"/>
      <point x="285" y="376" type="line" smooth="yes"/>
      <point x="285" y="231"/>
      <point x="370" y="121"/>
      <point x="469" y="121" type="qcurve" smooth="yes"/>
      <point x="550" y="121"/>
      <point x="665" y="193"/>
      <point x="695" y="259" type="qcurve"/>
      <point x="695" y="917" type="line"/>
      <point x="862" y="917" type="line"/>
      <point x="862" y="3" type="line"/>
      <point x="712" y="3" type="line"/>
    </contour>
  </outline>
</glyph>
<glyph name="v" format="2">
  <advance width="869"/>
  <unicode hex="0076"/>
  <outline>
    <contour>
      <point x="425" y="269" type="line"/>
      <point x="441" y="204" type="line"/>
      <point x="446" y="204" type="line"/>
      <point x="462" y="269" type="line"/>
      <point x="672" y="914" type="line"/>
      <point x="843" y="914" type="line"/>
      <point x="506" y="0" type="line"/>
      <point x="380" y="0" type="line"/>
      <point x="40" y="914" type="line"/>
      <point x="209" y="914" type="line"/>
    </contour>
  </outline>
</glyph>
<glyph name="w" format="2">
  <advance width="1309"/>
  <unicode hex="0077"/>
  <outline>
    <contour>
      <point x="355" y="332" type="line"/>
      <point x="376" y="215" type="line"/>
      <point x="381" y="215" type="line"/>
      <point x="403" y="332" type="line"/>
      <point x="584" y="914" type="line"/>
      <point x="718" y="914" type="line"/>
      <point x="901" y="332" type="line"/>
      <point x="926" y="202" type="line"/>
      <point x="931" y="202" type="line"/>
      <point x="957" y="332" type="line"/>
      <point x="1092" y="914" type="line"/>
      <point x="1267" y="914" type="line"/>
      <point x="1002" y="0" type="line"/>
      <point x="867" y="0" type="line"/>
      <point x="686" y="557" type="line"/>
      <point x="652" y="703" type="line"/>
      <point x="646" y="703" type="line"/>
      <point x="614" y="557" type="line"/>
      <point x="436" y="0" type="line"/>
      <point x="303" y="0" type="line"/>
      <point x="38" y="914" type="line"/>
      <point x="211" y="914" type="line"/>
    </contour>
  </outline>
</glyph>
<glyph name="x" format="2">
  <advance width="869"/>
  <unicode hex="0078"/>
  <outline>
    <contour>
      <point x="431" y="577" type="line"/>
      <point x="626" y="914" type="line"/>
      <point x="820" y="914" type="line"/>
      <point x="522" y="463" type="line"/>
      <point x="828" y="0" type="line"/>
      <point x="636" y="0" type="line"/>
      <point x="435" y="346" type="line"/>
      <point x="232" y="0" type="line"/>
      <point x="40" y="0" type="line"/>
      <point x="345" y="463" type="line"/>
      <point x="48" y="914" type="line"/>
      <point x="239" y="914" type="line"/>
    </contour>
  </outline>
</glyph>
<glyph name="y" format="2">
  <advance width="869"/>
  <unicode hex="0079"/>
  <outline>
    <contour>
      <point x="401" y="400" type="line"/>
      <point x="430" y="285" type="line"/>
      <point x="435" y="285" type="line"/>
      <point x="660" y="976" type="line"/>
      <point x="845" y="976" type="line"/>
      <point x="461" y="-79" type="line" smooth="yes"/>
      <point x="427" y="-172"/>
      <point x="297" y="-308"/>
      <point x="194" y="-308" type="qcurve" smooth="yes"/>
      <point x="167" y="-308"/>
      <point x="104" y="-298"/>
      <point x="87" y="-295" type="qcurve"/>
      <point x="104" y="-163" type="line"/>
      <point x="99" y="-162"/>
      <point x="170" y="-168"/>
      <point x="181" y="-168" type="qcurve" smooth="yes"/>
      <point x="232" y="-168"/>
      <point x="298" y="-73"/>
      <point x="322" y="-15" type="qcurve" smooth="yes"/>
      <point x="362" y="81" type="line"/>
      <point x="22" y="976" type="line"/>
      <point x="209" y="976" type="line"/>
    </contour>
  </outline>
</glyph>
<glyph name="registered" format="2">
  <advance width="979"/>
  <unicode hex="00AE"/>
  <outline>
    <contour>
      <point x="437" y="382" type="line"/>
      <point x="465" y="382" type="line" smooth="yes"/>
      <point x="480" y="382"/>
      <point x="491" y="372"/>
      <point x="504" y="350" type="qcurve" smooth="yes"/>
      <point x="514" y="333"/>
      <point x="543" y="279"/>
      <point x="565" y="234"/>
      <point x="582" y="199"/>
      <point x="586" y="191" type="qcurve"/>
      <point x="591" y="191"/>
      <point x="595" y="191" type="qcurve" smooth="yes"/>
      <point x="599" y="191"/>
      <point x="604" y="191" type="qcurve" smooth="yes"/>
      <point x="623" y="191" type="line" smooth="yes"/>
      <point x="649" y="191"/>
      <point x="705" y="191"/>
      <point x="723" y="191" type="qcurve"/>
      <point x="724" y="215" type="line"/>
      <point x="707" y="216"/>
      <point x="684" y="218"/>
      <point x="668" y="227"/>
      <point x="653" y="239"/>
      <point x="647" y="251" type="qcurve"/>
      <point x="640" y="260"/>
      <point x="623" y="288"/>
      <point x="601" y="329"/>
      <point x="575" y="376"/>
      <point x="562" y="403" type="qcurve"/>
      <point x="601" y="416"/>
      <point x="651" y="476"/>
      <point x="651" y="518" type="qcurve" smooth="yes"/>
      <point x="651" y="550"/>
      <point x="618" y="591"/>
      <point x="570" y="612"/>
      <point x="512" y="618"/>
      <point x="460" y="618"/>
      <point x="414" y="615"/>
      <point x="369" y="615" type="qcurve" smooth="yes"/>
      <point x="366" y="615"/>
      <point x="316" y="615"/>
      <point x="301" y="616" type="qcurve"/>
      <point x="300" y="592" type="line"/>
      <point x="338" y="592"/>
      <point x="359" y="573"/>
      <point x="359" y="552" type="qcurve" smooth="yes"/>
      <point x="359" y="268" type="line" smooth="yes"/>
      <point x="359" y="253"/>
      <point x="354" y="233"/>
      <point x="341" y="221"/>
      <point x="319" y="216"/>
      <point x="301" y="215" type="qcurve"/>
      <point x="304" y="191" type="line"/>
      <point x="316" y="191"/>
      <point x="366" y="191"/>
      <point x="389" y="191" type="qcurve" smooth="yes"/>
      <point x="425" y="191"/>
      <point x="473" y="191"/>
      <point x="494" y="191" type="qcurve"/>
      <point x="495" y="215" type="line"/>
      <point x="474" y="216"/>
      <point x="451" y="220"/>
      <point x="440" y="230"/>
      <point x="437" y="244"/>
      <point x="437" y="254" type="qcurve" smooth="yes"/>
    </contour>
    <contour>
      <point x="437" y="545" type="line" smooth="yes"/>
      <point x="437" y="565"/>
      <point x="453" y="584"/>
      <point x="477" y="584" type="qcurve" smooth="yes"/>
      <point x="513" y="584"/>
      <point x="563" y="548"/>
      <point x="563" y="508" type="qcurve" smooth="yes"/>
      <point x="563" y="463"/>
      <point x="508" y="413"/>
      <point x="464" y="413" type="qcurve" smooth="yes"/>
      <point x="437" y="413" type="line"/>
    </contour>
    <contour>
      <point x="137" y="477"/>
      <point x="194" y="606"/>
      <point x="288" y="702"/>
      <point x="417" y="758"/>
      <point x="491" y="758" type="qcurve" smooth="yes"/>
      <point x="563" y="758"/>
      <point x="691" y="702"/>
      <point x="786" y="606"/>
      <point x="842" y="477"/>
      <point x="842" y="403" type="qcurve" smooth="yes"/>
      <point x="842" y="328"/>
      <point x="786" y="198"/>
      <point x="691" y="101"/>
      <point x="563" y="46"/>
      <point x="491" y="46" type="qcurve" smooth="yes"/>
      <point x="417" y="46"/>
      <point x="288" y="101"/>
      <point x="194" y="198"/>
      <point x="137" y="328"/>
      <point x="137" y="403" type="qcurve" smooth="yes"/>
    </contour>
    <contour>
      <point x="84" y="319"/>
      <point x="147" y="174"/>
      <point x="258" y="66"/>
      <point x="407" y="4"/>
      <point x="491" y="4" type="qcurve" smooth="yes"/>
      <point x="574" y="4"/>
      <point x="721" y="66"/>
      <point x="831" y="174"/>
      <point x="895" y="319"/>
      <point x="895" y="403" type="qcurve" smooth="yes"/>
      <point x="895" y="486"/>
      <point x="831" y="631"/>
      <point x="721" y="737"/>
      <point x="574" y="800"/>
      <point x="491" y="800" type="qcurve" smooth="yes"/>
      <point x="407" y="800"/>
      <point x="258" y="737"/>
      <point x="147" y="631"/>
      <point x="84" y="486"/>
      <point x="84" y="403" type="qcurve" smooth="yes"/>
    </contour>
  </outline>
</glyph>
<glyph name="uni0637" format="2">
  <advance width="1235"/>
  <unicode hex="0637"/>
  <anchor x="542" y="1485" name="t.uni064B"/>
  <anchor x="443" y="-233" name="b.uni064D_1"/>
  <outline>
    <contour>
      <point x="502" y="1470" type="line"/>
      <point x="539" y="1277"/>
      <point x="539" y="1226" type="qcurve"/>
      <point x="518" y="1201" type="line"/>
      <point x="566" y="541"/>
      <point x="566" y="506" type="qcurve" smooth="yes"/>
      <point x="566" y="415"/>
      <point x="518" y="305" type="qcurve"/>
      <point x="522" y="305" type="line"/>
      <point x="754" y="611"/>
      <point x="928" y="611" type="qcurve" smooth="yes"/>
      <point x="944" y="611" type="line" smooth="yes"/>
      <point x="1069" y="611"/>
      <point x="1145" y="486" type="qcurve"/>
      <point x="1165" y="445"/>
      <point x="1165" y="410" type="qcurve" smooth="yes"/>
      <point x="1165" y="378" type="line" smooth="yes"/>
      <point x="1165" y="262"/>
      <point x="1049" y="165" type="qcurve"/>
      <point x="961" y="103"/>
      <point x="827" y="65" type="qcurve" smooth="yes"/>
      <point x="596" y="0"/>
      <point x="405" y="0" type="qcurve" smooth="yes"/>
      <point x="333" y="0" type="line" smooth="yes"/>
      <point x="158" y="0"/>
      <point x="65" y="60" type="qcurve"/>
      <point x="0" y="80"/>
      <point x="0" y="89" type="qcurve" smooth="yes"/>
      <point x="0" y="92" type="line"/>
      <point x="405" y="118"/>
      <point x="405" y="168" type="qcurve"/>
      <point x="478" y="242"/>
      <point x="478" y="362" type="qcurve"/>
      <point x="405" y="1310"/>
      <point x="405" y="1354" type="qcurve"/>
      <point x="490" y="1460"/>
      <point x="490" y="1470" type="qcurve"/>
    </contour>
    <contour>
      <point x="750" y="177"/>
      <point x="935" y="233" type="qcurve"/>
      <point x="967" y="249"/>
      <point x="1053" y="273" type="qcurve"/>
      <point x="1013" y="454"/>
      <point x="872" y="454" type="qcurve" smooth="yes"/>
      <point x="863" y="454" type="line" smooth="yes"/>
      <point x="757" y="454"/>
      <point x="675" y="374" type="qcurve" smooth="yes"/>
      <point x="571" y="272"/>
      <point x="470" y="137" type="qcurve"/>
    </contour>
  </outline>
</glyph>
<glyph name="uni064C" format="2">
  <unicode hex="064C"/>
  <anchor x="171" y="0" name="_t.uni064B"/>
  <outline>
    <contour>
      <point x="119" y="438" type="line"/>
      <point x="130" y="420"/>
      <point x="143" y="364"/>
      <point x="153" y="302"/>
      <point x="157" y="243"/>
      <point x="157" y="224" type="qcurve" smooth="yes"/>
      <point x="157" y="207"/>
      <point x="152" y="167"/>
      <point x="145" y="153" type="qcurve"/>
      <point x="152" y="155"/>
      <point x="174" y="182"/>
      <point x="203" y="213"/>
      <point x="244" y="239"/>
      <point x="269" y="239" type="qcurve" smooth="yes"/>
      <point x="288" y="239"/>
      <point x="313" y="223"/>
      <point x="329" y="198"/>
      <point x="338" y="167"/>
      <point x="338" y="153" type="qcurve" smooth="yes"/>
      <point x="338" y="126"/>
      <point x="297" y="89"/>
      <point x="240" y="65"/>
      <point x="178" y="55"/>
      <point x="158" y="55" type="qcurve" smooth="yes"/>
      <point x="100" y="55" type="line" smooth="yes"/>
      <point x="89" y="55"/>
      <point x="65" y="61"/>
      <point x="54" y="61" type="qcurve"/>
      <point x="13" y="76" type="line"/>
      <point x="0" y="82" type="line"/>
      <point x="4" y="83" type="line"/>
      <point x="47" y="87" type="line" smooth="yes"/>
      <point x="68" y="89"/>
      <point x="96" y="97"/>
      <point x="113" y="114"/>
      <point x="120" y="143"/>
      <point x="120" y="169" type="qcurve" smooth="yes"/>
      <point x="120" y="216" type="line" smooth="yes"/>
      <point x="120" y="239"/>
      <point x="108" y="286"/>
      <point x="96" y="332"/>
      <point x="84" y="377"/>
      <point x="84" y="399" type="qcurve"/>
    </contour>
    <contour>
      <point x="234" y="188"/>
      <point x="201" y="165"/>
      <point x="165" y="134"/>
      <point x="138" y="103"/>
      <point x="138" y="95" type="qcurve"/>
      <point x="140" y="95" type="line" smooth="yes"/>
      <point x="152" y="95"/>
      <point x="196" y="105"/>
      <point x="243" y="120"/>
      <point x="288" y="135"/>
      <point x="301" y="140" type="qcurve"/>
      <point x="301" y="164"/>
      <point x="264" y="188"/>
      <point x="248" y="188" type="qcurve" smooth="yes"/>
    </contour>
  </outline>
</glyph>
<glyph name="uni0650" format="2">
  <unicode hex="0650"/>
  <anchor x="114" y="0" name="_b.uni064D_1"/>
  <outline>
    <contour>
      <point x="537" y="-26" type="line"/>
      <point x="536" y="-28"/>
      <point x="534" y="-30" type="qcurve"/>
      <point x="533" y="-33" type="line"/>
      <point x="531" y="-36"/>
      <point x="529" y="-41" type="qcurve"/>
      <point x="526" y="-46"/>
      <point x="523" y="-50" type="qcurve"/>
      <point x="521" y="-54"/>
      <point x="519" y="-59" type="qcurve"/>
      <point x="518" y="-63"/>
      <point x="514" y="-69" type="qcurve"/>
      <point x="513" y="-73"/>
      <point x="509" y="-77" type="qcurve"/>
      <point x="507" y="-81"/>
      <point x="504" y="-87" type="qcurve"/>
      <point x="502" y="-90"/>
      <point x="500" y="-95" type="qcurve"/>
      <point x="490" y="-112" type="line"/>
      <point x="488" y="-116"/>
      <point x="485" y="-122" type="qcurve"/>
      <point x="483" y="-125"/>
      <point x="482" y="-130" type="qcurve"/>
      <point x="480" y="-135"/>
      <point x="475" y="-138" type="qcurve"/>
      <point x="465" y="-142" type="line"/>
      <point x="457" y="-147" type="line"/>
      <point x="453" y="-149"/>
      <point x="447" y="-150" type="qcurve"/>
      <point x="443" y="-153"/>
      <point x="437" y="-155" type="qcurve"/>
      <point x="428" y="-160" type="line"/>
      <point x="424" y="-162"/>
      <point x="416" y="-166"/>
      <point x="410" y="-168" type="qcurve"/>
      <point x="391" y="-177" type="line"/>
      <point x="387" y="-178"/>
      <point x="383" y="-181" type="qcurve"/>
      <point x="379" y="-183"/>
      <point x="373" y="-186" type="qcurve"/>
      <point x="369" y="-187"/>
      <point x="364" y="-190" type="qcurve"/>
      <point x="362" y="-190"/>
      <point x="359" y="-192" type="qcurve"/>
      <point x="318" y="-211" type="line"/>
      <point x="314" y="-213"/>
      <point x="308" y="-215" type="qcurve"/>
      <point x="305" y="-217"/>
      <point x="299" y="-219" type="qcurve"/>
      <point x="295" y="-222"/>
      <point x="289" y="-224" type="qcurve"/>
      <point x="281" y="-228" type="line" smooth="yes"/>
      <point x="277" y="-230"/>
      <point x="271" y="-232" type="qcurve"/>
      <point x="267" y="-234"/>
      <point x="262" y="-237" type="qcurve"/>
      <point x="257" y="-239"/>
      <point x="252" y="-242" type="qcurve"/>
      <point x="248" y="-244"/>
      <point x="243" y="-246" type="qcurve"/>
      <point x="239" y="-248"/>
      <point x="234" y="-250" type="qcurve" smooth="yes"/>
      <point x="224" y="-254" type="line"/>
      <point x="221" y="-256"/>
      <point x="215" y="-259" type="qcurve" smooth="yes"/>
      <point x="211" y="-261"/>
      <point x="206" y="-263" type="qcurve"/>
      <point x="203" y="-266"/>
      <point x="198" y="-267" type="qcurve"/>
      <point x="192" y="-269"/>
      <point x="187" y="-272" type="qcurve"/>
      <point x="183" y="-273"/>
      <point x="178" y="-276" type="qcurve"/>
      <point x="174" y="-277"/>
      <point x="169" y="-281" type="qcurve"/>
      <point x="159" y="-285" type="line"/>
      <point x="156" y="-286"/>
      <point x="150" y="-289" type="qcurve"/>
      <point x="148" y="-289"/>
      <point x="146" y="-291" type="qcurve"/>
      <point x="141" y="-293" type="line"/>
      <point x="137" y="-295"/>
      <point x="131" y="-297" type="qcurve"/>
      <point x="127" y="-299"/>
      <point x="123" y="-302" type="qcurve"/>
      <point x="119" y="-303"/>
      <point x="112" y="-305" type="qcurve"/>
      <point x="108" y="-307"/>
      <point x="105" y="-310" type="qcurve"/>
      <point x="100" y="-312"/>
      <point x="94" y="-314" type="qcurve"/>
      <point x="91" y="-316"/>
      <point x="86" y="-319" type="qcurve"/>
      <point x="76" y="-323" type="line"/>
      <point x="72" y="-326"/>
      <point x="67" y="-327" type="qcurve"/>
      <point x="63" y="-329"/>
      <point x="58" y="-332" type="qcurve"/>
      <point x="54" y="-333"/>
      <point x="48" y="-336" type="qcurve" smooth="yes"/>
      <point x="44" y="-338"/>
      <point x="39" y="-341" type="qcurve"/>
      <point x="35" y="-343"/>
      <point x="30" y="-345" type="qcurve"/>
      <point x="26" y="-347"/>
      <point x="21" y="-349" type="qcurve" smooth="yes"/>
      <point x="0" y="-358" type="line"/>
      <point x="1" y="-354"/>
      <point x="3" y="-348" type="qcurve"/>
      <point x="5" y="-344"/>
      <point x="7" y="-339" type="qcurve"/>
      <point x="14" y="-320" type="line"/>
      <point x="16" y="-316"/>
      <point x="18" y="-309" type="qcurve"/>
      <point x="21" y="-305"/>
      <point x="23" y="-300" type="qcurve"/>
      <point x="24" y="-296"/>
      <point x="27" y="-290" type="qcurve"/>
      <point x="30" y="-281" type="line"/>
      <point x="35" y="-271" type="line"/>
      <point x="35" y="-267"/>
      <point x="39" y="-262" type="qcurve"/>
      <point x="41" y="-257"/>
      <point x="47" y="-256" type="qcurve"/>
      <point x="51" y="-254"/>
      <point x="55" y="-251" type="qcurve"/>
      <point x="65" y="-247" type="line"/>
      <point x="68" y="-244"/>
      <point x="74" y="-243" type="qcurve"/>
      <point x="78" y="-241"/>
      <point x="83" y="-238" type="qcurve"/>
      <point x="87" y="-236"/>
      <point x="92" y="-234" type="qcurve"/>
      <point x="96" y="-231"/>
      <point x="102" y="-229" type="qcurve"/>
      <point x="106" y="-227"/>
      <point x="110" y="-225" type="qcurve"/>
      <point x="114" y="-224"/>
      <point x="121" y="-221" type="qcurve"/>
      <point x="124" y="-219"/>
      <point x="129" y="-216" type="qcurve"/>
      <point x="133" y="-215"/>
      <point x="138" y="-212" type="qcurve"/>
      <point x="148" y="-207" type="line"/>
      <point x="151" y="-206"/>
      <point x="157" y="-204" type="qcurve"/>
      <point x="160" y="-202"/>
      <point x="166" y="-199" type="qcurve"/>
      <point x="175" y="-194" type="line"/>
      <point x="178" y="-193"/>
      <point x="185" y="-190" type="qcurve"/>
      <point x="188" y="-188"/>
      <point x="194" y="-187" type="qcurve"/>
      <point x="203" y="-182" type="line"/>
      <point x="207" y="-179"/>
      <point x="212" y="-178" type="qcurve"/>
      <point x="215" y="-175"/>
      <point x="222" y="-173" type="qcurve"/>
      <point x="226" y="-171"/>
      <point x="230" y="-168" type="qcurve"/>
      <point x="232" y="-167"/>
      <point x="235" y="-166" type="qcurve"/>
      <point x="240" y="-165" type="line"/>
      <point x="244" y="-162"/>
      <point x="249" y="-160" type="qcurve"/>
      <point x="253" y="-158"/>
      <point x="258" y="-155" type="qcurve"/>
      <point x="260" y="-154"/>
      <point x="263" y="-153" type="qcurve"/>
      <point x="277" y="-147" type="line"/>
      <point x="281" y="-146"/>
      <point x="286" y="-142" type="qcurve"/>
      <point x="289" y="-141"/>
      <point x="290" y="-140" type="qcurve"/>
      <point x="296" y="-138" type="line"/>
      <point x="313" y="-129" type="line"/>
      <point x="318" y="-126"/>
      <point x="324" y="-125" type="qcurve"/>
      <point x="342" y="-116" type="line"/>
      <point x="345" y="-114"/>
      <point x="350" y="-112" type="qcurve"/>
      <point x="354" y="-110"/>
      <point x="360" y="-108" type="qcurve"/>
      <point x="369" y="-104" type="line"/>
      <point x="372" y="-101"/>
      <point x="379" y="-99" type="qcurve"/>
      <point x="383" y="-97"/>
      <point x="387" y="-94" type="qcurve"/>
      <point x="391" y="-92"/>
      <point x="397" y="-90" type="qcurve"/>
      <point x="400" y="-87"/>
      <point x="406" y="-86" type="qcurve"/>
      <point x="410" y="-84"/>
      <point x="415" y="-81" type="qcurve"/>
      <point x="419" y="-79"/>
      <point x="424" y="-77" type="qcurve"/>
      <point x="433" y="-72" type="line"/>
      <point x="437" y="-71"/>
      <point x="443" y="-69" type="qcurve"/>
      <point x="452" y="-64" type="line"/>
      <point x="456" y="-63"/>
      <point x="461" y="-59" type="qcurve"/>
      <point x="480" y="-50" type="line"/>
      <point x="484" y="-49"/>
      <point x="489" y="-47" type="qcurve"/>
      <point x="493" y="-45"/>
      <point x="498" y="-43" type="qcurve"/>
      <point x="502" y="-40"/>
      <point x="507" y="-38" type="qcurve"/>
      <point x="511" y="-36"/>
      <point x="516" y="-33" type="qcurve"/>
      <point x="520" y="-32"/>
      <point x="526" y="-30" type="qcurve"/>
      <point x="529" y="-28"/>
      <point x="535" y="-25" type="qcurve"/>
    </contour>
  </outline>
</glyph>
<glyph name="uni067E" format="2">
  <advance width="1274"/>
  <unicode hex="067E"/>
  <anchor x="471" y="971" name="t.uni064B"/>
  <anchor x="471" y="-828" name="b.uni064D_1"/>
  <outline>
    <contour>
      <point x="716" y="-255"/>
      <point x="763" y="-307"/>
      <point x="819" y="-354" type="qcurve"/>
      <point x="711" y="-467" type="line"/>
      <point x="651" y="-430"/>
      <point x="600" y="-356" type="qcurve"/>
      <point x="692" y="-264"/>
      <point x="702" y="-252" type="qcurve"/>
    </contour>
    <contour>
      <point x="495" y="-262"/>
      <point x="542" y="-315"/>
      <point x="598" y="-361" type="qcurve"/>
      <point x="600" y="-364" type="line"/>
      <point x="489" y="-474" type="line"/>
      <point x="429" y="-437"/>
      <point x="378" y="-363" type="qcurve"/>
      <point x="471" y="-271"/>
      <point x="481" y="-259" type="qcurve"/>
    </contour>
    <contour>
      <point x="608" y="-457"/>
      <point x="655" y="-510"/>
      <point x="711" y="-556" type="qcurve"/>
      <point x="713" y="-559" type="line"/>
      <point x="708" y="-562"/>
      <point x="602" y="-669" type="qcurve"/>
      <point x="542" y="-632"/>
      <point x="491" y="-558" type="qcurve"/>
      <point x="584" y="-466"/>
      <point x="594" y="-454" type="qcurve"/>
    </contour>
    <contour>
      <point x="1161" y="685"/>
      <point x="1180" y="653"/>
      <point x="1198" y="603"/>
      <point x="1214" y="542"/>
      <point x="1227" y="484"/>
      <point x="1234" y="437"/>
      <point x="1234" y="416" type="qcurve" smooth="yes"/>
      <point x="1234" y="375"/>
      <point x="1211" y="291"/>
      <point x="1191" y="247" type="qcurve"/>
      <point x="1162" y="199" type="line"/>
      <point x="1161" y="199"/>
      <point x="1152" y="187"/>
      <point x="1143" y="174"/>
      <point x="1138" y="168" type="qcurve"/>
      <point x="1134" y="162" type="line"/>
      <point x="1116" y="144"/>
      <point x="1070" y="114"/>
      <point x="1019" y="88"/>
      <point x="968" y="64"/>
      <point x="945" y="52" type="qcurve"/>
      <point x="941" y="53"/>
      <point x="934" y="49"/>
      <point x="931" y="47" type="qcurve"/>
      <point x="902" y="35"/>
      <point x="840" y="14"/>
      <point x="806" y="6" type="qcurve" smooth="yes"/>
      <point x="747" y="-9"/>
      <point x="620" y="-25"/>
      <point x="562" y="-25" type="qcurve" smooth="yes"/>
      <point x="534" y="-25"/>
      <point x="492" y="-21"/>
      <point x="473" y="-23" type="qcurve"/>
      <point x="472" y="-22"/>
      <point x="454" y="-20"/>
      <point x="431" y="-17"/>
      <point x="409" y="-15"/>
      <point x="406" y="-15" type="qcurve"/>
      <point x="378" y="-11"/>
      <point x="310" y="3"/>
      <point x="243" y="26"/>
      <point x="181" y="56"/>
      <point x="159" y="76" type="qcurve"/>
      <point x="158" y="80"/>
      <point x="123" y="113"/>
      <point x="82" y="168"/>
      <point x="50" y="246"/>
      <point x="50" y="293" type="qcurve" smooth="yes"/>
      <point x="50" y="371" type="line"/>
      <point x="52" y="372"/>
      <point x="53" y="382"/>
      <point x="54" y="392"/>
      <point x="55" y="403"/>
      <point x="55" y="404" type="qcurve"/>
      <point x="59" y="433"/>
      <point x="79" y="482"/>
      <point x="103" y="530"/>
      <point x="127" y="577"/>
      <point x="134" y="601" type="qcurve"/>
      <point x="150" y="616" type="line"/>
      <point x="152" y="614"/>
      <point x="157" y="606"/>
      <point x="157" y="604" type="qcurve" smooth="yes"/>
      <point x="157" y="585"/>
      <point x="147" y="547"/>
      <point x="135" y="506"/>
      <point x="125" y="464"/>
      <point x="125" y="438" type="qcurve" smooth="yes"/>
      <point x="125" y="361"/>
      <point x="210" y="238"/>
      <point x="279" y="202" type="qcurve"/>
      <point x="280" y="200" type="line"/>
      <point x="301" y="190" type="line"/>
      <point x="304" y="185"/>
      <point x="332" y="174"/>
      <point x="372" y="163"/>
      <point x="419" y="151"/>
      <point x="462" y="143"/>
      <point x="495" y="138"/>
      <point x="502" y="138" type="qcurve"/>
      <point x="503" y="136"/>
      <point x="533" y="135"/>
      <point x="567" y="133"/>
      <point x="599" y="133"/>
      <point x="601" y="133" type="qcurve" smooth="yes"/>
      <point x="626" y="133"/>
      <point x="677" y="138"/>
      <point x="701" y="139" type="qcurve"/>
      <point x="771" y="148" type="line" smooth="yes"/>
      <point x="815" y="154"/>
      <point x="902" y="177"/>
      <point x="944" y="190" type="qcurve" smooth="yes"/>
      <point x="954" y="193"/>
      <point x="974" y="206"/>
      <point x="994" y="215"/>
      <point x="1013" y="221"/>
      <point x="1023" y="218" type="qcurve"/>
      <point x="1037" y="225" type="line"/>
      <point x="1039" y="224"/>
      <point x="1040" y="226"/>
      <point x="1042" y="226" type="qcurve"/>
      <point x="1047" y="229"/>
      <point x="1078" y="242"/>
      <point x="1113" y="257"/>
      <point x="1142" y="269"/>
      <point x="1144" y="272" type="qcurve"/>
      <point x="1150" y="274"/>
      <point x="1162" y="280"/>
      <point x="1167" y="284" type="qcurve"/>
      <point x="1167" y="353"/>
      <point x="1120" y="478"/>
      <point x="1083" y="535" type="qcurve"/>
      <point x="1096" y="572"/>
      <point x="1130" y="641"/>
      <point x="1149" y="677" type="qcurve"/>
      <point x="1151" y="679"/>
      <point x="1151" y="685"/>
      <point x="1153" y="685" type="qcurve" smooth="yes"/>
    </contour>
  </outline>
</glyph>
<glyph name="uni06A9" format="2">
  <advance width="1369"/>
  <unicode hex="06A9"/>
  <anchor x="452" y="1190" name="t.uni064B"/>
  <anchor x="600" y="-357" name="b.uni064D_1"/>
  <outline>
    <contour>
      <point x="1228" y="1283"/>
      <point x="1256" y="900"/>
      <point x="1272" y="707" type="qcurve"/>
      <point x="1273" y="705" type="line"/>
      <point x="1281" y="626" type="line"/>
      <point x="1287" y="555" type="line"/>
      <point x="1288" y="553" type="line"/>
      <point x="1290" y="528"/>
      <point x="1293" y="481"/>
      <point x="1293" y="456" type="qcurve" smooth="yes"/>
      <point x="1293" y="432"/>
      <point x="1290" y="387"/>
      <point x="1288" y="364" type="qcurve"/>
      <point x="1284" y="342" type="line"/>
      <point x="1276" y="312"/>
      <point x="1260" y="253"/>
      <point x="1247" y="226" type="qcurve"/>
      <point x="1246" y="226"/>
      <point x="1241" y="216"/>
      <point x="1235" y="206"/>
      <point x="1231" y="196"/>
      <point x="1231" y="195" type="qcurve"/>
      <point x="1207" y="162" type="line"/>
      <point x="1199" y="153"/>
      <point x="1186" y="136"/>
      <point x="1180" y="130" type="qcurve" smooth="yes"/>
      <point x="1172" y="122"/>
      <point x="1142" y="102"/>
      <point x="1101" y="76"/>
      <point x="1055" y="50"/>
      <point x="1014" y="30"/>
      <point x="981" y="19"/>
      <point x="975" y="21" type="qcurve"/>
      <point x="924" y="-1"/>
      <point x="795" y="-30"/>
      <point x="660" y="-49"/>
      <point x="526" y="-56"/>
      <point x="468" y="-56" type="qcurve" smooth="yes"/>
      <point x="429" y="-56"/>
      <point x="348" y="-53"/>
      <point x="268" y="-41"/>
      <point x="192" y="-16"/>
      <point x="157" y="6" type="qcurve"/>
      <point x="124" y="34" type="line"/>
      <point x="122" y="37"/>
      <point x="119" y="39" type="qcurve"/>
      <point x="102" y="56"/>
      <point x="72" y="103"/>
      <point x="50" y="156"/>
      <point x="38" y="209"/>
      <point x="38" y="234" type="qcurve" smooth="yes"/>
      <point x="38" y="299"/>
      <point x="54" y="439"/>
      <point x="81" y="498" type="qcurve" smooth="yes"/>
      <point x="110" y="561" type="line"/>
      <point x="111" y="561"/>
      <point x="116" y="567"/>
      <point x="121" y="576"/>
      <point x="126" y="583"/>
      <point x="128" y="583" type="qcurve"/>
      <point x="131" y="582" type="line"/>
      <point x="132" y="562"/>
      <point x="122" y="520"/>
      <point x="108" y="477"/>
      <point x="96" y="433"/>
      <point x="96" y="403" type="qcurve" smooth="yes"/>
      <point x="96" y="348"/>
      <point x="135" y="256"/>
      <point x="203" y="189"/>
      <point x="292" y="147"/>
      <point x="392" y="122"/>
      <point x="498" y="112"/>
      <point x="547" y="112" type="qcurve" smooth="yes"/>
      <point x="605" y="112"/>
      <point x="716" y="126"/>
      <point x="824" y="148"/>
      <point x="932" y="178"/>
      <point x="987" y="195" type="qcurve" smooth="yes"/>
      <point x="1013" y="203"/>
      <point x="1066" y="228"/>
      <point x="1090" y="242" type="qcurve"/>
      <point x="1095" y="244"/>
      <point x="1118" y="259"/>
      <point x="1122" y="259" type="qcurve"/>
      <point x="1136" y="269"/>
      <point x="1170" y="293"/>
      <point x="1185" y="303" type="qcurve"/>
      <point x="1187" y="315"/>
      <point x="1191" y="338"/>
      <point x="1191" y="358" type="qcurve" smooth="yes"/>
      <point x="1191" y="400"/>
      <point x="1176" y="501"/>
      <point x="1172" y="552" type="qcurve"/>
      <point x="1172" y="650"/>
      <point x="1142" y="843"/>
      <point x="1134" y="941" type="qcurve"/>
      <point x="1133" y="942"/>
      <point x="1130" y="983"/>
      <point x="1126" y="1043"/>
      <point x="1123" y="1113"/>
      <point x="1119" y="1176"/>
      <point x="1117" y="1222"/>
      <point x="1117" y="1228" type="qcurve"/>
      <point x="1115" y="1251"/>
      <point x="1108" y="1297"/>
      <point x="1108" y="1320" type="qcurve" smooth="yes"/>
      <point x="1108" y="1329" type="line"/>
      <point x="1119" y="1344"/>
      <point x="1141" y="1375"/>
      <point x="1152" y="1391" type="qcurve" smooth="yes"/>
      <point x="1163" y="1407" type="line"/>
      <point x="1173" y="1425"/>
      <point x="1198" y="1459"/>
      <point x="1211" y="1476" type="qcurve"/>
    </contour>
    <contour>
      <point x="765" y="1110"/>
      <point x="774" y="1114"/>
      <point x="782" y="1119"/>
      <point x="790" y="1124"/>
      <point x="791" y="1124" type="qcurve"/>
      <point x="797" y="1123" type="line"/>
      <point x="798" y="1099" type="line" smooth="yes"/>
      <point x="799" y="1069"/>
      <point x="781" y="1008"/>
      <point x="768" y="980" type="qcurve"/>
      <point x="737" y="975" type="line"/>
      <point x="713" y="968" type="line"/>
      <point x="699" y="961"/>
      <point x="698" y="960" type="qcurve"/>
      <point x="691" y="957"/>
      <point x="680" y="953"/>
      <point x="673" y="948"/>
      <point x="673" y="947" type="qcurve"/>
      <point x="685" y="934" type="line"/>
      <point x="703" y="925"/>
      <point x="737" y="910"/>
      <point x="761" y="890"/>
      <point x="777" y="858"/>
      <point x="777" y="832" type="qcurve" smooth="yes"/>
      <point x="777" y="791"/>
      <point x="743" y="724"/>
      <point x="686" y="680"/>
      <point x="613" y="658"/>
      <point x="573" y="658" type="qcurve"/>
      <point x="679" y="733" type="line"/>
      <point x="679" y="751" type="line"/>
      <point x="673" y="755"/>
      <point x="655" y="765"/>
      <point x="635" y="775"/>
      <point x="615" y="782"/>
      <point x="608" y="784" type="qcurve"/>
      <point x="592" y="800" type="line"/>
      <point x="584" y="815"/>
      <point x="584" y="832" type="qcurve" smooth="yes"/>
      <point x="584" y="847"/>
      <point x="601" y="894"/>
      <point x="623" y="944"/>
      <point x="646" y="990"/>
      <point x="654" y="1001" type="qcurve"/>
      <point x="656" y="1001"/>
      <point x="666" y="1019"/>
      <point x="667" y="1020" type="qcurve"/>
      <point x="671" y="1021"/>
      <point x="673" y="1028" type="qcurve"/>
      <point x="692" y="1053"/>
      <point x="738" y="1091"/>
      <point x="764" y="1110" type="qcurve"/>
    </contour>
  </outline>
</glyph>
<glyph name="uni06D6" format="2">
  <unicode hex="06D6"/>
  <anchor x="0" y="0" name="_t.uni064B"/>
  <outline>
    <contour>
      <point x="127" y="-10"/>
      <point x="125" y="-8" type="qcurve"/>
      <point x="125" y="-3"/>
      <point x="131" y="7" type="qcurve"/>
      <point x="126" y="8"/>
      <point x="120" y="15" type="qcurve"/>
      <point x="105" y="1"/>
      <point x="88" y="1" type="qcurve" smooth="yes"/>
      <point x="68" y="1"/>
      <point x="55" y="22" type="qcurve"/>
      <point x="48" y="14"/>
      <point x="34" y="6"/>
      <point x="23" y="-2"/>
      <point x="14" y="-10"/>
      <point x="13" y="-19" type="qcurve"/>
      <point x="23" y="-32"/>
      <point x="84" y="-32" type="qcurve" smooth="yes"/>
      <point x="204" y="-32" type="line"/>
      <point x="204" y="-39"/>
      <point x="190" y="-49" type="qcurve"/>
      <point x="151" y="-51"/>
      <point x="99" y="-54"/>
      <point x="84" y="-54" type="qcurve" smooth="yes"/>
      <point x="68" y="-54"/>
      <point x="36" y="-50"/>
      <point x="11" y="-42"/>
      <point x="-2" y="-29"/>
      <point x="1" y="-16" type="qcurve" smooth="yes"/>
      <point x="4" y="-3"/>
      <point x="20" y="14"/>
      <point x="37" y="23"/>
      <point x="51" y="31"/>
      <point x="53" y="40" type="qcurve"/>
      <point x="52" y="66"/>
      <point x="47" y="124"/>
      <point x="41" y="170"/>
      <point x="36" y="201"/>
      <point x="37" y="201" type="qcurve"/>
      <point x="37" y="211"/>
      <point x="48" y="222" type="qcurve"/>
      <point x="57" y="138" type="line" smooth="yes"/>
      <point x="62" y="98"/>
      <point x="64" y="42"/>
      <point x="62" y="34" type="qcurve"/>
      <point x="71" y="23"/>
      <point x="89" y="23" type="qcurve" smooth="yes"/>
      <point x="112" y="23"/>
      <point x="121" y="40" type="qcurve" smooth="yes"/>
      <point x="124" y="46"/>
      <point x="126" y="46" type="qcurve" smooth="yes"/>
      <point x="129" y="46"/>
      <point x="128" y="43" type="qcurve"/>
      <point x="128" y="41"/>
      <point x="128" y="36" type="qcurve" smooth="yes"/>
      <point x="128" y="32"/>
      <point x="128" y="28" type="qcurve"/>
      <point x="136" y="23"/>
      <point x="142" y="23" type="qcurve"/>
      <point x="191" y="86"/>
      <point x="238" y="86" type="qcurve" smooth="yes"/>
      <point x="270" y="86"/>
      <point x="270" y="59" type="qcurve" smooth="yes"/>
      <point x="270" y="31"/>
      <point x="233" y="14" type="qcurve" smooth="yes"/>
      <point x="203" y="0"/>
      <point x="168" y="0" type="qcurve" smooth="yes"/>
      <point x="149" y="0"/>
      <point x="138" y="4" type="qcurve"/>
      <point x="133" y="-1"/>
      <point x="127" y="-10" type="qcurve"/>
    </contour>
    <contour>
      <point x="250" y="22"/>
      <point x="250" y="50" type="qcurve" smooth="yes"/>
      <point x="250" y="64"/>
      <point x="229" y="64" type="qcurve" smooth="yes"/>
      <point x="194" y="64"/>
      <point x="151" y="22" type="qcurve"/>
    </contour>
  </outline>
</glyph>
<glyph name="uni06D8" format="2">
  <unicode hex="06D8"/>
  <anchor x="0" y="0" name="_t.uni064B"/>
  <outline>
    <contour>
      <point x="106" y="7"/>
      <point x="83" y="7" type="qcurve" smooth="yes"/>
      <point x="65" y="7"/>
      <point x="52" y="22" type="qcurve"/>
      <point x="36" y="0"/>
      <point x="13" y="0" type="qcurve" smooth="yes"/>
      <point x="0" y="0" type="line"/>
      <point x="0" y="21" type="line"/>
      <point x="13" y="21" type="line" smooth="yes"/>
      <point x="40" y="21"/>
      <point x="45" y="36" type="qcurve"/>
      <point x="46" y="38"/>
      <point x="51" y="53"/>
      <point x="52" y="55" type="qcurve"/>
      <point x="62" y="85"/>
      <point x="77" y="85" type="qcurve" smooth="yes"/>
      <point x="88" y="85"/>
      <point x="106" y="51"/>
      <point x="106" y="33" type="qcurve" smooth="yes"/>
    </contour>
    <contour>
      <point x="92" y="66"/>
      <point x="77" y="66" type="qcurve" smooth="yes"/>
      <point x="64" y="66"/>
      <point x="60" y="40" type="qcurve"/>
      <point x="69" y="28"/>
      <point x="80" y="28" type="qcurve" smooth="yes"/>
      <point x="92" y="28"/>
      <point x="92" y="45" type="qcurve" smooth="yes"/>
    </contour>
  </outline>
</glyph>
<glyph name="uni06D9" format="2">
  <unicode hex="06D9"/>
  <anchor x="0" y="-29" name="_t.uni064B"/>
  <outline>
    <contour>
      <point x="104" y="178" type="line"/>
      <point x="105" y="173" type="line"/>
      <point x="105" y="110"/>
      <point x="83" y="69" type="qcurve"/>
      <point x="89" y="50"/>
      <point x="89" y="24" type="qcurve" smooth="yes"/>
      <point x="89" y="3"/>
      <point x="81" y="-5"/>
      <point x="30" y="-5" type="qcurve" smooth="yes"/>
      <point x="20" y="-5"/>
      <point x="20" y="1" type="qcurve" smooth="yes"/>
      <point x="20" y="4"/>
      <point x="23" y="7" type="qcurve"/>
      <point x="55" y="32"/>
      <point x="70" y="67" type="qcurve"/>
      <point x="62" y="89"/>
      <point x="39" y="137"/>
      <point x="24" y="159" type="qcurve"/>
      <point x="14" y="153" type="line"/>
      <point x="9" y="157"/>
      <point x="0" y="173"/>
      <point x="0" y="182" type="qcurve" smooth="yes"/>
      <point x="0" y="188"/>
      <point x="5" y="206"/>
      <point x="7" y="206" type="qcurve" smooth="yes"/>
      <point x="15" y="206"/>
      <point x="44" y="150" type="qcurve" smooth="yes"/>
      <point x="54" y="131"/>
      <point x="72" y="93"/>
      <point x="77" y="80" type="qcurve"/>
      <point x="91" y="110"/>
      <point x="91" y="160" type="qcurve" smooth="yes"/>
      <point x="91" y="185"/>
      <point x="88" y="201" type="qcurve"/>
      <point x="101" y="214" type="line"/>
      <point x="105" y="192"/>
      <point x="113" y="187" type="qcurve"/>
    </contour>
    <contour>
      <point x="80" y="44"/>
      <point x="76" y="55" type="qcurve"/>
      <point x="72" y="48"/>
      <point x="60" y="30"/>
      <point x="49" y="16" type="qcurve"/>
      <point x="68" y="15"/>
      <point x="80" y="20"/>
      <point x="80" y="32" type="qcurve" smooth="yes"/>
    </contour>
  </outline>
</glyph>
<glyph name="uni06DD" format="2">
  <advance width="2353"/>
  <unicode hex="06DD"/>
  <outline>
    <contour>
      <point x="1618" y="-768"/>
      <point x="1643" y="-768" type="qcurve" smooth="yes"/>
      <point x="1723" y="-768"/>
      <point x="1739" y="-684" type="qcurve"/>
      <point x="1969" y="-542"/>
      <point x="2103" y="-305" type="qcurve" smooth="yes"/>
      <point x="2242" y="-60"/>
      <point x="2242" y="499"/>
      <point x="2105" y="741" type="qcurve" smooth="yes"/>
      <point x="1972" y="975"/>
      <point x="1743" y="1119" type="qcurve"/>
      <point x="1740" y="1137"/>
      <point x="1723" y="1169"/>
      <point x="1697" y="1192"/>
      <point x="1663" y="1206"/>
      <point x="1644" y="1206" type="qcurve" smooth="yes"/>
      <point x="1623" y="1206"/>
      <point x="1600" y="1195" type="qcurve"/>
      <point x="1397" y="1283"/>
      <point x="1178" y="1283" type="qcurve" smooth="yes"/>
      <point x="959" y="1283"/>
      <point x="757" y="1195" type="qcurve"/>
      <point x="734" y="1206"/>
      <point x="713" y="1206" type="qcurve" smooth="yes"/>
      <point x="694" y="1206"/>
      <point x="660" y="1192"/>
      <point x="633" y="1169"/>
      <point x="616" y="1137"/>
      <point x="613" y="1119" type="qcurve"/>
      <point x="384" y="976"/>
      <point x="251" y="741" type="qcurve" smooth="yes"/>
      <point x="114" y="499"/>
      <point x="114" y="220" type="qcurve" smooth="yes"/>
      <point x="114" y="-61"/>
      <point x="253" y="-305" type="qcurve" smooth="yes"/>
      <point x="388" y="-542"/>
      <point x="618" y="-684" type="qcurve"/>
      <point x="633" y="-768"/>
      <point x="714" y="-768" type="qcurve" smooth="yes"/>
      <point x="739" y="-768"/>
      <point x="758" y="-759" type="qcurve"/>
      <point x="956" y="-845"/>
      <point x="1178" y="-845" type="qcurve" smooth="yes"/>
      <point x="1399" y="-845"/>
      <point x="1598" y="-759" type="qcurve"/>
    </contour>
    <contour>
      <point x="1614" y="1003"/>
      <point x="1646" y="1003" type="qcurve" smooth="yes"/>
      <point x="1676" y="1003"/>
      <point x="1701" y="1021" type="qcurve"/>
      <point x="1902" y="891"/>
      <point x="2017" y="681" type="qcurve" smooth="yes"/>
      <point x="2136" y="466"/>
      <point x="2136" y="220" type="qcurve" smooth="yes"/>
      <point x="2136" y="-29"/>
      <point x="2016" y="-245" type="qcurve" smooth="yes"/>
      <point x="1900" y="-455"/>
      <point x="1699" y="-585" type="qcurve"/>
      <point x="1671" y="-566"/>
      <point x="1640" y="-566" type="qcurve" smooth="yes"/>
      <point x="1611" y="-566"/>
      <point x="1587" y="-581" type="qcurve"/>
      <point x="1398" y="-498"/>
      <point x="1178" y="-498" type="qcurve" smooth="yes"/>
      <point x="958" y="-498"/>
      <point x="769" y="-581" type="qcurve"/>
      <point x="744" y="-566"/>
      <point x="717" y="-566" type="qcurve" smooth="yes"/>
      <point x="686" y="-566"/>
      <point x="658" y="-585" type="qcurve"/>
      <point x="457" y="-454"/>
      <point x="341" y="-245" type="qcurve" smooth="yes"/>
      <point x="221" y="-30"/>
      <point x="221" y="218" type="qcurve" smooth="yes"/>
      <point x="221" y="465"/>
      <point x="340" y="681" type="qcurve" smooth="yes"/>
      <point x="455" y="890"/>
      <point x="656" y="1021" type="qcurve"/>
      <point x="681" y="1003"/>
      <point x="711" y="1003" type="qcurve" smooth="yes"/>
      <point x="743" y="1003"/>
      <point x="773" y="1025" type="qcurve"/>
      <point x="957" y="936"/>
      <point x="1399" y="936"/>
      <point x="1584" y="1025" type="qcurve"/>
    </contour>
    <contour>
      <point x="1383" y="1043"/>
      <point x="1178" y="1043" type="qcurve" smooth="yes"/>
      <point x="973" y="1043"/>
      <point x="814" y="1103" type="qcurve"/>
      <point x="974" y="1176"/>
      <point x="1178" y="1176" type="qcurve" smooth="yes"/>
      <point x="1383" y="1176"/>
      <point x="1543" y="1103" type="qcurve"/>
    </contour>
    <contour>
      <point x="976" y="-605"/>
      <point x="1178" y="-605" type="qcurve" smooth="yes"/>
      <point x="1380" y="-605"/>
      <point x="1538" y="-666" type="qcurve"/>
      <point x="1381" y="-738"/>
      <point x="1178" y="-738" type="qcurve" smooth="yes"/>
      <point x="975" y="-738"/>
      <point x="818" y="-666" type="qcurve"/>
    </contour>
    <contour>
      <point x="1705" y="1046"/>
      <point x="1644" y="1046" type="qcurve" smooth="yes"/>
      <point x="1584" y="1046"/>
      <point x="1584" y="1106" type="qcurve" smooth="yes"/>
      <point x="1584" y="1166"/>
      <point x="1644" y="1166" type="qcurve" smooth="yes"/>
      <point x="1705" y="1166"/>
      <point x="1705" y="1106" type="qcurve" smooth="yes"/>
    </contour>
    <contour>
      <point x="651" y="1166"/>
      <point x="712" y="1166" type="qcurve" smooth="yes"/>
      <point x="773" y="1166"/>
      <point x="773" y="1106" type="qcurve" smooth="yes"/>
      <point x="773" y="1046"/>
      <point x="712" y="1046" type="qcurve" smooth="yes"/>
      <point x="651" y="1046"/>
      <point x="651" y="1106" type="qcurve" smooth="yes"/>
    </contour>
    <contour>
      <point x="1700" y="-725"/>
      <point x="1639" y="-725" type="qcurve" smooth="yes"/>
      <point x="1578" y="-725"/>
      <point x="1578" y="-666" type="qcurve" smooth="yes"/>
      <point x="1578" y="-606"/>
      <point x="1639" y="-606" type="qcurve" smooth="yes"/>
      <point x="1700" y="-606"/>
      <point x="1700" y="-666" type="qcurve" smooth="yes"/>
    </contour>
    <contour>
      <point x="657" y="-606"/>
      <point x="718" y="-606" type="qcurve" smooth="yes"/>
      <point x="778" y="-606"/>
      <point x="778" y="-666" type="qcurve" smooth="yes"/>
      <point x="778" y="-725"/>
      <point x="718" y="-725" type="qcurve" smooth="yes"/>
      <point x="657" y="-725"/>
      <point x="657" y="-666" type="qcurve" smooth="yes"/>
    </contour>
  </outline>
</glyph>
<glyph name="uni06E1" format="2">
  <unicode hex="06E1"/>
  <anchor x="0" y="0" name="_t.uni064B"/>
  <outline>
    <contour>
      <point x="170" y="49" type="line"/>
      <point x="158" y="48"/>
      <point x="134" y="45"/>
      <point x="123" y="41" type="qcurve"/>
      <point x="105" y="36"/>
      <point x="34" y="0"/>
      <point x="10" y="0" type="qcurve" smooth="yes"/>
      <point x="0" y="0" type="line"/>
      <point x="0" y="21" type="line"/>
      <point x="13" y="21" type="line" smooth="yes"/>
      <point x="25" y="21"/>
      <point x="53" y="29"/>
      <point x="79" y="40"/>
      <point x="104" y="51"/>
      <point x="113" y="55" type="qcurve"/>
      <point x="91" y="69"/>
      <point x="51" y="69" type="qcurve" smooth="yes"/>
      <point x="34" y="69"/>
      <point x="28" y="60" type="qcurve"/>
      <point x="29" y="87"/>
      <point x="55" y="87" type="qcurve" smooth="yes"/>
      <point x="74" y="87"/>
      <point x="111" y="75" type="qcurve"/>
      <point x="150" y="65"/>
      <point x="169" y="65" type="qcurve" smooth="yes"/>
      <point x="176" y="65"/>
      <point x="181" y="66" type="qcurve"/>
    </contour>
  </outline>
</glyph>
<glyph name="uni06E4" format="2">
  <unicode hex="06E4"/>
  <anchor x="0" y="0" name="_t.uni064B"/>
  <outline>
    <contour>
      <point x="88" y="3"/>
      <point x="67" y="3" type="qcurve" smooth="yes"/>
      <point x="60" y="3"/>
      <point x="31" y="6"/>
      <point x="24" y="6" type="qcurve" smooth="yes"/>
      <point x="13" y="6"/>
      <point x="0" y="0" type="qcurve"/>
      <point x="3" y="9"/>
      <point x="22" y="19"/>
      <point x="31" y="19" type="qcurve" smooth="yes"/>
      <point x="37" y="19"/>
      <point x="64" y="16"/>
      <point x="71" y="16" type="qcurve" smooth="yes"/>
      <point x="82" y="16"/>
      <point x="99" y="22" type="qcurve"/>
    </contour>
  </outline>
</glyph>
<glyph name="uni06EA" format="2">
  <unicode hex="06EA"/>
  <anchor x="71" y="0" name="_b.uni064D_1"/>
  <outline>
    <contour>
      <point x="135" y="-96"/>
      <point x="95" y="-134"/>
      <point x="68" y="-134" type="qcurve" smooth="yes"/>
      <point x="40" y="-134"/>
      <point x="-1" y="-95"/>
      <point x="-1" y="-68" type="qcurve" smooth="yes"/>
      <point x="-1" y="-39"/>
      <point x="40" y="0"/>
      <point x="68" y="0" type="qcurve" smooth="yes"/>
      <point x="96" y="0"/>
      <point x="135" y="-39"/>
      <point x="135" y="-68" type="qcurve" smooth="yes"/>
    </contour>
    <contour>
      <point x="115" y="-20"/>
      <point x="19" y="-20"/>
      <point x="19" y="-69" type="qcurve" smooth="yes"/>
      <point x="19" y="-116"/>
      <point x="67" y="-116" type="qcurve" smooth="yes"/>
      <point x="115" y="-116"/>
      <point x="115" y="-69" type="qcurve" smooth="yes"/>
    </contour>
  </outline>
</glyph>
<glyph name="uni06EB" format="2">
  <unicode hex="06EB"/>
  <anchor x="0" y="0" name="_t.uni064B"/>
  <outline>
    <contour>
      <point x="135" y="39"/>
      <point x="95" y="0"/>
      <point x="68" y="0" type="qcurve" smooth="yes"/>
      <point x="40" y="0"/>
      <point x="-1" y="39"/>
      <point x="-1" y="68" type="qcurve" smooth="yes"/>
      <point x="-1" y="96"/>
      <point x="40" y="134"/>
      <point x="68" y="134" type="qcurve" smooth="yes"/>
      <point x="96" y="134"/>
      <point x="135" y="96"/>
      <point x="135" y="68" type="qcurve" smooth="yes"/>
    </contour>
    <contour>
      <point x="115" y="114"/>
      <point x="67" y="114" type="qcurve" smooth="yes"/>
      <point x="19" y="114"/>
      <point x="19" y="67" type="qcurve" smooth="yes"/>
      <point x="19" y="18"/>
      <point x="115" y="18"/>
      <point x="115" y="67" type="qcurve" smooth="yes"/>
    </contour>
  </outline>
</glyph>
<glyph name="uni06F0" format="2">
  <advance width="398"/>
  <unicode hex="06F0"/>
  <outline>
    <contour>
      <point x="171" y="474"/>
      <point x="176" y="467" type="qcurve"/>
      <point x="179" y="465"/>
      <point x="183" y="462" type="qcurve"/>
      <point x="183" y="461"/>
      <point x="185" y="460" type="qcurve"/>
      <point x="188" y="457"/>
      <point x="192" y="451" type="qcurve"/>
      <point x="195" y="448"/>
      <point x="201" y="443" type="qcurve"/>
      <point x="205" y="441"/>
      <point x="209" y="435" type="qcurve"/>
      <point x="212" y="432"/>
      <point x="219" y="428" type="qcurve"/>
      <point x="222" y="424"/>
      <point x="227" y="421" type="qcurve"/>
      <point x="230" y="418"/>
      <point x="237" y="414" type="qcurve"/>
      <point x="240" y="411"/>
      <point x="246" y="406" type="qcurve"/>
      <point x="250" y="404"/>
      <point x="255" y="400" type="qcurve"/>
      <point x="259" y="398"/>
      <point x="263" y="394" type="qcurve"/>
      <point x="265" y="393" type="line" smooth="yes"/>
      <point x="269" y="391"/>
      <point x="274" y="386" type="qcurve"/>
      <point x="279" y="384"/>
      <point x="285" y="380" type="qcurve"/>
      <point x="289" y="378"/>
      <point x="294" y="373" type="qcurve"/>
      <point x="305" y="367" type="line"/>
      <point x="308" y="364"/>
      <point x="313" y="361" type="qcurve"/>
      <point x="318" y="359"/>
      <point x="324" y="354" type="qcurve"/>
      <point x="322" y="350"/>
      <point x="319" y="344" type="qcurve"/>
      <point x="316" y="341"/>
      <point x="311" y="335" type="qcurve"/>
      <point x="309" y="331"/>
      <point x="305" y="325" type="qcurve"/>
      <point x="301" y="322"/>
      <point x="298" y="315" type="qcurve"/>
      <point x="295" y="312"/>
      <point x="290" y="306" type="qcurve"/>
      <point x="288" y="302"/>
      <point x="285" y="299" type="qcurve"/>
      <point x="284" y="297" type="line"/>
      <point x="282" y="294"/>
      <point x="278" y="289" type="qcurve" smooth="yes"/>
      <point x="269" y="278" type="line"/>
      <point x="267" y="274"/>
      <point x="263" y="268" type="qcurve"/>
      <point x="261" y="264"/>
      <point x="256" y="260" type="qcurve"/>
      <point x="254" y="256"/>
      <point x="250" y="251" type="qcurve" smooth="yes"/>
      <point x="246" y="246"/>
      <point x="243" y="240" type="qcurve"/>
      <point x="235" y="231" type="line"/>
      <point x="233" y="227"/>
      <point x="228" y="222" type="qcurve"/>
      <point x="226" y="219"/>
      <point x="223" y="214" type="qcurve"/>
      <point x="220" y="208" type="line"/>
      <point x="216" y="209"/>
      <point x="212" y="212" type="qcurve"/>
      <point x="202" y="218" type="line"/>
      <point x="198" y="221"/>
      <point x="192" y="225" type="qcurve"/>
      <point x="187" y="228"/>
      <point x="183" y="230" type="qcurve" smooth="yes"/>
      <point x="177" y="233"/>
      <point x="173" y="237" type="qcurve"/>
      <point x="168" y="241"/>
      <point x="162" y="244" type="qcurve"/>
      <point x="158" y="249"/>
      <point x="152" y="250" type="qcurve"/>
      <point x="149" y="254"/>
      <point x="144" y="258" type="qcurve"/>
      <point x="139" y="261"/>
      <point x="134" y="266" type="qcurve"/>
      <point x="130" y="269"/>
      <point x="122" y="275"/>
      <point x="116" y="280" type="qcurve"/>
      <point x="113" y="283"/>
      <point x="108" y="287" type="qcurve"/>
      <point x="104" y="290"/>
      <point x="99" y="295" type="qcurve"/>
      <point x="96" y="299"/>
      <point x="91" y="304" type="qcurve"/>
      <point x="69" y="330" type="line"/>
      <point x="74" y="341" type="line"/>
      <point x="77" y="345"/>
      <point x="82" y="350" type="qcurve"/>
      <point x="84" y="355"/>
      <point x="89" y="360" type="qcurve"/>
      <point x="92" y="365"/>
      <point x="94" y="370" type="qcurve"/>
      <point x="98" y="374"/>
      <point x="101" y="380" type="qcurve"/>
      <point x="105" y="384"/>
      <point x="108" y="389" type="qcurve"/>
      <point x="112" y="393"/>
      <point x="114" y="399" type="qcurve"/>
      <point x="117" y="403"/>
      <point x="120" y="407" type="qcurve"/>
      <point x="122" y="408" type="line"/>
      <point x="124" y="413"/>
      <point x="128" y="418" type="qcurve"/>
      <point x="129" y="422"/>
      <point x="133" y="425" type="qcurve"/>
      <point x="134" y="427" type="line"/>
      <point x="137" y="431"/>
      <point x="141" y="437" type="qcurve"/>
      <point x="144" y="441"/>
      <point x="148" y="447" type="qcurve"/>
      <point x="152" y="451"/>
      <point x="154" y="457" type="qcurve"/>
      <point x="158" y="461"/>
      <point x="161" y="466" type="qcurve"/>
      <point x="163" y="470"/>
      <point x="167" y="476" type="qcurve"/>
    </contour>
  </outline>
</glyph>
<glyph name="uniFB95" format="2">
  <advance width="751"/>
  <unicode hex="FB95"/>
  <anchor x="29" y="1913" name="t.uni064B"/>
  <anchor x="186" y="-400" name="b.uni064D_1"/>
  <outline>
    <contour>
      <point x="1083" y="1966" type="line"/>
      <point x="1083" y="1955"/>
      <point x="1079" y="1943" type="qcurve"/>
      <point x="1028" y="1818" type="line"/>
      <point x="1019" y="1808"/>
      <point x="1007" y="1801" type="qcurve" smooth="yes"/>
      <point x="-40" y="1207" type="line"/>
      <point x="-43" y="1205"/>
      <point x="-44" y="1201" type="qcurve"/>
      <point x="388" y="470" type="line"/>
      <point x="514" y="310" type="line"/>
      <point x="569" y="257" type="line"/>
      <point x="630" y="213" type="line"/>
      <point x="706" y="181" type="line"/>
      <point x="733" y="173" type="line"/>
      <point x="750" y="173"/>
      <point x="752" y="154" type="qcurve"/>
      <point x="752" y="0" type="line"/>
      <point x="699" y="8" type="line"/>
      <point x="619" y="34" type="line"/>
      <point x="529" y="88" type="line"/>
      <point x="436" y="173" type="line"/>
      <point x="331" y="318" type="line"/>
      <point x="318" y="341" type="line"/>
      <point x="284" y="234" type="line"/>
      <point x="232" y="143" type="line"/>
      <point x="164" y="69" type="line"/>
      <point x="122" y="38" type="line"/>
      <point x="72" y="15" type="line"/>
      <point x="17" y="0" type="line"/>
      <point x="0" y="0" type="line"/>
      <point x="0" y="171" type="line"/>
      <point x="59" y="175" type="line"/>
      <point x="89" y="181" type="line"/>
      <point x="141" y="202" type="line"/>
      <point x="183" y="230" type="line"/>
      <point x="219" y="266" type="line"/>
      <point x="232" y="287" type="line" smooth="yes"/>
      <point x="239" y="298"/>
      <point x="244" y="312" type="qcurve"/>
      <point x="247" y="324"/>
      <point x="247" y="339" type="qcurve"/>
      <point x="223" y="457" type="line"/>
      <point x="192" y="535" type="line"/>
      <point x="188" y="546"/>
      <point x="181" y="558" type="qcurve" smooth="yes"/>
      <point x="-124" y="1075" type="line"/>
      <point x="-128" y="1096" type="line"/>
      <point x="-91" y="1212" type="line"/>
      <point x="-23" y="1359" type="line"/>
      <point x="-14" y="1368"/>
      <point x="-4" y="1376" type="qcurve"/>
    </contour>
    <contour>
      <point x="886" y="2107" type="line"/>
      <point x="883" y="2102"/>
      <point x="882" y="2094" type="qcurve"/>
      <point x="880" y="2088"/>
      <point x="876" y="2079" type="qcurve"/>
      <point x="870" y="2064" type="line"/>
      <point x="868" y="2058"/>
      <point x="864" y="2050" type="qcurve"/>
      <point x="862" y="2043"/>
      <point x="857" y="2034" type="qcurve"/>
      <point x="856" y="2027"/>
      <point x="852" y="2018" type="qcurve"/>
      <point x="850" y="2012"/>
      <point x="848" y="2006" type="qcurve" smooth="yes"/>
      <point x="847" y="2003" type="line"/>
      <point x="844" y="1997"/>
      <point x="840" y="1989" type="qcurve"/>
      <point x="835" y="1973" type="line"/>
      <point x="832" y="1966"/>
      <point x="823" y="1963" type="qcurve"/>
      <point x="810" y="1955" type="line"/>
      <point x="805" y="1953"/>
      <point x="798" y="1949" type="qcurve"/>
      <point x="781" y="1940" type="line"/>
      <point x="776" y="1938"/>
      <point x="771" y="1934" type="qcurve"/>
      <point x="754" y="1924" type="line"/>
      <point x="749" y="1922"/>
      <point x="742" y="1918" type="qcurve"/>
      <point x="739" y="1917" type="line"/>
      <point x="733" y="1913"/>
      <point x="725" y="1909" type="qcurve"/>
      <point x="720" y="1906"/>
      <point x="714" y="1902" type="qcurve"/>
      <point x="364" y="1705" type="line"/>
      <point x="359" y="1703"/>
      <point x="352" y="1699" type="qcurve"/>
      <point x="335" y="1690" type="line"/>
      <point x="330" y="1688"/>
      <point x="325" y="1684" type="qcurve"/>
      <point x="307" y="1675" type="line" smooth="yes"/>
      <point x="301" y="1672"/>
      <point x="293" y="1667" type="qcurve"/>
      <point x="288" y="1665"/>
      <point x="283" y="1661" type="qcurve"/>
      <point x="266" y="1652" type="line"/>
      <point x="261" y="1650"/>
      <point x="254" y="1645" type="qcurve"/>
      <point x="238" y="1637" type="line"/>
      <point x="233" y="1634"/>
      <point x="226" y="1630" type="qcurve"/>
      <point x="209" y="1621" type="line"/>
      <point x="204" y="1620"/>
      <point x="201" y="1616" type="qcurve"/>
      <point x="194" y="1614" type="line"/>
      <point x="181" y="1605" type="line"/>
      <point x="176" y="1603"/>
      <point x="169" y="1600" type="qcurve"/>
      <point x="167" y="1598" type="line"/>
      <point x="152" y="1590" type="line"/>
      <point x="148" y="1588"/>
      <point x="142" y="1584" type="qcurve"/>
      <point x="125" y="1575" type="line"/>
      <point x="120" y="1572"/>
      <point x="113" y="1568" type="qcurve" smooth="yes"/>
      <point x="97" y="1559" type="line"/>
      <point x="91" y="1557"/>
      <point x="83" y="1552" type="qcurve"/>
      <point x="78" y="1550"/>
      <point x="71" y="1546" type="qcurve" smooth="yes"/>
      <point x="55" y="1537" type="line"/>
      <point x="50" y="1534"/>
      <point x="44" y="1530" type="qcurve"/>
      <point x="27" y="1521" type="line"/>
      <point x="22" y="1519"/>
      <point x="16" y="1515" type="qcurve"/>
      <point x="-1" y="1506" type="line" smooth="yes"/>
      <point x="-5" y="1504"/>
      <point x="-11" y="1500" type="qcurve"/>
      <point x="-14" y="1499" type="line"/>
      <point x="-20" y="1496"/>
      <point x="-27" y="1491" type="qcurve"/>
      <point x="-29" y="1490" type="line"/>
      <point x="-33" y="1490" type="line"/>
      <point x="-31" y="1494"/>
      <point x="-29" y="1502" type="qcurve"/>
      <point x="-27" y="1507"/>
      <point x="-22" y="1515" type="qcurve"/>
      <point x="-20" y="1522"/>
      <point x="-16" y="1531" type="qcurve"/>
      <point x="-12" y="1536"/>
      <point x="-10" y="1546" type="qcurve"/>
      <point x="-8" y="1552"/>
      <point x="-3" y="1560" type="qcurve"/>
      <point x="-1" y="1566"/>
      <point x="2" y="1572" type="qcurve"/>
      <point x="6" y="1581"/>
      <point x="9" y="1590" type="qcurve"/>
      <point x="16" y="1605" type="line"/>
      <point x="17" y="1610"/>
      <point x="21" y="1616" type="qcurve"/>
      <point x="22" y="1619" type="line"/>
      <point x="24" y="1624"/>
      <point x="28" y="1630" type="qcurve"/>
      <point x="28" y="1634" type="line"/>
      <point x="31" y="1640"/>
      <point x="35" y="1648" type="qcurve"/>
      <point x="49" y="1656" type="line"/>
      <point x="53" y="1659"/>
      <point x="60" y="1663" type="qcurve"/>
      <point x="63" y="1664" type="line"/>
      <point x="68" y="1666"/>
      <point x="74" y="1670" type="qcurve"/>
      <point x="77" y="1671" type="line"/>
      <point x="83" y="1674"/>
      <point x="89" y="1678" type="qcurve"/>
      <point x="148" y="1709" type="line"/>
      <point x="154" y="1713"/>
      <point x="163" y="1716" type="qcurve"/>
      <point x="177" y="1724" type="line"/>
      <point x="182" y="1726"/>
      <point x="187" y="1730" type="qcurve"/>
      <point x="190" y="1732" type="line"/>
      <point x="195" y="1734"/>
      <point x="202" y="1738" type="qcurve"/>
      <point x="205" y="1739" type="line" smooth="yes"/>
      <point x="211" y="1741"/>
      <point x="217" y="1746" type="qcurve"/>
      <point x="626" y="1970" type="line"/>
      <point x="631" y="1973"/>
      <point x="638" y="1977" type="qcurve"/>
      <point x="640" y="1978" type="line"/>
      <point x="645" y="1980"/>
      <point x="651" y="1983" type="qcurve"/>
      <point x="669" y="1993" type="line"/>
      <point x="674" y="1995"/>
      <point x="680" y="1999" type="qcurve"/>
      <point x="683" y="2000" type="line"/>
      <point x="688" y="2002"/>
      <point x="694" y="2006" type="qcurve"/>
      <point x="711" y="2016" type="line"/>
      <point x="726" y="2023" type="line"/>
      <point x="732" y="2027"/>
      <point x="739" y="2030" type="qcurve"/>
      <point x="754" y="2038" type="line"/>
      <point x="760" y="2040"/>
      <point x="768" y="2046" type="qcurve"/>
      <point x="773" y="2048"/>
      <point x="779" y="2052" type="qcurve"/>
      <point x="781" y="2053" type="line"/>
      <point x="787" y="2055"/>
      <point x="794" y="2060" type="qcurve"/>
      <point x="811" y="2068" type="line"/>
      <point x="816" y="2071"/>
      <point x="822" y="2075" type="qcurve"/>
      <point x="825" y="2076" type="line"/>
      <point x="830" y="2080"/>
      <point x="838" y="2083" type="qcurve"/>
      <point x="853" y="2091" type="line"/>
      <point x="858" y="2092"/>
      <point x="861" y="2097" type="qcurve"/>
      <point x="868" y="2098" type="line"/>
      <point x="873" y="2100"/>
      <point x="878" y="2105" type="qcurve"/>
    </contour>
  </outline>
</glyph>
<glyph name="uniFBE9" format="2">
  <advance width="418"/>
  <unicode hex="FBE9"/>
  <anchor x="186" y="585" name="t.uni064B"/>
  <anchor x="186" y="-200" name="b.uni064D_1"/>
  <outline>
    <contour>
      <point x="241" y="324" type="line"/>
      <point x="250" y="324"/>
      <point x="253" y="313" type="qcurve"/>
      <point x="258" y="172"/>
      <point x="419" y="172" type="qcurve"/>
      <point x="419" y="0" type="line"/>
      <point x="364" y="0" type="line"/>
      <point x="325" y="5" type="line"/>
      <point x="309" y="10" type="line"/>
      <point x="303" y="10" type="line"/>
      <point x="299" y="13"/>
      <point x="292" y="14" type="qcurve"/>
      <point x="286" y="17" type="line"/>
      <point x="282" y="18"/>
      <point x="278" y="21" type="qcurve"/>
      <point x="272" y="23" type="line"/>
      <point x="251" y="37" type="line"/>
      <point x="249" y="39"/>
      <point x="246" y="41" type="qcurve"/>
      <point x="241" y="48"/>
      <point x="231" y="55" type="qcurve"/>
      <point x="231" y="56"/>
      <point x="229" y="57" type="qcurve"/>
      <point x="226" y="62" type="line"/>
      <point x="223" y="69"/>
      <point x="215" y="76" type="qcurve"/>
      <point x="214" y="79" type="line"/>
      <point x="210" y="84"/>
      <point x="206" y="92" type="qcurve"/>
      <point x="200" y="107" type="line"/>
      <point x="194" y="103"/>
      <point x="189" y="96" type="qcurve"/>
      <point x="187" y="95" type="line"/>
      <point x="186" y="95"/>
      <point x="186" y="93" type="qcurve"/>
      <point x="181" y="90"/>
      <point x="176" y="85" type="qcurve"/>
      <point x="172" y="83" type="line"/>
      <point x="159" y="70" type="line"/>
      <point x="157" y="70"/>
      <point x="156" y="69" type="qcurve"/>
      <point x="139" y="57" type="line"/>
      <point x="138" y="55" type="line"/>
      <point x="135" y="54" type="line"/>
      <point x="121" y="44" type="line"/>
      <point x="117" y="43" type="line"/>
      <point x="108" y="36" type="line"/>
      <point x="103" y="35"/>
      <point x="99" y="31" type="qcurve"/>
      <point x="94" y="30"/>
      <point x="89" y="27" type="qcurve"/>
      <point x="66" y="16" type="line"/>
      <point x="20" y="3" type="line"/>
      <point x="0" y="0" type="line"/>
      <point x="0" y="172" type="line"/>
      <point x="21" y="172"/>
      <point x="174" y="192"/>
      <point x="224" y="304" type="qcurve"/>
      <point x="233" y="316" type="line"/>
    </contour>
  </outline>
</glyph>
<glyph name="uniFC82" format="2">
  <advance width="1114"/>
  <unicode hex="FC82"/>
  <outline>
    <contour>
      <point x="1270" y="1655"/>
      <point x="1266" y="1641" type="qcurve"/>
      <point x="1249" y="1610" type="line"/>
      <point x="1243" y="1597"/>
      <point x="1233" y="1582" type="qcurve"/>
      <point x="1203" y="1519" type="line"/>
      <point x="1195" y="1507"/>
      <point x="1188" y="1488" type="qcurve"/>
      <point x="1173" y="1483"/>
      <point x="1155" y="1475" type="qcurve" smooth="yes"/>
      <point x="807" y="1317" type="line"/>
      <point x="795" y="1310"/>
      <point x="777" y="1304" type="qcurve"/>
      <point x="303" y="1087" type="line"/>
      <point x="303" y="1075"/>
      <point x="312" y="1064" type="qcurve" smooth="yes"/>
      <point x="436" y="912" type="line"/>
      <point x="444" y="900"/>
      <point x="455" y="885" type="qcurve" smooth="yes"/>
      <point x="569" y="723" type="line" smooth="yes"/>
      <point x="577" y="711"/>
      <point x="588" y="697" type="qcurve"/>
      <point x="624" y="641" type="line" smooth="yes"/>
      <point x="632" y="629"/>
      <point x="643" y="615" type="qcurve"/>
      <point x="849" y="314" type="line"/>
      <point x="859" y="303"/>
      <point x="868" y="287" type="qcurve"/>
      <point x="916" y="244" type="line"/>
      <point x="927" y="235"/>
      <point x="942" y="225" type="qcurve"/>
      <point x="954" y="215"/>
      <point x="971" y="207" type="qcurve"/>
      <point x="983" y="199"/>
      <point x="999" y="193" type="qcurve"/>
      <point x="1016" y="186"/>
      <point x="1035" y="181" type="qcurve"/>
      <point x="1073" y="173" type="line"/>
      <point x="1092" y="173"/>
      <point x="1115" y="167" type="qcurve"/>
      <point x="1115" y="0" type="line"/>
      <point x="1056" y="4" type="line"/>
      <point x="984" y="23" type="line"/>
      <point x="952" y="36" type="line"/>
      <point x="939" y="44"/>
      <point x="919" y="51" type="qcurve"/>
      <point x="893" y="70" type="line"/>
      <point x="881" y="77"/>
      <point x="866" y="89" type="qcurve"/>
      <point x="839" y="108" type="line"/>
      <point x="710" y="255" type="line"/>
      <point x="657" y="341" type="line"/>
      <point x="645" y="324" type="line"/>
      <point x="617" y="215" type="line"/>
      <point x="612" y="200"/>
      <point x="603" y="183" type="qcurve" smooth="yes"/>
      <point x="571" y="124" type="line"/>
      <point x="550" y="97" type="line"/>
      <point x="539" y="87"/>
      <point x="527" y="74" type="qcurve"/>
      <point x="499" y="57" type="line" smooth="yes"/>
      <point x="487" y="50"/>
      <point x="468" y="42" type="qcurve"/>
      <point x="487" y="27" type="line"/>
      <point x="516" y="10" type="line"/>
      <point x="550" y="-19" type="line"/>
      <point x="512" y="-103" type="line"/>
      <point x="470" y="-167" type="line"/>
      <point x="451" y="-154" type="line"/>
      <point x="440" y="-145"/>
      <point x="424" y="-135" type="qcurve" smooth="yes"/>
      <point x="396" y="-118" type="line"/>
      <point x="364" y="-105" type="line"/>
      <point x="348" y="-100"/>
      <point x="325" y="-97" type="qcurve"/>
      <point x="282" y="-95" type="line"/>
      <point x="242" y="-101" type="line"/>
      <point x="207" y="-112" type="line"/>
      <point x="194" y="-118"/>
      <point x="175" y="-128" type="qcurve" smooth="yes"/>
      <point x="147" y="-143" type="line"/>
      <point x="133" y="-152" type="line"/>
      <point x="219" y="-963" type="line"/>
      <point x="219" y="-1009" type="line"/>
      <point x="206" y="-1087" type="line"/>
      <point x="202" y="-1102"/>
      <point x="194" y="-1121" type="qcurve"/>
      <point x="189" y="-1135"/>
      <point x="181" y="-1152" type="qcurve" smooth="yes"/>
      <point x="174" y="-1167"/>
      <point x="168" y="-1178" type="qcurve"/>
      <point x="159" y="-1193"/>
      <point x="150" y="-1201" type="qcurve"/>
      <point x="150" y="-1186" type="line"/>
      <point x="74" y="-525" type="line" smooth="yes"/>
      <point x="72" y="-506"/>
      <point x="71" y="-491" type="qcurve" smooth="yes"/>
      <point x="69" y="-464"/>
      <point x="67" y="-442" type="qcurve"/>
      <point x="55" y="-177" type="line"/>
      <point x="76" y="-107" type="line"/>
      <point x="91" y="-76" type="line"/>
      <point x="110" y="-49" type="line" smooth="yes"/>
      <point x="118" y="-37"/>
      <point x="132" y="-24" type="qcurve"/>
      <point x="141" y="-15"/>
      <point x="153" y="-5" type="qcurve" smooth="yes"/>
      <point x="166" y="6"/>
      <point x="181" y="17" type="qcurve"/>
      <point x="194" y="24"/>
      <point x="209" y="36" type="qcurve"/>
      <point x="224" y="41"/>
      <point x="240" y="51" type="qcurve"/>
      <point x="377" y="97" type="line"/>
      <point x="466" y="147" type="line"/>
      <point x="542" y="207" type="line"/>
      <point x="565" y="230" type="line" smooth="yes"/>
      <point x="576" y="241"/>
      <point x="582" y="259" type="qcurve"/>
      <point x="586" y="277"/>
      <point x="586" y="324" type="qcurve"/>
      <point x="584" y="339" type="line"/>
      <point x="584" y="345" type="line"/>
      <point x="569" y="421" type="line"/>
      <point x="485" y="613" type="line"/>
      <point x="415" y="727" type="line"/>
      <point x="407" y="739"/>
      <point x="396" y="754" type="qcurve"/>
      <point x="389" y="767"/>
      <point x="377" y="780" type="qcurve"/>
      <point x="370" y="793"/>
      <point x="358" y="807" type="qcurve"/>
      <point x="350" y="819"/>
      <point x="339" y="834" type="qcurve" smooth="yes"/>
      <point x="320" y="860" type="line"/>
      <point x="310" y="870"/>
      <point x="299" y="887" type="qcurve"/>
      <point x="289" y="897"/>
      <point x="278" y="912" type="qcurve"/>
      <point x="257" y="936" type="line"/>
      <point x="247" y="946"/>
      <point x="236" y="961" type="qcurve"/>
      <point x="213" y="984" type="line"/>
      <point x="278" y="1150" type="line"/>
      <point x="284" y="1164"/>
      <point x="289" y="1184" type="qcurve"/>
      <point x="296" y="1198"/>
      <point x="303" y="1216" type="qcurve"/>
      <point x="313" y="1228"/>
      <point x="329" y="1235" type="qcurve" smooth="yes"/>
      <point x="1243" y="1654" type="line"/>
      <point x="1256" y="1659"/>
      <point x="1273" y="1669" type="qcurve"/>
    </contour>
  </outline>
</glyph>
<glyph name="uniFCBA" format="2">
  <advance width="1212"/>
  <unicode hex="FCBA"/>
  <outline>
    <contour>
      <point x="738" y="1247" type="line"/>
      <point x="809" y="1247" type="line"/>
      <point x="870" y="1237" type="line"/>
      <point x="923" y="1220" type="line"/>
      <point x="971" y="1197" type="line"/>
      <point x="1030" y="1150" type="line"/>
      <point x="1041" y="1137" type="line"/>
      <point x="862" y="1137" type="line"/>
      <point x="857" y="1134" type="line"/>
      <point x="830" y="1134" type="line"/>
      <point x="824" y="1132" type="line"/>
      <point x="638" y="1108" type="line"/>
      <point x="529" y="1077" type="line"/>
      <point x="523" y="1070" type="line"/>
      <point x="541" y="995" type="line"/>
      <point x="573" y="923" type="line"/>
      <point x="615" y="858" type="line"/>
      <point x="662" y="803" type="line"/>
      <point x="719" y="754" type="line"/>
      <point x="729" y="749"/>
      <point x="742" y="748" type="qcurve"/>
      <point x="1157" y="860" type="line"/>
      <point x="1182" y="870" type="line"/>
      <point x="1179" y="858"/>
      <point x="1172" y="845" type="qcurve" smooth="yes"/>
      <point x="1125" y="754" type="line"/>
      <point x="1119" y="744"/>
      <point x="1112" y="733" type="qcurve"/>
      <point x="331" y="529" type="line"/>
      <point x="348" y="520" type="line"/>
      <point x="948" y="348" type="line"/>
      <point x="1142" y="318" type="line"/>
      <point x="1056" y="173" type="line"/>
      <point x="860" y="185" type="line"/>
      <point x="668" y="168" type="line"/>
      <point x="181" y="23" type="line"/>
      <point x="29" y="0" type="line"/>
      <point x="0" y="0" type="line"/>
      <point x="0" y="171" type="line"/>
      <point x="46" y="171" type="line"/>
      <point x="204" y="185" type="line"/>
      <point x="527" y="284" type="line" smooth="yes"/>
      <point x="534" y="286"/>
      <point x="541" y="291" type="qcurve"/>
      <point x="76" y="436" type="line"/>
      <point x="66" y="438"/>
      <point x="63" y="449" type="qcurve"/>
      <point x="105" y="548" type="line"/>
      <point x="118" y="571" type="line"/>
      <point x="135" y="588" type="line"/>
      <point x="158" y="601" type="line"/>
      <point x="520" y="695" type="line"/>
      <point x="530" y="698"/>
      <point x="541" y="704" type="qcurve"/>
      <point x="485" y="790" type="line"/>
      <point x="453" y="862" type="line"/>
      <point x="445" y="889" type="line"/>
      <point x="438" y="952" type="line"/>
      <point x="443" y="1016" type="line"/>
      <point x="461" y="1070" type="line"/>
      <point x="485" y="1115" type="line"/>
      <point x="501" y="1134" type="line" smooth="yes"/>
      <point x="509" y="1144"/>
      <point x="518" y="1153" type="qcurve"/>
      <point x="581" y="1195" type="line"/>
      <point x="653" y="1228" type="line"/>
    </contour>
    <contour>
      <point x="466" y="-254"/>
      <point x="373" y="-345" type="qcurve"/>
      <point x="424" y="-419"/>
      <point x="484" y="-457" type="qcurve"/>
      <point x="590" y="-349"/>
      <point x="595" y="-346" type="qcurve"/>
      <point x="593" y="-344" type="line"/>
      <point x="537" y="-298"/>
      <point x="490" y="-245"/>
      <point x="476" y="-242" type="qcurve"/>
    </contour>
  </outline>
</glyph>
<glyph name="uniFCCA" format="2">
  <advance width="1183"/>
  <unicode hex="FCCA"/>
  <outline>
    <contour>
      <point x="602" y="1489"/>
      <point x="601" y="1482" type="qcurve"/>
      <point x="602" y="1478"/>
      <point x="603" y="1473" type="qcurve"/>
      <point x="605" y="1465"/>
      <point x="607" y="1459" type="qcurve"/>
      <point x="608" y="1455"/>
      <point x="610" y="1449" type="qcurve"/>
      <point x="612" y="1438" type="line"/>
      <point x="614" y="1433"/>
      <point x="615" y="1427" type="qcurve"/>
      <point x="617" y="1422"/>
      <point x="618" y="1415" type="qcurve"/>
      <point x="620" y="1410"/>
      <point x="620" y="1405" type="qcurve"/>
      <point x="623" y="1394" type="line"/>
      <point x="624" y="1389"/>
      <point x="626" y="1383" type="qcurve"/>
      <point x="627" y="1378"/>
      <point x="629" y="1372" type="qcurve"/>
      <point x="631" y="1361" type="line"/>
      <point x="633" y="1356"/>
      <point x="634" y="1349" type="qcurve"/>
      <point x="636" y="1344"/>
      <point x="637" y="1341" type="qcurve"/>
      <point x="639" y="1334"/>
      <point x="640" y="1328" type="qcurve" smooth="yes"/>
      <point x="642" y="1317" type="line" smooth="yes"/>
      <point x="643" y="1312"/>
      <point x="644" y="1309" type="qcurve"/>
      <point x="646" y="1302"/>
      <point x="647" y="1297" type="qcurve"/>
      <point x="639" y="1289" type="line" smooth="yes"/>
      <point x="636" y="1286"/>
      <point x="632" y="1283" type="qcurve"/>
      <point x="630" y="1280"/>
      <point x="624" y="1276" type="qcurve"/>
      <point x="622" y="1273"/>
      <point x="618" y="1270" type="qcurve" smooth="yes"/>
      <point x="614" y="1267"/>
      <point x="610" y="1263" type="qcurve"/>
      <point x="609" y="1256" type="line"/>
      <point x="610" y="1251" type="line"/>
      <point x="610" y="1238" type="line"/>
      <point x="611" y="1231" type="line"/>
      <point x="611" y="1225" type="line"/>
      <point x="612" y="1218" type="line"/>
      <point x="612" y="1204" type="line"/>
      <point x="613" y="1201" type="line"/>
      <point x="613" y="1188" type="line"/>
      <point x="614" y="1186" type="line"/>
      <point x="614" y="1172" type="line"/>
      <point x="615" y="1166" type="line"/>
      <point x="615" y="1159" type="line"/>
      <point x="616" y="1153" type="line"/>
      <point x="616" y="1139" type="line"/>
      <point x="617" y="1136" type="line"/>
      <point x="617" y="1123" type="line"/>
      <point x="618" y="1121" type="line"/>
      <point x="618" y="1108" type="line"/>
      <point x="619" y="1104"/>
      <point x="619" y="1095" type="qcurve"/>
      <point x="620" y="1082" type="line"/>
      <point x="620" y="1056" type="line"/>
      <point x="621" y="1051"/>
      <point x="621" y="1043" type="qcurve"/>
      <point x="622" y="1039"/>
      <point x="622" y="1031" type="qcurve"/>
      <point x="623" y="1017" type="line"/>
      <point x="623" y="1009" type="line"/>
      <point x="624" y="1007" type="line"/>
      <point x="624" y="992" type="line"/>
      <point x="625" y="985" type="line"/>
      <point x="625" y="978" type="line"/>
      <point x="626" y="973"/>
      <point x="626" y="966" type="qcurve"/>
      <point x="627" y="953" type="line"/>
      <point x="627" y="944" type="line"/>
      <point x="628" y="942" type="line"/>
      <point x="628" y="927" type="line"/>
      <point x="629" y="920" type="line"/>
      <point x="629" y="914" type="line"/>
      <point x="630" y="909"/>
      <point x="630" y="901" type="qcurve" smooth="yes"/>
      <point x="630" y="894" type="line"/>
      <point x="631" y="891" type="line"/>
      <point x="631" y="878" type="line"/>
      <point x="632" y="876" type="line"/>
      <point x="632" y="862" type="line"/>
      <point x="633" y="856" type="line"/>
      <point x="633" y="849" type="line"/>
      <point x="634" y="843"/>
      <point x="634" y="831"/>
      <point x="635" y="824" type="qcurve"/>
      <point x="635" y="814" type="line"/>
      <point x="636" y="811" type="line"/>
      <point x="636" y="798" type="line"/>
      <point x="635" y="792" type="line"/>
      <point x="635" y="785" type="line" smooth="yes"/>
      <point x="635" y="780"/>
      <point x="634" y="772" type="qcurve"/>
      <point x="633" y="767"/>
      <point x="632" y="760" type="qcurve" smooth="yes"/>
      <point x="631" y="754"/>
      <point x="630" y="750" type="qcurve"/>
      <point x="629" y="743"/>
      <point x="627" y="738" type="qcurve"/>
      <point x="627" y="733"/>
      <point x="624" y="725" type="qcurve"/>
      <point x="621" y="715" type="line"/>
      <point x="621" y="711"/>
      <point x="618" y="704" type="qcurve"/>
      <point x="617" y="700"/>
      <point x="615" y="695" type="qcurve"/>
      <point x="613" y="691"/>
      <point x="611" y="684" type="qcurve"/>
      <point x="606" y="675" type="line"/>
      <point x="604" y="671"/>
      <point x="602" y="665" type="qcurve"/>
      <point x="600" y="662"/>
      <point x="599" y="659" type="qcurve"/>
      <point x="596" y="654"/>
      <point x="593" y="650" type="qcurve"/>
      <point x="590" y="644"/>
      <point x="587" y="640" type="qcurve"/>
      <point x="576" y="623" type="line"/>
      <point x="574" y="619"/>
      <point x="570" y="616" type="qcurve"/>
      <point x="567" y="612"/>
      <point x="565" y="609" type="qcurve"/>
      <point x="561" y="605"/>
      <point x="558" y="601" type="qcurve"/>
      <point x="555" y="599"/>
      <point x="551" y="594" type="qcurve"/>
      <point x="537" y="581" type="line"/>
      <point x="534" y="579"/>
      <point x="532" y="578" type="qcurve"/>
      <point x="526" y="573"/>
      <point x="522" y="568" type="qcurve"/>
      <point x="518" y="566"/>
      <point x="514" y="562" type="qcurve"/>
      <point x="510" y="560"/>
      <point x="506" y="558" type="qcurve"/>
      <point x="501" y="555"/>
      <point x="499" y="553" type="qcurve"/>
      <point x="493" y="550"/>
      <point x="489" y="546" type="qcurve"/>
      <point x="480" y="542" type="line"/>
      <point x="476" y="539"/>
      <point x="470" y="538" type="qcurve"/>
      <point x="466" y="536"/>
      <point x="461" y="533" type="qcurve"/>
      <point x="451" y="529" type="line"/>
      <point x="447" y="528"/>
      <point x="442" y="525" type="qcurve"/>
      <point x="438" y="525"/>
      <point x="434" y="522" type="qcurve"/>
      <point x="431" y="522" type="line"/>
      <point x="427" y="521"/>
      <point x="423" y="520" type="qcurve"/>
      <point x="421" y="519" type="line"/>
      <point x="416" y="519"/>
      <point x="410" y="516" type="qcurve"/>
      <point x="398" y="514" type="line"/>
      <point x="401" y="512"/>
      <point x="406" y="510" type="qcurve"/>
      <point x="410" y="508"/>
      <point x="416" y="506" type="qcurve"/>
      <point x="421" y="504"/>
      <point x="424" y="503" type="qcurve"/>
      <point x="430" y="500"/>
      <point x="436" y="499" type="qcurve"/>
      <point x="440" y="497"/>
      <point x="446" y="495" type="qcurve"/>
      <point x="450" y="493"/>
      <point x="456" y="491" type="qcurve"/>
      <point x="465" y="487" type="line"/>
      <point x="468" y="486"/>
      <point x="473" y="484" type="qcurve"/>
      <point x="476" y="483" type="line"/>
      <point x="481" y="482"/>
      <point x="485" y="480" type="qcurve"/>
      <point x="490" y="479"/>
      <point x="496" y="476" type="qcurve"/>
      <point x="500" y="475"/>
      <point x="506" y="473" type="qcurve"/>
      <point x="510" y="471"/>
      <point x="516" y="469" type="qcurve"/>
      <point x="521" y="468"/>
      <point x="526" y="465" type="qcurve"/>
      <point x="531" y="464"/>
      <point x="537" y="462" type="qcurve"/>
      <point x="541" y="461"/>
      <point x="546" y="459" type="qcurve"/>
      <point x="551" y="458"/>
      <point x="557" y="455" type="qcurve"/>
      <point x="562" y="454"/>
      <point x="567" y="451" type="qcurve"/>
      <point x="578" y="448" type="line"/>
      <point x="584" y="446"/>
      <point x="588" y="445" type="qcurve"/>
      <point x="592" y="443"/>
      <point x="598" y="442" type="qcurve"/>
      <point x="603" y="440"/>
      <point x="609" y="439" type="qcurve"/>
      <point x="613" y="437"/>
      <point x="619" y="435" type="qcurve"/>
      <point x="624" y="433"/>
      <point x="629" y="432" type="qcurve"/>
      <point x="633" y="430"/>
      <point x="638" y="429" type="qcurve"/>
      <point x="650" y="425" type="line"/>
      <point x="655" y="423"/>
      <point x="661" y="423" type="qcurve"/>
      <point x="665" y="421"/>
      <point x="671" y="419" type="qcurve"/>
      <point x="681" y="416" type="line"/>
      <point x="686" y="414"/>
      <point x="693" y="413" type="qcurve"/>
      <point x="698" y="411"/>
      <point x="702" y="409" type="qcurve"/>
      <point x="707" y="408"/>
      <point x="713" y="406" type="qcurve"/>
      <point x="724" y="404" type="line"/>
      <point x="730" y="402"/>
      <point x="736" y="401" type="qcurve"/>
      <point x="746" y="397" type="line"/>
      <point x="751" y="396"/>
      <point x="757" y="394" type="qcurve"/>
      <point x="761" y="393"/>
      <point x="767" y="391" type="qcurve"/>
      <point x="778" y="388" type="line"/>
      <point x="782" y="386"/>
      <point x="789" y="385" type="qcurve"/>
      <point x="793" y="383"/>
      <point x="799" y="383" type="qcurve"/>
      <point x="803" y="381"/>
      <point x="811" y="380" type="qcurve"/>
      <point x="815" y="378"/>
      <point x="821" y="377" type="qcurve"/>
      <point x="825" y="375"/>
      <point x="833" y="374" type="qcurve"/>
      <point x="838" y="371"/>
      <point x="843" y="371" type="qcurve"/>
      <point x="847" y="369"/>
      <point x="854" y="368" type="qcurve"/>
      <point x="858" y="366"/>
      <point x="865" y="365" type="qcurve"/>
      <point x="869" y="363"/>
      <point x="876" y="363" type="qcurve"/>
      <point x="886" y="360" type="line"/>
      <point x="890" y="359"/>
      <point x="897" y="357" type="qcurve" smooth="yes"/>
      <point x="908" y="354" type="line" smooth="yes"/>
      <point x="912" y="353"/>
      <point x="919" y="351" type="qcurve"/>
      <point x="924" y="350"/>
      <point x="930" y="348" type="qcurve"/>
      <point x="941" y="346" type="line"/>
      <point x="945" y="344"/>
      <point x="953" y="344" type="qcurve"/>
      <point x="957" y="342"/>
      <point x="963" y="341" type="qcurve"/>
      <point x="968" y="340"/>
      <point x="974" y="338" type="qcurve"/>
      <point x="986" y="336" type="line"/>
      <point x="991" y="333"/>
      <point x="996" y="333" type="qcurve"/>
      <point x="1001" y="331"/>
      <point x="1008" y="330" type="qcurve"/>
      <point x="1013" y="329"/>
      <point x="1016" y="328" type="qcurve"/>
      <point x="1023" y="326"/>
      <point x="1030" y="325" type="qcurve"/>
      <point x="1035" y="323"/>
      <point x="1041" y="323" type="qcurve"/>
      <point x="1046" y="322"/>
      <point x="1052" y="320" type="qcurve"/>
      <point x="1063" y="318" type="line"/>
      <point x="1068" y="316"/>
      <point x="1074" y="315" type="qcurve"/>
      <point x="1079" y="314"/>
      <point x="1086" y="312" type="qcurve"/>
      <point x="1097" y="310" type="line" smooth="yes"/>
      <point x="1102" y="309"/>
      <point x="1108" y="307" type="qcurve"/>
      <point x="1131" y="303" type="line"/>
      <point x="1136" y="301"/>
      <point x="1142" y="301" type="qcurve"/>
      <point x="1150" y="299" type="line"/>
      <point x="1149" y="295" type="line"/>
      <point x="1147" y="291"/>
      <point x="1143" y="287" type="qcurve"/>
      <point x="1141" y="282"/>
      <point x="1137" y="279" type="qcurve"/>
      <point x="1135" y="275"/>
      <point x="1132" y="271" type="qcurve"/>
      <point x="1130" y="266"/>
      <point x="1126" y="263" type="qcurve"/>
      <point x="1124" y="259"/>
      <point x="1121" y="254" type="qcurve"/>
      <point x="1118" y="251"/>
      <point x="1114" y="246" type="qcurve"/>
      <point x="1112" y="242"/>
      <point x="1110" y="237" type="qcurve"/>
      <point x="1107" y="235"/>
      <point x="1104" y="229" type="qcurve"/>
      <point x="1101" y="226"/>
      <point x="1098" y="222" type="qcurve"/>
      <point x="1096" y="219"/>
      <point x="1095" y="217" type="qcurve"/>
      <point x="1091" y="210"/>
      <point x="1087" y="206" type="qcurve"/>
      <point x="1085" y="203"/>
      <point x="1081" y="198" type="qcurve"/>
      <point x="1079" y="194"/>
      <point x="1075" y="189" type="qcurve"/>
      <point x="1073" y="186"/>
      <point x="1070" y="182" type="qcurve"/>
      <point x="1068" y="178"/>
      <point x="1067" y="176" type="qcurve"/>
      <point x="1062" y="169"/>
      <point x="1058" y="166" type="qcurve"/>
      <point x="1056" y="162"/>
      <point x="1053" y="157" type="qcurve"/>
      <point x="1052" y="154" type="line"/>
      <point x="1043" y="155" type="line"/>
      <point x="1040" y="155"/>
      <point x="1035" y="156" type="qcurve"/>
      <point x="1007" y="160" type="line"/>
      <point x="1004" y="160"/>
      <point x="999" y="161" type="qcurve"/>
      <point x="994" y="161" type="line"/>
      <point x="989" y="162"/>
      <point x="981" y="163" type="qcurve"/>
      <point x="975" y="163" type="line"/>
      <point x="970" y="164" type="line"/>
      <point x="964" y="164" type="line"/>
      <point x="958" y="165" type="line"/>
      <point x="945" y="165" type="line"/>
      <point x="943" y="166" type="line"/>
      <point x="930" y="166" type="line"/>
      <point x="917" y="167" type="line"/>
      <point x="849" y="167" type="line"/>
      <point x="843" y="166"/>
      <point x="837" y="166" type="qcurve" smooth="yes"/>
      <point x="822" y="166" type="line"/>
      <point x="814" y="165" type="line"/>
      <point x="810" y="165" type="line"/>
      <point x="805" y="164"/>
      <point x="798" y="164" type="qcurve"/>
      <point x="793" y="163"/>
      <point x="784" y="163" type="qcurve"/>
      <point x="776" y="162" type="line"/>
      <point x="772" y="162" type="line"/>
      <point x="760" y="160" type="line"/>
      <point x="755" y="160"/>
      <point x="750" y="159" type="qcurve"/>
      <point x="747" y="159" type="line"/>
      <point x="736" y="157" type="line"/>
      <point x="730" y="157"/>
      <point x="722" y="155" type="qcurve"/>
      <point x="717" y="154" type="line"/>
      <point x="710" y="154" type="line"/>
      <point x="706" y="153"/>
      <point x="699" y="152" type="qcurve"/>
      <point x="694" y="151"/>
      <point x="686" y="150" type="qcurve"/>
      <point x="681" y="150"/>
      <point x="676" y="148" type="qcurve"/>
      <point x="672" y="148"/>
      <point x="664" y="146" type="qcurve"/>
      <point x="659" y="146"/>
      <point x="652" y="144" type="qcurve"/>
      <point x="640" y="142" type="line"/>
      <point x="607" y="134" type="line"/>
      <point x="602" y="134"/>
      <point x="596" y="131" type="qcurve"/>
      <point x="576" y="128" type="line"/>
      <point x="574" y="127" type="line"/>
      <point x="570" y="126"/>
      <point x="562" y="124" type="qcurve"/>
      <point x="552" y="121" type="line"/>
      <point x="548" y="120"/>
      <point x="541" y="118" type="qcurve" smooth="yes"/>
      <point x="520" y="112" type="line"/>
      <point x="515" y="111"/>
      <point x="509" y="109" type="qcurve"/>
      <point x="504" y="107"/>
      <point x="498" y="107" type="qcurve"/>
      <point x="494" y="106"/>
      <point x="488" y="103" type="qcurve"/>
      <point x="483" y="103"/>
      <point x="477" y="100" type="qcurve"/>
      <point x="472" y="99"/>
      <point x="466" y="97" type="qcurve" smooth="yes"/>
      <point x="448" y="91" type="line"/>
      <point x="445" y="91" type="line"/>
      <point x="441" y="90"/>
      <point x="437" y="89" type="qcurve"/>
      <point x="423" y="85" type="line"/>
      <point x="418" y="84"/>
      <point x="414" y="81" type="qcurve"/>
      <point x="409" y="81"/>
      <point x="404" y="78" type="qcurve"/>
      <point x="392" y="75" type="line"/>
      <point x="387" y="74"/>
      <point x="383" y="71" type="qcurve"/>
      <point x="378" y="71"/>
      <point x="371" y="69" type="qcurve"/>
      <point x="367" y="69"/>
      <point x="364" y="66" type="qcurve"/>
      <point x="361" y="66" type="line"/>
      <point x="356" y="65"/>
      <point x="351" y="62" type="qcurve"/>
      <point x="346" y="62"/>
      <point x="340" y="59" type="qcurve"/>
      <point x="336" y="59"/>
      <point x="332" y="56" type="qcurve"/>
      <point x="329" y="56" type="line"/>
      <point x="324" y="54"/>
      <point x="319" y="53" type="qcurve"/>
      <point x="315" y="52"/>
      <point x="310" y="50" type="qcurve"/>
      <point x="298" y="47" type="line"/>
      <point x="293" y="46"/>
      <point x="285" y="43" type="qcurve"/>
      <point x="281" y="42"/>
      <point x="274" y="40" type="qcurve"/>
      <point x="271" y="39"/>
      <point x="270" y="39" type="qcurve"/>
      <point x="261" y="36"/>
      <point x="255" y="35" type="qcurve" smooth="yes"/>
      <point x="249" y="34"/>
      <point x="245" y="31" type="qcurve"/>
      <point x="232" y="30" type="line"/>
      <point x="228" y="29"/>
      <point x="221" y="27" type="qcurve" smooth="yes"/>
      <point x="210" y="24" type="line" smooth="yes"/>
      <point x="206" y="23"/>
      <point x="204" y="22" type="qcurve"/>
      <point x="195" y="20"/>
      <point x="187" y="19" type="qcurve"/>
      <point x="177" y="16" type="line"/>
      <point x="172" y="15"/>
      <point x="170" y="15" type="qcurve"/>
      <point x="160" y="13"/>
      <point x="154" y="11" type="qcurve"/>
      <point x="143" y="10" type="line"/>
      <point x="138" y="10"/>
      <point x="130" y="8" type="qcurve"/>
      <point x="125" y="8"/>
      <point x="119" y="6" type="qcurve"/>
      <point x="115" y="6"/>
      <point x="106" y="5" type="qcurve"/>
      <point x="101" y="4"/>
      <point x="94" y="3" type="qcurve"/>
      <point x="89" y="2" type="line"/>
      <point x="82" y="2" type="line"/>
      <point x="75" y="1" type="line"/>
      <point x="69" y="1" type="line"/>
      <point x="60" y="0" type="line"/>
      <point x="1" y="0" type="line"/>
      <point x="0" y="9" type="line"/>
      <point x="0" y="171" type="line"/>
      <point x="14" y="171" type="line"/>
      <point x="16" y="170" type="line"/>
      <point x="41" y="170" type="line"/>
      <point x="43" y="169" type="line"/>
      <point x="99" y="169" type="line"/>
      <point x="123" y="170" type="line"/>
      <point x="126" y="171" type="line"/>
      <point x="138" y="171" type="line"/>
      <point x="164" y="174" type="line"/>
      <point x="170" y="174"/>
      <point x="182" y="176"/>
      <point x="188" y="177" type="qcurve"/>
      <point x="201" y="178" type="line"/>
      <point x="236" y="184" type="line"/>
      <point x="242" y="186"/>
      <point x="249" y="186" type="qcurve"/>
      <point x="253" y="187"/>
      <point x="260" y="188" type="qcurve"/>
      <point x="263" y="188"/>
      <point x="265" y="189" type="qcurve"/>
      <point x="275" y="191"/>
      <point x="283" y="193" type="qcurve" smooth="yes"/>
      <point x="305" y="198" type="line" smooth="yes"/>
      <point x="309" y="199"/>
      <point x="311" y="200" type="qcurve"/>
      <point x="320" y="202"/>
      <point x="326" y="204" type="qcurve"/>
      <point x="331" y="205"/>
      <point x="336" y="206" type="qcurve"/>
      <point x="342" y="208"/>
      <point x="346" y="209" type="qcurve"/>
      <point x="351" y="210"/>
      <point x="356" y="211" type="qcurve"/>
      <point x="364" y="213"/>
      <point x="370" y="215" type="qcurve"/>
      <point x="374" y="216"/>
      <point x="381" y="218" type="qcurve" smooth="yes"/>
      <point x="391" y="221" type="line"/>
      <point x="396" y="223"/>
      <point x="403" y="224" type="qcurve"/>
      <point x="407" y="227"/>
      <point x="413" y="226" type="qcurve"/>
      <point x="416" y="228"/>
      <point x="423" y="230" type="qcurve"/>
      <point x="428" y="231"/>
      <point x="436" y="234" type="qcurve"/>
      <point x="439" y="235"/>
      <point x="442" y="236" type="qcurve"/>
      <point x="449" y="238"/>
      <point x="456" y="239" type="qcurve"/>
      <point x="461" y="241"/>
      <point x="466" y="242" type="qcurve" smooth="yes"/>
      <point x="471" y="243"/>
      <point x="474" y="245" type="qcurve"/>
      <point x="481" y="248"/>
      <point x="487" y="248" type="qcurve"/>
      <point x="492" y="249"/>
      <point x="498" y="252" type="qcurve"/>
      <point x="504" y="252"/>
      <point x="509" y="255" type="qcurve"/>
      <point x="520" y="257" type="line" smooth="yes"/>
      <point x="525" y="258"/>
      <point x="530" y="261" type="qcurve"/>
      <point x="542" y="263" type="line"/>
      <point x="547" y="264"/>
      <point x="552" y="265" type="qcurve"/>
      <point x="558" y="267"/>
      <point x="563" y="268" type="qcurve"/>
      <point x="568" y="268"/>
      <point x="575" y="271" type="qcurve" smooth="yes"/>
      <point x="580" y="273" type="line"/>
      <point x="575" y="274" type="line"/>
      <point x="571" y="275"/>
      <point x="566" y="276" type="qcurve"/>
      <point x="559" y="278"/>
      <point x="555" y="279" type="qcurve"/>
      <point x="549" y="281"/>
      <point x="542" y="283" type="qcurve"/>
      <point x="537" y="285"/>
      <point x="531" y="286" type="qcurve"/>
      <point x="522" y="289" type="line"/>
      <point x="517" y="289"/>
      <point x="511" y="292" type="qcurve"/>
      <point x="506" y="293"/>
      <point x="500" y="295" type="qcurve" smooth="yes"/>
      <point x="497" y="296"/>
      <point x="492" y="298" type="qcurve"/>
      <point x="479" y="302" type="line"/>
      <point x="474" y="304"/>
      <point x="468" y="305" type="qcurve"/>
      <point x="465" y="306"/>
      <point x="461" y="307" type="qcurve"/>
      <point x="447" y="311" type="line"/>
      <point x="441" y="312"/>
      <point x="437" y="315" type="qcurve"/>
      <point x="432" y="315"/>
      <point x="427" y="318" type="qcurve"/>
      <point x="422" y="319"/>
      <point x="420" y="320" type="qcurve"/>
      <point x="411" y="322"/>
      <point x="406" y="325" type="qcurve"/>
      <point x="401" y="326"/>
      <point x="400" y="326" type="qcurve"/>
      <point x="390" y="328"/>
      <point x="385" y="331" type="qcurve"/>
      <point x="375" y="334" type="line"/>
      <point x="369" y="335"/>
      <point x="364" y="338" type="qcurve"/>
      <point x="354" y="341" type="line"/>
      <point x="351" y="342"/>
      <point x="346" y="344" type="qcurve"/>
      <point x="333" y="347" type="line"/>
      <point x="328" y="348"/>
      <point x="324" y="351" type="qcurve"/>
      <point x="319" y="352"/>
      <point x="312" y="354" type="qcurve"/>
      <point x="308" y="356"/>
      <point x="303" y="358" type="qcurve"/>
      <point x="292" y="361" type="line" smooth="yes"/>
      <point x="288" y="362"/>
      <point x="286" y="363" type="qcurve"/>
      <point x="276" y="365"/>
      <point x="271" y="368" type="qcurve"/>
      <point x="266" y="369"/>
      <point x="262" y="371" type="qcurve"/>
      <point x="256" y="372"/>
      <point x="251" y="375" type="qcurve"/>
      <point x="240" y="378" type="line"/>
      <point x="236" y="380"/>
      <point x="229" y="382" type="qcurve"/>
      <point x="225" y="383"/>
      <point x="220" y="385" type="qcurve"/>
      <point x="209" y="388" type="line"/>
      <point x="206" y="389"/>
      <point x="201" y="391" type="qcurve"/>
      <point x="199" y="392" type="line"/>
      <point x="195" y="393"/>
      <point x="189" y="396" type="qcurve"/>
      <point x="179" y="399" type="line"/>
      <point x="175" y="401"/>
      <point x="168" y="403" type="qcurve"/>
      <point x="164" y="404"/>
      <point x="159" y="406" type="qcurve"/>
      <point x="154" y="407"/>
      <point x="148" y="410" type="qcurve"/>
      <point x="143" y="412"/>
      <point x="138" y="413" type="qcurve"/>
      <point x="135" y="415"/>
      <point x="128" y="418" type="qcurve"/>
      <point x="124" y="420"/>
      <point x="122" y="420" type="qcurve"/>
      <point x="114" y="423"/>
      <point x="108" y="424" type="qcurve"/>
      <point x="104" y="426"/>
      <point x="102" y="427" type="qcurve"/>
      <point x="95" y="430"/>
      <point x="89" y="432" type="qcurve"/>
      <point x="85" y="434"/>
      <point x="79" y="436" type="qcurve"/>
      <point x="69" y="441" type="line"/>
      <point x="65" y="442"/>
      <point x="60" y="444" type="qcurve"/>
      <point x="51" y="449" type="line"/>
      <point x="46" y="451"/>
      <point x="47" y="457" type="qcurve"/>
      <point x="49" y="461"/>
      <point x="50" y="467" type="qcurve"/>
      <point x="52" y="471"/>
      <point x="55" y="476" type="qcurve"/>
      <point x="56" y="480"/>
      <point x="58" y="484" type="qcurve"/>
      <point x="61" y="489"/>
      <point x="63" y="496" type="qcurve"/>
      <point x="68" y="504" type="line"/>
      <point x="69" y="509"/>
      <point x="71" y="514" type="qcurve"/>
      <point x="73" y="518"/>
      <point x="75" y="524" type="qcurve"/>
      <point x="84" y="543" type="line" smooth="yes"/>
      <point x="86" y="547"/>
      <point x="88" y="553" type="qcurve"/>
      <point x="96" y="572" type="line"/>
      <point x="98" y="576"/>
      <point x="100" y="581" type="qcurve"/>
      <point x="105" y="591" type="line"/>
      <point x="107" y="596"/>
      <point x="109" y="602" type="qcurve"/>
      <point x="120" y="602" type="line"/>
      <point x="125" y="603"/>
      <point x="133" y="603" type="qcurve"/>
      <point x="142" y="604" type="line"/>
      <point x="146" y="604" type="line"/>
      <point x="152" y="605" type="line"/>
      <point x="159" y="605" type="line"/>
      <point x="164" y="606"/>
      <point x="171" y="606" type="qcurve"/>
      <point x="180" y="607" type="line"/>
      <point x="184" y="607" type="line"/>
      <point x="196" y="609" type="line"/>
      <point x="202" y="609"/>
      <point x="208" y="610" type="qcurve"/>
      <point x="213" y="610"/>
      <point x="219" y="611" type="qcurve"/>
      <point x="222" y="611" type="line"/>
      <point x="233" y="613" type="line"/>
      <point x="241" y="613" type="line"/>
      <point x="246" y="614" type="line" smooth="yes"/>
      <point x="251" y="615"/>
      <point x="259" y="616" type="qcurve"/>
      <point x="265" y="617" type="line"/>
      <point x="271" y="617" type="line"/>
      <point x="284" y="619" type="line"/>
      <point x="289" y="620"/>
      <point x="295" y="620" type="qcurve"/>
      <point x="306" y="622" type="line"/>
      <point x="311" y="622"/>
      <point x="319" y="624" type="qcurve"/>
      <point x="330" y="626" type="line"/>
      <point x="334" y="626"/>
      <point x="341" y="628" type="qcurve"/>
      <point x="347" y="629"/>
      <point x="350" y="629" type="qcurve"/>
      <point x="359" y="630"/>
      <point x="365" y="632" type="qcurve"/>
      <point x="377" y="635" type="line" smooth="yes"/>
      <point x="381" y="636"/>
      <point x="388" y="637" type="qcurve"/>
      <point x="393" y="639"/>
      <point x="399" y="640" type="qcurve"/>
      <point x="404" y="642"/>
      <point x="410" y="642" type="qcurve"/>
      <point x="431" y="648" type="line"/>
      <point x="435" y="649"/>
      <point x="439" y="651" type="qcurve"/>
      <point x="442" y="651" type="line"/>
      <point x="446" y="653"/>
      <point x="450" y="654" type="qcurve"/>
      <point x="452" y="655" type="line"/>
      <point x="457" y="657"/>
      <point x="463" y="659" type="qcurve" smooth="yes"/>
      <point x="469" y="661" type="line"/>
      <point x="472" y="661" type="line"/>
      <point x="476" y="663"/>
      <point x="482" y="666" type="qcurve"/>
      <point x="487" y="668"/>
      <point x="497" y="672"/>
      <point x="501" y="675" type="qcurve"/>
      <point x="506" y="677"/>
      <point x="511" y="679" type="qcurve"/>
      <point x="515" y="681"/>
      <point x="517" y="683" type="qcurve"/>
      <point x="523" y="686"/>
      <point x="526" y="690" type="qcurve"/>
      <point x="531" y="692"/>
      <point x="535" y="696" type="qcurve" smooth="yes"/>
      <point x="538" y="699"/>
      <point x="542" y="701" type="qcurve"/>
      <point x="545" y="705"/>
      <point x="549" y="710" type="qcurve"/>
      <point x="551" y="712"/>
      <point x="553" y="715" type="qcurve"/>
      <point x="555" y="717" type="line"/>
      <point x="557" y="721"/>
      <point x="559" y="726" type="qcurve"/>
      <point x="562" y="730"/>
      <point x="562" y="737" type="qcurve" smooth="yes"/>
      <point x="562" y="750" type="line"/>
      <point x="561" y="754"/>
      <point x="561" y="763" type="qcurve"/>
      <point x="560" y="767"/>
      <point x="561" y="776" type="qcurve"/>
      <point x="560" y="780"/>
      <point x="560" y="788" type="qcurve"/>
      <point x="559" y="794"/>
      <point x="559" y="801" type="qcurve"/>
      <point x="558" y="806"/>
      <point x="558" y="814" type="qcurve"/>
      <point x="557" y="824" type="line"/>
      <point x="557" y="827" type="line"/>
      <point x="556" y="832"/>
      <point x="556" y="839" type="qcurve"/>
      <point x="555" y="852" type="line"/>
      <point x="555" y="856"/>
      <point x="554" y="862" type="qcurve"/>
      <point x="554" y="868"/>
      <point x="553" y="871" type="qcurve"/>
      <point x="553" y="882" type="line"/>
      <point x="550" y="909" type="line"/>
      <point x="550" y="916" type="line"/>
      <point x="548" y="941" type="line"/>
      <point x="548" y="947"/>
      <point x="547" y="954" type="qcurve"/>
      <point x="547" y="960"/>
      <point x="546" y="967" type="qcurve"/>
      <point x="544" y="988" type="line"/>
      <point x="544" y="997" type="line"/>
      <point x="543" y="1003" type="line"/>
      <point x="543" y="1013" type="line"/>
      <point x="542" y="1024" type="line"/>
      <point x="542" y="1039" type="line"/>
      <point x="541" y="1043" type="line"/>
      <point x="541" y="1052" type="line"/>
      <point x="540" y="1054" type="line"/>
      <point x="540" y="1062" type="line"/>
      <point x="539" y="1067" type="line"/>
      <point x="539" y="1079" type="line"/>
      <point x="537" y="1104" type="line"/>
      <point x="536" y="1107" type="line"/>
      <point x="536" y="1117" type="line"/>
      <point x="535" y="1119" type="line"/>
      <point x="535" y="1130" type="line"/>
      <point x="534" y="1132" type="line"/>
      <point x="534" y="1143" type="line"/>
      <point x="533" y="1145" type="line"/>
      <point x="533" y="1157" type="line"/>
      <point x="532" y="1171" type="line"/>
      <point x="532" y="1177"/>
      <point x="530" y="1183" type="qcurve"/>
      <point x="530" y="1196" type="line"/>
      <point x="527" y="1230" type="line"/>
      <point x="527" y="1236" type="line"/>
      <point x="526" y="1245" type="line"/>
      <point x="526" y="1249" type="line"/>
      <point x="524" y="1268" type="line"/>
      <point x="524" y="1274" type="line"/>
      <point x="522" y="1299" type="line"/>
      <point x="521" y="1303"/>
      <point x="522" y="1312" type="qcurve"/>
      <point x="520" y="1338" type="line"/>
      <point x="519" y="1342"/>
      <point x="519" y="1350" type="qcurve"/>
      <point x="518" y="1357" type="line"/>
      <point x="520" y="1361" type="line"/>
      <point x="523" y="1365"/>
      <point x="524" y="1370" type="qcurve"/>
      <point x="527" y="1373"/>
      <point x="530" y="1379" type="qcurve"/>
      <point x="532" y="1382"/>
      <point x="533" y="1384" type="qcurve"/>
      <point x="538" y="1391"/>
      <point x="540" y="1396" type="qcurve"/>
      <point x="550" y="1413" type="line"/>
      <point x="553" y="1416"/>
      <point x="555" y="1422" type="qcurve"/>
      <point x="561" y="1429" type="line"/>
      <point x="565" y="1439" type="line"/>
      <point x="568" y="1442"/>
      <point x="571" y="1447" type="qcurve"/>
      <point x="573" y="1450"/>
      <point x="575" y="1452" type="qcurve"/>
      <point x="579" y="1459"/>
      <point x="581" y="1465" type="qcurve"/>
      <point x="584" y="1468"/>
      <point x="586" y="1473" type="qcurve"/>
      <point x="589" y="1477"/>
      <point x="591" y="1482" type="qcurve"/>
      <point x="594" y="1484"/>
      <point x="596" y="1490" type="qcurve"/>
    </contour>
  </outline>
</glyph>
<glyph name="uniFEA4" format="2">
  <advance width="997"/>
  <unicode hex="FEA4"/>
  <anchor x="286" y="909" name="t.uni064B"/>
  <anchor x="385" y="-200" name="b.uni064D_1"/>
  <outline>
    <contour>
      <point x="270" y="592" type="line"/>
      <point x="272" y="592"/>
      <point x="275" y="593" type="qcurve"/>
      <point x="320" y="593" type="line"/>
      <point x="324" y="592" type="line"/>
      <point x="327" y="592" type="line"/>
      <point x="344" y="590" type="line"/>
      <point x="351" y="587"/>
      <point x="361" y="584" type="qcurve"/>
      <point x="365" y="582" type="line"/>
      <point x="382" y="578" type="line"/>
      <point x="386" y="576"/>
      <point x="391" y="574" type="qcurve" smooth="yes"/>
      <point x="396" y="572" type="line"/>
      <point x="404" y="570"/>
      <point x="415" y="564" type="qcurve"/>
      <point x="426" y="561" type="line"/>
      <point x="466" y="543" type="line"/>
      <point x="473" y="539"/>
      <point x="483" y="536" type="qcurve"/>
      <point x="494" y="531" type="line"/>
      <point x="498" y="528"/>
      <point x="505" y="525" type="qcurve"/>
      <point x="537" y="510" type="line"/>
      <point x="541" y="509" type="line"/>
      <point x="544" y="506" type="line"/>
      <point x="568" y="496" type="line"/>
      <point x="576" y="490"/>
      <point x="588" y="486" type="qcurve"/>
      <point x="592" y="483" type="line"/>
      <point x="604" y="478" type="line"/>
      <point x="608" y="476"/>
      <point x="614" y="474" type="qcurve"/>
      <point x="619" y="471" type="line"/>
      <point x="625" y="469"/>
      <point x="633" y="464" type="qcurve"/>
      <point x="638" y="462"/>
      <point x="644" y="460" type="qcurve"/>
      <point x="666" y="450" type="line"/>
      <point x="671" y="447"/>
      <point x="679" y="445" type="qcurve"/>
      <point x="706" y="434" type="line"/>
      <point x="709" y="432"/>
      <point x="714" y="431" type="qcurve"/>
      <point x="727" y="425" type="line"/>
      <point x="778" y="408" type="line"/>
      <point x="785" y="407"/>
      <point x="793" y="404" type="qcurve"/>
      <point x="799" y="402" type="line"/>
      <point x="804" y="401"/>
      <point x="810" y="399" type="qcurve"/>
      <point x="848" y="389" type="line"/>
      <point x="883" y="383" type="line"/>
      <point x="886" y="383" type="line"/>
      <point x="899" y="380" type="line"/>
      <point x="903" y="380" type="line"/>
      <point x="943" y="375" type="line"/>
      <point x="947" y="375" type="line"/>
      <point x="951" y="374" type="line"/>
      <point x="987" y="372" type="line"/>
      <point x="1003" y="372" type="line"/>
      <point x="1013" y="371" type="line"/>
      <point x="997" y="344" type="line"/>
      <point x="994" y="341"/>
      <point x="993" y="335" type="qcurve"/>
      <point x="987" y="327" type="line"/>
      <point x="959" y="280" type="line"/>
      <point x="952" y="266" type="line"/>
      <point x="940" y="246" type="line"/>
      <point x="935" y="241"/>
      <point x="933" y="232" type="qcurve"/>
      <point x="932" y="232"/>
      <point x="931" y="230" type="qcurve" smooth="yes"/>
      <point x="929" y="226" type="line"/>
      <point x="920" y="229"/>
      <point x="907" y="229" type="qcurve"/>
      <point x="901" y="231" type="line"/>
      <point x="898" y="231" type="line"/>
      <point x="894" y="232" type="line"/>
      <point x="887" y="232" type="line"/>
      <point x="883" y="233"/>
      <point x="877" y="233" type="qcurve"/>
      <point x="858" y="234" type="line"/>
      <point x="833" y="234" type="line"/>
      <point x="826" y="233"/>
      <point x="817" y="233" type="qcurve"/>
      <point x="814" y="232"/>
      <point x="810" y="232" type="qcurve" smooth="yes"/>
      <point x="807" y="232" type="line" smooth="yes"/>
      <point x="806" y="232"/>
      <point x="805" y="231" type="qcurve"/>
      <point x="800" y="231" type="line"/>
      <point x="797" y="230" type="line"/>
      <point x="783" y="229" type="line"/>
      <point x="777" y="227" type="line"/>
      <point x="770" y="227"/>
      <point x="760" y="226" type="qcurve"/>
      <point x="824" y="148"/>
      <point x="938" y="154" type="qcurve"/>
      <point x="945" y="153"/>
      <point x="956" y="153" type="qcurve" smooth="yes"/>
      <point x="979" y="153" type="line"/>
      <point x="983" y="152"/>
      <point x="987" y="154" type="qcurve"/>
      <point x="997" y="154" type="line"/>
      <point x="997" y="0" type="line"/>
      <point x="971" y="0" type="line" smooth="yes"/>
      <point x="743" y="0"/>
      <point x="678" y="206" type="qcurve"/>
      <point x="673" y="206"/>
      <point x="668" y="203" type="qcurve"/>
      <point x="659" y="202"/>
      <point x="649" y="197" type="qcurve"/>
      <point x="646" y="197" type="line"/>
      <point x="642" y="196" type="line" smooth="yes"/>
      <point x="638" y="195"/>
      <point x="634" y="192" type="qcurve"/>
      <point x="632" y="192"/>
      <point x="631" y="191" type="qcurve"/>
      <point x="630" y="191"/>
      <point x="628" y="190" type="qcurve"/>
      <point x="625" y="190" type="line"/>
      <point x="621" y="188" type="line"/>
      <point x="607" y="185" type="line"/>
      <point x="599" y="181" type="line"/>
      <point x="598" y="181"/>
      <point x="597" y="180" type="qcurve"/>
      <point x="590" y="179"/>
      <point x="581" y="175" type="qcurve"/>
      <point x="550" y="164" type="line"/>
      <point x="544" y="163"/>
      <point x="539" y="159" type="qcurve"/>
      <point x="535" y="159"/>
      <point x="531" y="156" type="qcurve"/>
      <point x="529" y="156"/>
      <point x="528" y="155" type="qcurve"/>
      <point x="525" y="154" type="line"/>
      <point x="523" y="154"/>
      <point x="521" y="152" type="qcurve"/>
      <point x="514" y="151"/>
      <point x="505" y="147" type="qcurve"/>
      <point x="501" y="146" type="line"/>
      <point x="496" y="143" type="line"/>
      <point x="494" y="143"/>
      <point x="491" y="141" type="qcurve"/>
      <point x="477" y="136" type="line"/>
      <point x="467" y="131" type="line"/>
      <point x="457" y="128" type="line"/>
      <point x="422" y="114" type="line"/>
      <point x="417" y="113"/>
      <point x="411" y="109" type="qcurve"/>
      <point x="406" y="108"/>
      <point x="403" y="107" type="qcurve"/>
      <point x="393" y="104"/>
      <point x="384" y="99" type="qcurve"/>
      <point x="382" y="99"/>
      <point x="380" y="97" type="qcurve"/>
      <point x="375" y="96" type="line"/>
      <point x="343" y="84" type="line"/>
      <point x="340" y="82" type="line"/>
      <point x="339" y="82"/>
      <point x="337" y="81" type="qcurve"/>
      <point x="307" y="70" type="line"/>
      <point x="301" y="68"/>
      <point x="294" y="65" type="qcurve"/>
      <point x="286" y="64"/>
      <point x="278" y="59" type="qcurve"/>
      <point x="272" y="58" type="line"/>
      <point x="258" y="52" type="line"/>
      <point x="257" y="52"/>
      <point x="256" y="51" type="qcurve"/>
      <point x="253" y="51"/>
      <point x="250" y="49" type="qcurve"/>
      <point x="239" y="47"/>
      <point x="222" y="40" type="qcurve"/>
      <point x="218" y="39" type="line"/>
      <point x="217" y="39"/>
      <point x="215" y="38" type="qcurve"/>
      <point x="213" y="38"/>
      <point x="212" y="37" type="qcurve"/>
      <point x="209" y="37" type="line"/>
      <point x="204" y="35"/>
      <point x="197" y="33" type="qcurve"/>
      <point x="191" y="31"/>
      <point x="184" y="29" type="qcurve"/>
      <point x="176" y="28"/>
      <point x="166" y="24" type="qcurve"/>
      <point x="159" y="24"/>
      <point x="148" y="20" type="qcurve"/>
      <point x="136" y="16" type="line"/>
      <point x="126" y="16"/>
      <point x="114" y="11" type="qcurve"/>
      <point x="110" y="11" type="line"/>
      <point x="108" y="10" type="line"/>
      <point x="100" y="10" type="line"/>
      <point x="88" y="7" type="line"/>
      <point x="86" y="7"/>
      <point x="83" y="6" type="qcurve"/>
      <point x="76" y="6" type="line"/>
      <point x="73" y="5" type="line"/>
      <point x="71" y="5"/>
      <point x="69" y="4" type="qcurve"/>
      <point x="66" y="4"/>
      <point x="62" y="3" type="qcurve"/>
      <point x="52" y="3" type="line"/>
      <point x="43" y="1" type="line"/>
      <point x="33" y="1" type="line"/>
      <point x="26" y="0" type="line"/>
      <point x="0" y="0" type="line"/>
      <point x="0" y="154" type="line"/>
      <point x="34" y="154" type="line" smooth="yes"/>
      <point x="36" y="154"/>
      <point x="37" y="155" type="qcurve"/>
      <point x="52" y="155" type="line"/>
      <point x="55" y="156" type="line"/>
      <point x="64" y="156" type="line"/>
      <point x="68" y="157" type="line"/>
      <point x="77" y="156"/>
      <point x="88" y="159" type="qcurve"/>
      <point x="92" y="159"/>
      <point x="95" y="160" type="qcurve"/>
      <point x="100" y="160"/>
      <point x="106" y="161" type="qcurve"/>
      <point x="109" y="162" type="line"/>
      <point x="118" y="162"/>
      <point x="129" y="165" type="qcurve"/>
      <point x="134" y="165"/>
      <point x="142" y="167" type="qcurve"/>
      <point x="147" y="167" type="line"/>
      <point x="153" y="168" type="line"/>
      <point x="154" y="168"/>
      <point x="155" y="169" type="qcurve"/>
      <point x="160" y="169"/>
      <point x="166" y="171" type="qcurve"/>
      <point x="172" y="171"/>
      <point x="177" y="174" type="qcurve"/>
      <point x="182" y="174"/>
      <point x="187" y="176" type="qcurve"/>
      <point x="190" y="177" type="line"/>
      <point x="195" y="177"/>
      <point x="201" y="180" type="qcurve"/>
      <point x="208" y="182" type="line"/>
      <point x="209" y="182"/>
      <point x="211" y="183" type="qcurve"/>
      <point x="220" y="184"/>
      <point x="233" y="188" type="qcurve"/>
      <point x="235" y="189" type="line"/>
      <point x="238" y="189" type="line"/>
      <point x="241" y="190" type="line"/>
      <point x="248" y="193"/>
      <point x="258" y="196" type="qcurve"/>
      <point x="265" y="199" type="line"/>
      <point x="267" y="199"/>
      <point x="267" y="200" type="qcurve"/>
      <point x="270" y="200" type="line"/>
      <point x="273" y="202" type="line"/>
      <point x="276" y="202" type="line"/>
      <point x="278" y="204" type="line"/>
      <point x="286" y="205"/>
      <point x="294" y="209" type="qcurve"/>
      <point x="298" y="209"/>
      <point x="302" y="212" type="qcurve"/>
      <point x="305" y="212" type="line"/>
      <point x="306" y="214" type="line"/>
      <point x="309" y="214" type="line"/>
      <point x="325" y="221" type="line"/>
      <point x="330" y="222"/>
      <point x="334" y="225" type="qcurve"/>
      <point x="341" y="226"/>
      <point x="348" y="230" type="qcurve"/>
      <point x="351" y="230" type="line"/>
      <point x="353" y="232" type="line"/>
      <point x="356" y="232" type="line"/>
      <point x="358" y="234" type="line"/>
      <point x="361" y="234" type="line"/>
      <point x="397" y="250" type="line"/>
      <point x="399" y="250"/>
      <point x="402" y="252" type="qcurve"/>
      <point x="413" y="256" type="line"/>
      <point x="417" y="259" type="line"/>
      <point x="424" y="260"/>
      <point x="430" y="265" type="qcurve"/>
      <point x="440" y="267" type="line"/>
      <point x="442" y="269" type="line"/>
      <point x="451" y="272" type="line"/>
      <point x="453" y="274" type="line"/>
      <point x="462" y="276"/>
      <point x="471" y="282" type="qcurve"/>
      <point x="480" y="284"/>
      <point x="492" y="290" type="qcurve"/>
      <point x="493" y="290"/>
      <point x="494" y="291" type="qcurve"/>
      <point x="513" y="299" type="line"/>
      <point x="521" y="301"/>
      <point x="531" y="306" type="qcurve"/>
      <point x="538" y="307"/>
      <point x="545" y="312" type="qcurve"/>
      <point x="553" y="313"/>
      <point x="561" y="318" type="qcurve"/>
      <point x="565" y="319" type="line"/>
      <point x="559" y="324"/>
      <point x="551" y="326" type="qcurve"/>
      <point x="530" y="336" type="line"/>
      <point x="523" y="338" type="line"/>
      <point x="503" y="348" type="line"/>
      <point x="500" y="350"/>
      <point x="496" y="351" type="qcurve"/>
      <point x="494" y="353" type="line"/>
      <point x="489" y="355" type="line"/>
      <point x="484" y="358"/>
      <point x="478" y="360" type="qcurve"/>
      <point x="476" y="362" type="line"/>
      <point x="465" y="366" type="line"/>
      <point x="443" y="379" type="line"/>
      <point x="422" y="388" type="line"/>
      <point x="416" y="392" type="line"/>
      <point x="406" y="396" type="line"/>
      <point x="401" y="399"/>
      <point x="392" y="403" type="qcurve"/>
      <point x="387" y="405" type="line"/>
      <point x="383" y="407"/>
      <point x="378" y="409" type="qcurve"/>
      <point x="376" y="411" type="line"/>
      <point x="366" y="415" type="line"/>
      <point x="360" y="417"/>
      <point x="352" y="422" type="qcurve"/>
      <point x="349" y="422" type="line"/>
      <point x="336" y="428" type="line"/>
      <point x="329" y="430"/>
      <point x="321" y="434" type="qcurve"/>
      <point x="305" y="439" type="line"/>
      <point x="302" y="441" type="line"/>
      <point x="286" y="445" type="line"/>
      <point x="280" y="446"/>
      <point x="274" y="448" type="qcurve"/>
      <point x="261" y="451" type="line"/>
      <point x="258" y="451" type="line"/>
      <point x="251" y="453" type="line"/>
      <point x="247" y="453" type="line"/>
      <point x="237" y="455" type="line"/>
      <point x="230" y="455" type="line"/>
      <point x="225" y="456"/>
      <point x="220" y="456" type="qcurve" smooth="yes"/>
      <point x="213" y="456" type="line"/>
      <point x="139" y="448"/>
      <point x="86" y="385" type="qcurve"/>
      <point x="76" y="366" type="line" smooth="yes"/>
      <point x="74" y="362"/>
      <point x="72" y="357" type="qcurve"/>
      <point x="70" y="355" type="line"/>
      <point x="68" y="347" type="line"/>
      <point x="65" y="344"/>
      <point x="63" y="339" type="qcurve"/>
      <point x="57" y="328"/>
      <point x="47" y="322" type="qcurve"/>
      <point x="45" y="330" type="line"/>
      <point x="56" y="450"/>
      <point x="151" y="541" type="qcurve"/>
      <point x="156" y="543"/>
      <point x="160" y="547" type="qcurve"/>
      <point x="165" y="549"/>
      <point x="169" y="554" type="qcurve"/>
      <point x="175" y="557"/>
      <point x="183" y="562" type="qcurve"/>
      <point x="184" y="562"/>
      <point x="185" y="563" type="qcurve"/>
      <point x="190" y="565"/>
      <point x="195" y="569" type="qcurve"/>
      <point x="213" y="578" type="line"/>
      <point x="237" y="585" type="line"/>
      <point x="238" y="585"/>
      <point x="239" y="586" type="qcurve"/>
      <point x="247" y="586"/>
      <point x="255" y="590" type="qcurve"/>
      <point x="261" y="590" type="line"/>
    </contour>
  </outline>
</glyph>
<glyph name="uniFEBB" format="2">
  <advance width="1081"/>
  <unicode hex="FEBB"/>
  <anchor x="357" y="742" name="t.uni064B"/>
  <anchor x="357" y="-385" name="b.uni064D_1"/>
  <outline>
    <contour>
      <point x="849" y="579" type="line" smooth="yes"/>
      <point x="851" y="579"/>
      <point x="852" y="580" type="qcurve"/>
      <point x="885" y="580" type="line"/>
      <point x="993" y="556"/>
      <point x="1034" y="460" type="qcurve"/>
      <point x="1039" y="451"/>
      <point x="1041" y="440" type="qcurve"/>
      <point x="1043" y="437" type="line"/>
      <point x="1045" y="426" type="line"/>
      <point x="1045" y="424"/>
      <point x="1046" y="423" type="qcurve"/>
      <point x="1062" y="289"/>
      <point x="970" y="164" type="qcurve"/>
      <point x="799" y="19"/>
      <point x="549" y="-3" type="qcurve"/>
      <point x="487" y="-3" type="line"/>
      <point x="468" y="-2" type="line"/>
      <point x="461" y="-2" type="line"/>
      <point x="459" y="-1" type="line"/>
      <point x="451" y="-1" type="line"/>
      <point x="444" y="1"/>
      <point x="435" y="1" type="qcurve"/>
      <point x="433" y="2" type="line"/>
      <point x="426" y="2" type="line"/>
      <point x="403" y="7" type="line"/>
      <point x="400" y="7" type="line"/>
      <point x="390" y="10" type="line"/>
      <point x="385" y="10" type="line"/>
      <point x="380" y="11"/>
      <point x="375" y="13" type="qcurve"/>
      <point x="351" y="20" type="line"/>
      <point x="350" y="21"/>
      <point x="347" y="21" type="qcurve"/>
      <point x="336" y="26" type="line"/>
      <point x="331" y="28"/>
      <point x="325" y="30" type="qcurve"/>
      <point x="321" y="33"/>
      <point x="313" y="35" type="qcurve"/>
      <point x="303" y="40" type="line"/>
      <point x="298" y="44" type="line"/>
      <point x="287" y="49" type="line"/>
      <point x="272" y="59" type="line"/>
      <point x="269" y="62"/>
      <point x="263" y="66" type="qcurve"/>
      <point x="261" y="69" type="line"/>
      <point x="250" y="76" type="line"/>
      <point x="241" y="88" type="line"/>
      <point x="239" y="89" type="line"/>
      <point x="239" y="90"/>
      <point x="237" y="90" type="qcurve"/>
      <point x="234" y="93" type="line"/>
      <point x="231" y="99"/>
      <point x="226" y="105" type="qcurve" smooth="yes"/>
      <point x="222" y="110" type="line"/>
      <point x="222" y="112"/>
      <point x="220" y="113" type="qcurve"/>
      <point x="217" y="120"/>
      <point x="211" y="130" type="qcurve"/>
      <point x="210" y="135"/>
      <point x="207" y="139" type="qcurve"/>
      <point x="207" y="141"/>
      <point x="207" y="142" type="qcurve"/>
      <point x="206" y="146" type="line"/>
      <point x="206" y="147"/>
      <point x="204" y="148" type="qcurve"/>
      <point x="148" y="54"/>
      <point x="38" y="10" type="qcurve"/>
      <point x="0" y="0" type="line"/>
      <point x="0" y="167" type="line"/>
      <point x="157" y="178"/>
      <point x="265" y="315" type="qcurve"/>
      <point x="286" y="207"/>
      <point x="401" y="169" type="qcurve"/>
      <point x="410" y="184" type="line"/>
      <point x="414" y="188"/>
      <point x="417" y="193" type="qcurve"/>
      <point x="420" y="195"/>
      <point x="423" y="200" type="qcurve"/>
      <point x="426" y="203"/>
      <point x="429" y="209" type="qcurve"/>
      <point x="443" y="227" type="line"/>
      <point x="449" y="232"/>
      <point x="452" y="240" type="qcurve"/>
      <point x="458" y="245"/>
      <point x="463" y="253" type="qcurve"/>
      <point x="470" y="262" type="line"/>
      <point x="471" y="265" type="line"/>
      <point x="475" y="269" type="line"/>
      <point x="481" y="274"/>
      <point x="485" y="283" type="qcurve"/>
      <point x="487" y="284" type="line"/>
      <point x="500" y="299" type="line"/>
      <point x="503" y="305" type="line"/>
      <point x="508" y="310"/>
      <point x="514" y="318" type="qcurve"/>
      <point x="515" y="318"/>
      <point x="516" y="320" type="qcurve" smooth="yes"/>
      <point x="517" y="322" type="line"/>
      <point x="522" y="326"/>
      <point x="527" y="333" type="qcurve"/>
      <point x="532" y="338"/>
      <point x="536" y="345" type="qcurve"/>
      <point x="541" y="349" type="line"/>
      <point x="548" y="359" type="line"/>
      <point x="556" y="365"/>
      <point x="561" y="374" type="qcurve"/>
      <point x="562" y="374"/>
      <point x="563" y="376" type="qcurve"/>
      <point x="566" y="378"/>
      <point x="569" y="383" type="qcurve"/>
      <point x="574" y="387"/>
      <point x="581" y="394" type="qcurve"/>
      <point x="582" y="397" type="line"/>
      <point x="587" y="401"/>
      <point x="592" y="407" type="qcurve"/>
      <point x="601" y="415" type="line"/>
      <point x="601" y="418" type="line"/>
      <point x="606" y="421"/>
      <point x="611" y="427" type="qcurve"/>
      <point x="627" y="443" type="line"/>
      <point x="631" y="446"/>
      <point x="635" y="451" type="qcurve" smooth="yes"/>
      <point x="640" y="457" type="line"/>
      <point x="644" y="459" type="line"/>
      <point x="647" y="463" type="line"/>
      <point x="651" y="465" type="line"/>
      <point x="656" y="469"/>
      <point x="661" y="476" type="qcurve"/>
      <point x="675" y="486" type="line"/>
      <point x="678" y="490" type="line"/>
      <point x="685" y="493"/>
      <point x="689" y="500" type="qcurve"/>
      <point x="698" y="504"/>
      <point x="706" y="513" type="qcurve"/>
      <point x="709" y="514" type="line"/>
      <point x="710" y="516" type="line"/>
      <point x="714" y="518"/>
      <point x="719" y="522" type="qcurve"/>
      <point x="722" y="525"/>
      <point x="727" y="527" type="qcurve"/>
      <point x="733" y="530"/>
      <point x="738" y="535" type="qcurve"/>
      <point x="747" y="540" type="line"/>
      <point x="751" y="543"/>
      <point x="757" y="545" type="qcurve"/>
      <point x="763" y="550" type="line"/>
      <point x="772" y="552"/>
      <point x="780" y="559" type="qcurve"/>
      <point x="786" y="560"/>
      <point x="792" y="563" type="qcurve"/>
      <point x="796" y="564" type="line"/>
      <point x="798" y="566" type="line"/>
      <point x="803" y="567" type="line"/>
      <point x="806" y="569" type="line"/>
      <point x="807" y="569"/>
      <point x="809" y="570" type="qcurve"/>
      <point x="814" y="570"/>
      <point x="819" y="573" type="qcurve"/>
      <point x="824" y="574"/>
      <point x="830" y="576" type="qcurve"/>
      <point x="846" y="579" type="line"/>
    </contour>
    <contour>
      <point x="790" y="428" type="line"/>
      <point x="768" y="424" type="line"/>
      <point x="765" y="424" type="line"/>
      <point x="763" y="423" type="line"/>
      <point x="760" y="423" type="line" smooth="yes"/>
      <point x="759" y="423"/>
      <point x="758" y="422" type="qcurve"/>
      <point x="756" y="422"/>
      <point x="755" y="421" type="qcurve"/>
      <point x="751" y="421" type="line"/>
      <point x="748" y="419" type="line"/>
      <point x="746" y="419"/>
      <point x="745" y="418" type="qcurve"/>
      <point x="736" y="415" type="line"/>
      <point x="731" y="412" type="line"/>
      <point x="728" y="412" type="line"/>
      <point x="700" y="398" type="line"/>
      <point x="699" y="396" type="line"/>
      <point x="697" y="396"/>
      <point x="696" y="394" type="qcurve"/>
      <point x="692" y="393" type="line"/>
      <point x="687" y="389" type="line"/>
      <point x="686" y="389"/>
      <point x="685" y="387" type="qcurve"/>
      <point x="675" y="382" type="line"/>
      <point x="674" y="380" type="line"/>
      <point x="665" y="375" type="line"/>
      <point x="664" y="373" type="line"/>
      <point x="647" y="361" type="line"/>
      <point x="645" y="358" type="line"/>
      <point x="642" y="357" type="line"/>
      <point x="640" y="354" type="line"/>
      <point x="636" y="353"/>
      <point x="634" y="348" type="qcurve"/>
      <point x="627" y="343" type="line"/>
      <point x="624" y="341"/>
      <point x="619" y="336" type="qcurve"/>
      <point x="615" y="331" type="line"/>
      <point x="603" y="321" type="line"/>
      <point x="600" y="318"/>
      <point x="597" y="313" type="qcurve"/>
      <point x="592" y="309" type="line"/>
      <point x="578" y="293" type="line"/>
      <point x="570" y="286" type="line"/>
      <point x="566" y="280" type="line"/>
      <point x="560" y="275"/>
      <point x="556" y="267" type="qcurve"/>
      <point x="546" y="259"/>
      <point x="539" y="246" type="qcurve"/>
      <point x="534" y="243"/>
      <point x="531" y="237" type="qcurve"/>
      <point x="529" y="236" type="line"/>
      <point x="528" y="233" type="line"/>
      <point x="522" y="228"/>
      <point x="518" y="220" type="qcurve"/>
      <point x="516" y="219" type="line"/>
      <point x="508" y="207" type="line"/>
      <point x="501" y="201"/>
      <point x="497" y="190" type="qcurve"/>
      <point x="490" y="183"/>
      <point x="483" y="173" type="qcurve" smooth="yes"/>
      <point x="479" y="167"/>
      <point x="476" y="160" type="qcurve"/>
      <point x="474" y="159" type="line"/>
      <point x="471" y="154" type="line"/>
      <point x="466" y="148"/>
      <point x="472" y="148" type="qcurve"/>
      <point x="491" y="147" type="line"/>
      <point x="494" y="147" type="line"/>
      <point x="498" y="146" type="line"/>
      <point x="508" y="146" type="line" smooth="yes"/>
      <point x="513" y="146"/>
      <point x="519" y="145" type="qcurve"/>
      <point x="551" y="145" type="line" smooth="yes"/>
      <point x="556" y="145"/>
      <point x="563" y="146" type="qcurve"/>
      <point x="584" y="146" type="line"/>
      <point x="591" y="147" type="line"/>
      <point x="597" y="147" type="line"/>
      <point x="600" y="148" type="line"/>
      <point x="619" y="148" type="line"/>
      <point x="635" y="150" type="line"/>
      <point x="639" y="150" type="line"/>
      <point x="674" y="155" type="line"/>
      <point x="676" y="156" type="line"/>
      <point x="679" y="156" type="line"/>
      <point x="681" y="157" type="line"/>
      <point x="684" y="157" type="line"/>
      <point x="688" y="158" type="line"/>
      <point x="689" y="158"/>
      <point x="691" y="159" type="qcurve"/>
      <point x="697" y="159" type="line"/>
      <point x="699" y="160" type="line"/>
      <point x="707" y="161"/>
      <point x="720" y="165" type="qcurve"/>
      <point x="730" y="166" type="line"/>
      <point x="734" y="167"/>
      <point x="738" y="168" type="qcurve"/>
      <point x="746" y="168"/>
      <point x="755" y="172" type="qcurve"/>
      <point x="758" y="172" type="line" smooth="yes"/>
      <point x="761" y="172"/>
      <point x="766" y="175" type="qcurve"/>
      <point x="769" y="175" type="line" smooth="yes"/>
      <point x="772" y="175"/>
      <point x="777" y="178" type="qcurve"/>
      <point x="786" y="179"/>
      <point x="798" y="184" type="qcurve"/>
      <point x="799" y="184"/>
      <point x="800" y="185" type="qcurve"/>
      <point x="803" y="185" type="line" smooth="yes"/>
      <point x="806" y="185"/>
      <point x="811" y="187" type="qcurve"/>
      <point x="814" y="187" type="line"/>
      <point x="829" y="193" type="line"/>
      <point x="834" y="193"/>
      <point x="839" y="196" type="qcurve"/>
      <point x="866" y="205" type="line"/>
      <point x="872" y="208"/>
      <point x="879" y="209" type="qcurve"/>
      <point x="881" y="211" type="line"/>
      <point x="883" y="211"/>
      <point x="884" y="212" type="qcurve"/>
      <point x="894" y="214"/>
      <point x="907" y="221" type="qcurve"/>
      <point x="916" y="224" type="line"/>
      <point x="918" y="226" type="line"/>
      <point x="922" y="226" type="line"/>
      <point x="953" y="239" type="line"/>
      <point x="953" y="247"/>
      <point x="950" y="256" type="qcurve"/>
      <point x="950" y="262"/>
      <point x="947" y="269" type="qcurve"/>
      <point x="947" y="272" type="line"/>
      <point x="942" y="288" type="line"/>
      <point x="942" y="289"/>
      <point x="941" y="291" type="qcurve"/>
      <point x="928" y="356"/>
      <point x="874" y="404" type="qcurve"/>
      <point x="854" y="416" type="line"/>
      <point x="840" y="422" type="line"/>
      <point x="837" y="423"/>
      <point x="833" y="424" type="qcurve"/>
      <point x="819" y="426" type="line"/>
      <point x="817" y="427" type="line"/>
      <point x="813" y="427"/>
      <point x="810" y="428" type="qcurve"/>
    </contour>
  </outline>
</glyph>
